<svg width="76" height="51" viewBox="0 0 76 51" fill="none" xmlns="http://www.w3.org/2000/svg">
<g clip-path="url(#clip0_265_536)">
<mask id="mask0_265_536" style="mask-type:luminance" maskUnits="userSpaceOnUse" x="0" y="0" width="76" height="51">
<path d="M0 0.108711H76V50.8913H0V0.108711Z" fill="white"/>
</mask>
<g mask="url(#mask0_265_536)">
<path d="M10.2566 10.9496H9.35406V3.06537H10.2566V10.9496ZM17.6374 8.81226C17.6374 10.1651 16.4947 11.0449 14.9088 11.0449C13.6949 11.0594 12.5227 10.6071 11.6395 9.78328L12.2 9.129C12.5568 9.49097 12.9836 9.77817 13.4551 9.97347C13.9266 10.1688 14.433 10.2682 14.9441 10.2658C16.0156 10.2658 16.7247 9.70208 16.7247 8.92366C16.7247 8.18886 16.3264 7.77146 14.6435 7.41446C12.8073 7.0172 11.9605 6.40922 11.9605 5.13691C11.9605 3.89546 13.0672 2.98484 14.5872 2.98484C15.6128 2.95559 16.6134 3.30104 17.3978 3.95518L16.8876 4.63966C16.2479 4.09025 15.4297 3.7868 14.5824 3.78474C13.5619 3.78474 12.8786 4.34775 12.8786 5.05638C12.8786 5.79588 13.2918 6.21328 15.0513 6.56491C16.8109 6.91654 17.653 7.57082 17.653 8.7975L17.6374 8.81226ZM25.6771 2.93451C25.1361 2.93069 24.5997 3.03373 24.0995 3.23757C23.5993 3.44141 23.1452 3.74197 22.764 4.12161C22.3843 4.501 22.0853 4.95184 21.8849 5.44746C21.6844 5.94308 21.5865 6.47343 21.5968 7.00713V7.03263C21.5984 7.56118 21.7056 8.0842 21.9122 8.57167C22.1188 9.05914 22.4207 9.50145 22.8006 9.8732C23.5687 10.6262 24.6078 11.0467 25.6893 11.0422C26.7708 11.0387 27.807 10.6119 28.5712 9.85508C29.3326 9.09875 29.7593 8.07439 29.7573 7.00713C29.7706 6.47365 29.6743 5.94305 29.4743 5.44743C29.2743 4.9518 28.9747 4.50145 28.5936 4.12362C28.212 3.74468 27.7571 3.44582 27.2559 3.24495C26.7548 3.04408 26.2178 2.94534 25.6771 2.95464V2.93451ZM28.8087 7.05276C28.8269 7.47001 28.7594 7.88658 28.6101 8.27726C28.4608 8.66793 28.2329 9.02458 27.9401 9.32562C27.6475 9.62772 27.2962 9.86839 26.9074 10.0333C26.5186 10.1981 26.1001 10.2838 25.6771 10.2852C25.2515 10.2816 24.8309 10.1938 24.4401 10.0269C24.0494 9.86 23.6963 9.61745 23.4018 9.31354C23.1081 9.01006 22.8791 8.65128 22.7283 8.25853C22.5776 7.86577 22.5083 7.44705 22.5245 7.02726C22.5057 6.60982 22.5728 6.19295 22.7217 5.80192C22.8707 5.41089 23.0984 5.05384 23.391 4.75239C23.6839 4.45003 24.0356 4.20934 24.425 4.04478C24.8143 3.88022 25.2333 3.79519 25.6567 3.7948C26.082 3.79808 26.5023 3.88544 26.8929 4.05173C27.2836 4.21803 27.6366 4.45991 27.9313 4.76313C28.2248 5.06637 28.4537 5.42482 28.6044 5.81721C28.7551 6.2096 28.8246 6.62794 28.8087 7.04739V7.05276ZM19.1167 3.0855H20.0192V10.9496H19.1268L19.1167 3.0855ZM3.88613 11.0053L0.448487 3.06604H1.46838L1.97867 4.24172L4.32992 9.85843L4.55384 10.3959L4.46767 9.53163L7.14056 3.06537H8.10956L4.68684 11.0053H3.88613ZM37.1022 3.06671H37.9843V10.9502H37.2651L31.6234 3.85989L32.1337 5.01142V10.9496H31.2203V3.06537H32.0672L37.4741 9.84837L37.1015 8.88272L37.1022 3.06671ZM62.3912 11.7837H63.2482V12.6178H62.4014L62.3912 11.7837ZM64.0849 11.7837H64.9318V12.6178H64.0842L64.0849 11.7837ZM46.6449 2.22924H45.7981V1.40586H46.6449V2.22924ZM67.3536 8.0674C67.6919 8.30068 68.0704 8.471 68.4705 8.57001C68.9092 8.67875 69.3598 8.73285 69.812 8.73107H70.0367L70.3223 8.14255V8.96728C70.3404 9.14283 70.3151 9.3201 70.2484 9.48378C70.1817 9.64746 70.0757 9.79263 69.9396 9.90675C69.6226 10.112 69.2471 10.2108 68.8688 10.1886C68.6339 10.1906 68.3996 10.167 68.1699 10.1181C67.9237 10.0537 67.6832 9.96975 67.4506 9.86716L67.1907 10.6711C67.4721 10.7767 67.7594 10.8639 68.0525 10.9328C68.3004 10.9932 68.5519 11.0234 68.8071 11.0234C69.1312 11.0523 69.4579 11.0159 69.7674 10.9165C70.077 10.8171 70.3629 10.6567 70.608 10.4449C70.9962 10.0188 71.1977 9.45849 71.1692 8.88675V3.07476H69.812C69.3268 3.07038 68.8442 3.1452 68.3837 3.29621C67.9804 3.42544 67.6053 3.62824 67.2776 3.89412C66.9717 4.14307 66.7259 4.45644 66.5581 4.81136C66.3904 5.16627 66.3049 5.55376 66.3079 5.94553C66.2971 6.38439 66.3934 6.81857 66.5888 7.21314C66.7707 7.55672 67.0326 7.85266 67.3536 8.07746V8.0674ZM67.3536 5.1208C67.4771 4.87386 67.6508 4.65509 67.8639 4.47659C68.3069 4.12094 68.8587 3.92415 69.4293 3.91828H70.7967L70.3169 4.15516V7.90634H69.4606C69.1563 7.90821 68.8536 7.86408 68.5628 7.77549C68.297 7.69166 68.0483 7.56218 67.8279 7.39299C67.6126 7.22998 67.4383 7.0201 67.3183 6.77964C67.193 6.51904 67.1301 6.23339 67.1344 5.94486C67.131 5.65832 67.1996 5.37513 67.3332 5.1208H67.3536ZM48.319 2.23997H47.4721V1.40586H48.319V2.23997ZM73.3121 11.0341C73.0787 11.0341 72.8473 11.0019 72.6234 10.9388L72.848 10.1389C72.9231 10.1613 72.9995 10.1781 73.0773 10.1893H73.2816C73.4173 10.1953 73.5523 10.1732 73.6792 10.1242C73.7816 10.0785 73.8658 10.0007 73.9188 9.90272C73.9873 9.77992 74.0301 9.64504 74.0463 9.50546C74.0757 9.30728 74.0893 9.10797 74.0871 8.90755V3.07476H74.9292V8.91762C74.9319 9.21333 74.9063 9.50636 74.8525 9.7967C74.8084 10.0354 74.7164 10.2629 74.5817 10.4657C74.4547 10.6506 74.2783 10.7969 74.0721 10.8885C73.8305 10.9908 73.5695 11.0404 73.3067 11.0341H73.3121ZM71.1644 2.23997H69.3079V1.55684C69.2947 1.41319 69.3109 1.26839 69.3556 1.13107C69.4002 0.993753 69.4724 0.866742 69.5678 0.757619C69.6688 0.668848 69.7868 0.600876 69.9147 0.55767C70.0426 0.514464 70.178 0.49689 70.3128 0.505974H70.8991V1.11462H70.3176C70.2249 1.10318 70.1315 1.12851 70.0577 1.18508C70.0072 1.257 69.9837 1.34411 69.9912 1.43136V1.61724H71.1543L71.1644 2.23997ZM46.0336 10.9187H47.7883V10.2946C47.7883 10.3255 47.8236 10.355 47.844 10.3805C47.9716 10.5651 48.148 10.7107 48.3543 10.8033C48.5965 10.9086 48.8598 10.9583 49.1244 10.9489H64.9365V3.07476H64.0897V10.1141H49.1448C49.0091 10.1195 48.8734 10.0973 48.7472 10.0483C48.6444 10.0015 48.559 9.92409 48.5029 9.8269C48.4363 9.70385 48.3945 9.56914 48.3801 9.4303C48.3514 9.23206 48.3378 9.03197 48.3393 8.83172V3.07476H46.0539C45.5324 3.07031 45.0153 3.16893 44.5329 3.36483C44.0504 3.56073 43.6125 3.84997 43.2446 4.21555C42.8779 4.58079 42.5891 5.01512 42.3952 5.4928C42.2014 5.97047 42.1065 6.48178 42.1162 6.99639C42.1035 7.50899 42.196 8.0188 42.3879 8.49511C42.5799 8.97142 42.8674 9.40436 43.2331 9.76784C43.5991 10.1327 44.0358 10.4209 44.5169 10.6152C44.9981 10.8094 45.5139 10.9058 46.0336 10.8986V10.9187ZM43.0193 6.95613C43.0013 6.55435 43.066 6.15313 43.2093 5.77676C43.3527 5.40039 43.5717 5.0567 43.8533 4.76649C44.1352 4.47545 44.4736 4.24371 44.8482 4.08516C45.2229 3.9266 45.626 3.84451 46.0336 3.84379H48.0123L47.5027 4.1008V8.81159C47.5018 9.10672 47.5291 9.40127 47.5841 9.69134C47.613 9.8354 47.6574 9.97453 47.7171 10.1087H46.0641C45.6524 10.1091 45.2448 10.0274 44.8657 9.86866C44.4866 9.70991 44.1437 9.4773 43.8574 9.1847C43.5723 8.89238 43.3497 8.54619 43.2031 8.16684C43.0564 7.7875 42.9886 7.38279 43.0037 6.97693L43.0193 6.95613ZM3.58484 50.4276H2.95852L1.75406 48.8593L1.15692 49.4626V50.4276H0.637808V47.0891H1.15759V48.8842L2.88184 47.0891H3.50409L2.10556 48.5171L3.58484 50.4276ZM4.79881 47.0891H4.27834V50.4276H4.79881V47.0891ZM8.77863 47.0891V50.4276H8.33484L6.34459 47.8984V50.4283H5.83431V47.0891H6.33441L8.26766 49.5478V47.0891H8.77863ZM12.7924 48.603V49.9753C12.3982 50.3028 11.8992 50.4812 11.3843 50.4786C11.1517 50.4898 10.9192 50.4532 10.7015 50.3709C10.4839 50.2887 10.286 50.1626 10.1202 50.0008C9.9551 49.8391 9.82583 49.6453 9.74055 49.4316C9.65528 49.2178 9.61586 48.9889 9.62481 48.7594C9.62193 48.5316 9.66525 48.3056 9.75219 48.0947C9.83914 47.8837 9.96795 47.6922 10.131 47.5313C10.2942 47.3703 10.4881 47.2429 10.7016 47.1568C10.915 47.0706 11.1436 47.0273 11.3742 47.0294C11.8391 47.0051 12.2956 47.1581 12.6499 47.4568L12.3228 47.8387C12.0549 47.6075 11.7093 47.4838 11.3538 47.4917C11.0322 47.5119 10.7309 47.6568 10.5151 47.8937C10.299 48.13 10.1861 48.4411 10.2009 48.7594C10.1822 49.0083 10.2437 49.2566 10.3766 49.4688C10.5095 49.681 10.7069 49.8461 10.9406 49.9404C11.096 50.0042 11.2629 50.0344 11.4305 50.031C11.7426 50.035 12.0487 49.9397 12.3024 49.7592V49.0506H11.4047V48.6178L12.7924 48.603ZM14.9801 47.0898H13.7302V50.4283H14.9801C15.3313 50.4548 15.6823 50.3729 15.9845 50.1939C16.2867 50.015 16.5254 49.7478 16.6677 49.4291C16.8088 49.1105 16.8459 48.7563 16.7738 48.4158C16.7017 48.0754 16.5239 47.7657 16.2653 47.53C16.0934 47.3729 15.8904 47.2527 15.6693 47.1769C15.4481 47.1012 15.2134 47.0715 14.9801 47.0898ZM14.9801 49.9706H14.2506V47.5468H14.9801C15.3058 47.5468 15.6186 47.6743 15.8487 47.9024C15.9626 48.0148 16.053 48.1483 16.1147 48.2953C16.1763 48.4423 16.2081 48.5999 16.2081 48.759C16.2081 48.9182 16.1763 49.0757 16.1147 49.2227C16.053 49.3697 15.9626 49.5032 15.8487 49.6156C15.6186 49.8431 15.3058 49.9706 14.9801 49.9706ZM19.2286 47.0287C18.9956 47.022 18.7637 47.062 18.5467 47.1462C18.3296 47.2303 18.1321 47.357 17.9658 47.5186C17.7998 47.6801 17.6688 47.8734 17.5807 48.0865C17.4927 48.2997 17.4494 48.5284 17.4535 48.7587C17.4511 49.1058 17.5534 49.4457 17.7474 49.735C17.9414 50.0243 18.2183 50.2498 18.5426 50.3826C18.8667 50.5167 19.2236 50.5528 19.5684 50.4864C19.9132 50.42 20.2304 50.254 20.4799 50.0095C20.7299 49.7655 20.9006 49.4533 20.9703 49.1128C21.04 48.7723 21.0055 48.419 20.8712 48.098C20.7369 47.777 20.509 47.5029 20.2164 47.3106C19.9238 47.1184 19.5799 47.0167 19.2286 47.0186V47.0287ZM20.4528 48.7587C20.4638 49.0042 20.3984 49.2471 20.2654 49.4547C20.1324 49.6623 19.9382 49.8246 19.7091 49.9196C19.5571 49.9834 19.3937 50.016 19.2286 50.0156C18.9797 50.0123 18.7374 49.9354 18.5329 49.7949C18.3285 49.6544 18.1711 49.4567 18.0812 49.2271C18.0216 49.0747 17.9939 48.9119 17.9997 48.7486C17.9867 48.5026 18.0505 48.2585 18.1824 48.0495C18.3143 47.8405 18.5081 47.6767 18.7373 47.5803C18.8893 47.5152 19.0529 47.4817 19.2191 47.4817C19.4683 47.4853 19.7107 47.5621 19.9155 47.7024C20.1203 47.8427 20.2783 48.0401 20.3693 48.2695C20.429 48.4225 20.4575 48.5849 20.4528 48.7486V48.7587ZM25.1817 47.0891V50.4276H24.6606V47.8635L23.5084 49.5633L22.3602 47.8736V50.4276H21.8506V47.0891H22.4322L23.5179 48.7486L24.5995 47.0891H25.1817ZM29.5273 47.0287C29.294 47.0221 29.0618 47.0621 28.8445 47.1463C28.6271 47.2305 28.4292 47.3571 28.2625 47.5186C28.0962 47.6801 27.9647 47.8732 27.8761 48.0864C27.7875 48.2995 27.7435 48.5282 27.7467 48.7587C27.7443 49.1055 27.8466 49.4452 28.0403 49.7344C28.2341 50.0235 28.5105 50.249 28.8345 50.382C29.1584 50.5162 29.5152 50.5527 29.86 50.4866C30.2048 50.4206 30.5221 50.255 30.7718 50.0109C31.0207 49.7673 31.1908 49.4562 31.2607 49.1169C31.3305 48.7776 31.2969 48.4254 31.164 48.1051C31.0297 47.7846 30.8026 47.5106 30.5113 47.3174C30.22 47.1242 29.8774 47.0205 29.5266 47.0193L29.5273 47.0287ZM30.746 48.7587C30.7569 49.0034 30.6919 49.2455 30.5597 49.4527C30.4275 49.6598 30.2344 49.822 30.0064 49.9176C29.855 49.9819 29.692 50.0152 29.5273 50.0156C29.3618 50.0135 29.1983 49.979 29.0464 49.9139C28.8945 49.8488 28.7572 49.7545 28.6425 49.6364C28.5282 49.5185 28.4389 49.3793 28.3797 49.2269C28.3205 49.0744 28.2926 48.9118 28.2977 48.7486C28.2847 48.5026 28.3485 48.2585 28.4804 48.0495C28.6123 47.8405 28.8061 47.6767 29.0353 47.5803C29.1873 47.5152 29.3516 47.4817 29.5171 47.4817C29.7661 47.485 30.0084 47.5618 30.2128 47.7023C30.4173 47.8428 30.5746 48.0406 30.6646 48.2702C30.7243 48.4225 30.7515 48.5855 30.746 48.7486V48.7587ZM32.6691 47.5468V48.5721H34.4239V49.0298H32.6691V50.4276H32.1486V47.0891H34.6478V47.5468H32.6691ZM39.6061 49.4975C39.6061 50.0907 39.1366 50.5034 38.4071 50.5034C37.9001 50.5059 37.4092 50.3272 37.0248 50.0001L37.3309 49.6378C37.6295 49.9082 38.0183 50.0605 38.4234 50.0659C38.8258 50.0659 39.0857 49.8793 39.0857 49.5626C39.0857 49.2459 38.897 49.1358 38.2646 48.9949C37.5406 48.8184 37.1422 48.6124 37.1422 47.989C37.1521 47.7804 37.2275 47.58 37.358 47.4158C37.4886 47.2516 37.6677 47.1317 37.8703 47.073C38.0047 47.0341 38.1458 47.022 38.285 47.0394C38.7184 47.0294 39.142 47.1679 39.484 47.4313L39.2085 47.8179C38.942 47.6092 38.6145 47.4911 38.2748 47.481C37.9124 47.481 37.6627 47.6676 37.6627 47.944C37.6627 48.2205 37.8459 48.3668 38.5245 48.5272C39.3048 48.7131 39.6061 48.9848 39.6061 49.4975ZM42.0646 47.0643H41.555L40.0601 50.4276H40.5704L40.9273 49.5982H42.636L42.9881 50.4276H43.5337L42.0646 47.0643ZM41.1363 49.1559L41.8047 47.6474L42.4731 49.1559H41.1363ZM46.9259 47.0891V48.9902C46.9676 49.2883 46.9057 49.5916 46.7504 49.8504C46.5951 50.1092 46.3555 50.3082 46.0709 50.4148C45.8819 50.4859 45.6793 50.5143 45.4778 50.4981C45.1808 50.5236 44.8837 50.4501 44.6339 50.2892C44.3841 50.1283 44.196 49.8892 44.0996 49.6102C44.0362 49.4255 44.0153 49.229 44.0386 49.0352V47.1045H44.5495V49.0103C44.5495 49.6586 44.8861 50.0156 45.4778 50.0156C46.0695 50.0156 46.3959 49.6485 46.3959 49.0103V47.079L46.9259 47.0891ZM49.1597 47.0898H47.9105V50.4283H49.1597C49.511 50.4548 49.8619 50.3729 50.1641 50.1939C50.4664 50.015 50.7051 49.7478 50.8473 49.4291C50.9885 49.1105 51.0256 48.7563 50.9534 48.4158C50.8813 48.0754 50.7035 47.7657 50.4449 47.53C50.273 47.3729 50.0701 47.2527 49.8489 47.1769C49.6277 47.1012 49.3931 47.0715 49.1597 47.0898ZM49.1597 49.9706H48.4255V47.5468H49.1597C49.4854 47.5468 49.7983 47.6743 50.029 47.9024C50.2013 48.0717 50.3187 48.2878 50.3663 48.5233C50.414 48.7588 50.3897 49.003 50.2966 49.2248C50.2034 49.4466 50.0456 49.6359 49.8433 49.7687C49.641 49.9016 49.4026 49.9718 49.1597 49.9706ZM52.3531 47.0891H51.8326V50.4276H52.3531V47.0891ZM56.9233 47.0643H56.413L54.9188 50.4276H55.4291L55.786 49.5982H57.4946L57.8468 50.4276H58.3924L56.9233 47.0643ZM55.995 49.1559L56.6634 47.6474L57.3311 49.1559H55.995ZM61.0035 49.1506H61.0646C61.2952 49.1008 61.5012 48.9734 61.6473 48.79C61.7933 48.6066 61.8704 48.3787 61.8653 48.1453C61.8736 47.879 61.7747 47.6203 61.5905 47.426C61.3216 47.1948 60.9716 47.0774 60.6161 47.0992H59.0859V50.4377H59.5962V49.2311H60.4227L61.2641 50.4081H61.8762L61.0035 49.1506ZM59.6314 48.7882V47.5468H60.5652C61.0754 47.5468 61.3353 47.7682 61.3353 48.1601C61.3353 48.552 61.0347 48.7889 60.5706 48.7889L59.6314 48.7882ZM64.5389 47.0643H64.0286L62.5344 50.4276H63.044L63.4016 49.5982H65.1102L65.4617 50.4276H66.008L64.5389 47.0643ZM63.6052 49.1559L64.2736 47.6474L64.9467 49.1559H63.6052ZM68.858 48.7339L68.7514 48.6983L68.8478 48.6486C68.992 48.5899 69.1147 48.489 69.1994 48.3595C69.2842 48.23 69.327 48.0781 69.3221 47.9239C69.3252 47.8226 69.3074 47.7217 69.2697 47.6274C69.232 47.5331 69.1753 47.4475 69.1029 47.3756C68.8589 47.1717 68.5444 47.0692 68.2256 47.0898H66.6954V50.4283H68.2615C69.0419 50.4283 69.506 50.0914 69.506 49.5331C69.5097 49.3444 69.4456 49.1605 69.3251 49.0141C69.2046 48.8678 69.0354 48.7685 68.8478 48.7339H68.858ZM67.2057 47.5327H68.1339C68.5472 47.5327 68.7922 47.7132 68.7922 48.0353C68.7922 48.3567 68.537 48.5379 68.0878 48.5379H67.2057V47.5327ZM68.2669 49.986H67.2057V48.9801H68.2256C68.8892 48.9801 68.9856 49.2969 68.9856 49.4834C68.9856 49.825 68.7257 49.986 68.2669 49.986ZM70.9039 47.0891H70.3834V50.4276H70.9039V47.0891ZM73.5978 47.0643H73.0875L71.5981 50.4276H72.1083L72.4653 49.5982H74.1739L74.5261 50.4276H75.0717L73.5978 47.0643ZM72.6695 49.1559L73.3372 47.6474L74.0111 49.1559H72.6695ZM54.2911 39.5733H53.7808V40.0759H54.2911V39.5733ZM48.1704 43.8868H48.6807V39.5733H48.1704V43.8868ZM5.61038 40.6242H5.10009V43.4044H3.16209V40.6242H2.41227C2.13204 40.6209 1.85307 40.6617 1.58577 40.745C1.35506 40.8188 1.14063 40.9342 0.953344 41.0865C0.783701 41.2241 0.644594 41.3952 0.545522 41.5898C0.449799 41.7927 0.401113 42.0142 0.403022 42.2381C0.396915 42.4917 0.453237 42.7434 0.565879 42.9722C0.672415 43.1695 0.822379 43.3413 1.00424 43.4748C1.19763 43.6117 1.41613 43.7104 1.64684 43.7661C1.89656 43.8332 2.15374 43.8667 2.41227 43.8667H5.61038V40.6242ZM2.69795 43.4037H2.2182C2.04545 43.4044 1.8736 43.3791 1.70859 43.3285C1.55546 43.2772 1.41227 43.2005 1.28517 43.1017C1.1583 42.9964 1.05775 42.8636 0.991362 42.7135C0.924975 42.5635 0.894546 42.4003 0.902451 42.2367C0.900259 42.0726 0.938697 41.9104 1.01442 41.7643C1.08634 41.6234 1.18745 41.4986 1.31027 41.3972C1.43543 41.2946 1.5791 41.2162 1.7337 41.1664C1.89724 41.108 2.07027 41.0792 2.24399 41.0805H2.72306L2.69795 43.4037ZM4.25867 44.9471H4.76895V44.4445H4.25867V44.9471ZM3.17702 39.572H2.66742V40.0753H3.17702V39.572ZM32.95 39.572H32.4397V40.0753H32.95V39.572ZM5.10009 44.9471H5.61038V44.4445H5.10009V44.9471ZM33.8016 39.572H33.292V40.0753H33.8016V39.572ZM53.4395 39.572H52.9285V40.0753H53.4388L53.4395 39.572ZM2.32542 39.572H1.81513V40.0753H2.32542V39.572ZM35.4288 44.9471H35.9391V44.4445H35.4288V44.9471ZM38.5557 40.6235H38.0454V43.4037H36.2153V40.6235H35.705V43.4037H33.7657V40.6235H33.0002C32.7185 40.6209 32.4381 40.6616 32.169 40.7443C31.9383 40.8188 31.7245 40.9349 31.5366 41.0859C31.3676 41.2234 31.2305 41.3946 31.1335 41.5892C31.0378 41.792 30.9891 42.0135 30.991 42.2374C30.9822 42.4917 31.0385 42.744 31.1538 42.9715C31.2583 43.1702 31.409 43.3419 31.5922 43.4741C31.7842 43.611 32.0007 43.7097 32.2301 43.7654C32.4811 43.8325 32.7403 43.866 33.0002 43.866H38.555L38.5557 40.6235ZM33.3171 43.4037H32.8326C32.6597 43.4035 32.4878 43.3782 32.3223 43.3285C32.1711 43.2767 32.0298 43.2 31.9043 43.1017C31.7839 43.0029 31.6864 42.8795 31.6187 42.74C31.5465 42.5821 31.5117 42.41 31.5169 42.2367C31.5147 42.0726 31.5531 41.9104 31.6288 41.7643C31.7824 41.4795 32.0421 41.265 32.3529 41.1664C32.5164 41.108 32.6894 41.0792 32.8632 41.0805H33.3477L33.3171 43.4037ZM36.2804 44.9471H36.7907V44.4445H36.2804V44.9471ZM8.73724 41.0456C8.61509 40.9114 8.46581 40.8034 8.2982 40.7289C8.11246 40.6533 7.91267 40.6174 7.71191 40.6235H7.35499V41.1261H7.77841C7.89445 41.1261 8.00913 41.1516 8.11499 41.2013C8.21541 41.2469 8.30431 41.3134 8.37488 41.3972C8.44274 41.4778 8.49227 41.5724 8.51738 41.6737C8.54633 41.7927 8.5599 41.9135 8.55809 42.0361V43.4285H6.28963V43.9318H9.06431V41.9911C9.06282 41.8206 9.03701 41.6512 8.98763 41.4878C8.94003 41.3339 8.86001 41.1916 8.75284 41.0704L8.73724 41.0456ZM46.2826 43.4285H44.2123L45.0639 41.4174C44.9321 41.3044 44.7942 41.1986 44.6506 41.1006C44.5062 41.0038 44.3544 40.9181 44.1967 40.8443C44.0469 40.7696 43.8906 40.711 43.7278 40.6685C43.5746 40.6275 43.4169 40.6056 43.2582 40.6034C43.0979 40.6052 42.9386 40.6271 42.7839 40.6685C42.6297 40.7105 42.4796 40.766 42.3353 40.8342C42.1752 40.9071 42.0237 40.9944 41.8807 41.0959C41.74 41.193 41.6056 41.2988 41.4783 41.4127L42.3353 43.4238H40.4991V40.6235H39.9888V43.9868C39.9956 44.1023 39.9956 44.2179 39.9888 44.3338C39.9771 44.4131 39.9512 44.4897 39.9122 44.5599C39.8792 44.6139 39.8314 44.6577 39.7744 44.6861C39.7013 44.7139 39.6234 44.7276 39.5451 44.7263H39.4277L39.2953 44.6961L39.1678 45.1585C39.2981 45.1925 39.4306 45.2093 39.5654 45.2088C39.7161 45.2142 39.866 45.1867 40.0044 45.1283C40.1239 45.0645 40.2243 44.9713 40.2949 44.8565C40.3709 44.7404 40.4231 44.6109 40.4482 44.474C40.4799 44.3085 40.4951 44.1412 40.4937 43.9721V43.8714H46.7678V39.5726H46.2575L46.2826 43.4285ZM42.83 43.4285L42.0646 41.5831C42.2356 41.4375 42.431 41.3221 42.6414 41.2416C42.8388 41.1711 43.0485 41.1355 43.2589 41.1362C43.4828 41.1362 43.704 41.1785 43.911 41.2617C44.1112 41.3389 44.2978 41.4476 44.462 41.5838L43.6972 43.4292L42.83 43.4285ZM38.061 44.9719H38.5706V44.4693H38.061V44.9719ZM74.408 43.9117H74.9183V39.5726H74.408V43.9117ZM72.5006 43.4084H70.8272C70.9297 43.1863 70.9819 42.944 70.9806 42.6997C70.9812 42.4618 70.9344 42.226 70.8428 42.0059C70.7542 41.7993 70.6261 41.6115 70.4655 41.4529C70.3056 41.2928 70.1148 41.1662 69.9043 41.0805C69.6811 40.9899 69.442 40.9439 69.2007 40.9449C68.965 40.9424 68.7317 40.9905 68.5167 41.0859C68.3102 41.1726 68.1231 41.2989 67.9663 41.4576C67.7609 41.6673 67.611 41.9239 67.53 42.2046C67.4491 42.4854 67.4395 42.7815 67.5022 43.0668C67.5262 43.184 67.5617 43.2981 67.6087 43.4091H66.0792C66.18 43.1859 66.2323 42.9442 66.2326 42.6997C66.2315 42.4619 66.1847 42.2265 66.0948 42.0059C66.0062 41.7993 65.8781 41.6115 65.7176 41.4529C65.5576 41.2928 65.3668 41.1662 65.1564 41.0805C64.9329 40.9898 64.6935 40.9438 64.452 40.9449C64.2166 40.9425 63.9835 40.9906 63.7687 41.0859C63.562 41.1725 63.3747 41.2989 63.2177 41.4576C63.0122 41.6673 62.8624 41.9239 62.7814 42.2046C62.7004 42.4854 62.6909 42.7815 62.7536 43.0668C62.778 43.184 62.8137 43.2981 62.8608 43.4091H61.3306V39.5726H60.821V43.4037H59.2908V42.6696C59.2908 42.4906 59.2668 42.3146 59.2189 42.1414C59.1713 41.9783 59.0875 41.8278 58.9737 41.7008C58.8598 41.5738 58.7187 41.4735 58.5607 41.4073C58.3697 41.3316 58.1651 41.2957 57.9594 41.3019H55.8016L56.7197 39.5726H56.2094L55.271 41.2972C55.2832 41.3916 55.3087 41.482 55.3476 41.5684C55.3838 41.6475 55.4313 41.7196 55.4901 41.7844H57.9798C58.1155 41.7824 58.2512 41.8066 58.3774 41.8549C58.4794 41.8927 58.5704 41.9547 58.6425 42.0355C58.7145 42.1162 58.7654 42.2132 58.7907 42.3179C58.8142 42.4338 58.826 42.551 58.826 42.6696V43.4037H54.3176V40.6235H53.546C53.2658 40.6202 52.9868 40.661 52.7195 40.7443C52.4874 40.8188 52.2717 40.9349 52.0817 41.0859C51.9145 41.2252 51.7774 41.3963 51.6786 41.5892C51.5829 41.792 51.5342 42.0135 51.5361 42.2374C51.5307 42.4911 51.5863 42.7427 51.6989 42.9715C51.8062 43.1688 51.9554 43.3406 52.138 43.4741C52.33 43.6097 52.5465 43.709 52.7758 43.7654C53.0278 43.8325 53.2845 43.866 53.546 43.866H63.2367C63.4001 44.0386 63.5977 44.1759 63.8172 44.2694C64.0367 44.3629 64.2734 44.4107 64.5124 44.4096C64.7609 44.4117 65.0073 44.3637 65.2365 44.2687C65.4583 44.1767 65.6585 44.0398 65.8234 43.866H67.9657C68.129 44.0385 68.3265 44.1757 68.5459 44.2693C68.7653 44.3628 69.0018 44.4106 69.2407 44.4096C69.4911 44.4116 69.7388 44.364 69.9702 44.2687C70.19 44.1747 70.3875 44.0385 70.5517 43.866H73.0305V39.5726H72.5202L72.5006 43.4084ZM53.8066 43.4084H53.3268C53.1541 43.4091 52.9822 43.3838 52.8172 43.3332C52.6641 43.2821 52.521 43.2057 52.3938 43.1071C52.2073 42.9484 52.0788 42.7334 52.0282 42.4954C51.9775 42.2573 52.0075 42.0093 52.1136 41.7898C52.2664 41.5043 52.5264 41.2894 52.8376 41.1912C53.0004 41.1328 53.1735 41.104 53.3479 41.106H53.8269L53.8066 43.4084ZM65.6606 43.1977C65.5966 43.347 65.5029 43.4821 65.3851 43.5949C65.269 43.709 65.1299 43.7983 64.9772 43.8566C64.8144 43.9184 64.6413 43.9492 64.4669 43.9466C64.292 43.9503 64.1182 43.9179 63.9567 43.8513C63.8081 43.7888 63.6745 43.6962 63.5644 43.5795C63.4482 43.463 63.3567 43.3247 63.2953 43.1726C63.2339 43.0206 63.2038 42.858 63.2068 42.6944C63.2048 42.5226 63.236 42.3521 63.2991 42.1918C63.3602 42.0441 63.4484 41.9072 63.559 41.7891C63.6717 41.6753 63.805 41.5833 63.9519 41.518C64.1127 41.4502 64.2864 41.416 64.4622 41.4174C64.6366 41.416 64.8103 41.4482 64.9718 41.5133C65.1224 41.5757 65.2609 41.6643 65.3803 41.775C65.495 41.8911 65.5866 42.0274 65.6504 42.177C65.7142 42.3374 65.7467 42.5078 65.7474 42.6796C65.7474 42.8521 65.7135 43.0232 65.6456 43.1829L65.6606 43.1977ZM70.3739 43.1822C70.3095 43.3313 70.2159 43.4662 70.0985 43.5793C69.9811 43.6924 69.8423 43.7814 69.6899 43.8412C69.5275 43.9035 69.3545 43.9342 69.1803 43.9318C69.012 43.9377 68.8444 43.9081 68.6886 43.8447C68.5329 43.7814 68.3926 43.686 68.2771 43.5647C68.1609 43.4482 68.0695 43.3099 68.0082 43.1578C67.9469 43.0058 67.917 42.8432 67.9202 42.6796C67.9178 42.5076 67.9489 42.3367 68.0118 42.1763C68.076 42.0287 68.1629 41.8947 68.2724 41.7744C68.385 41.6603 68.518 41.569 68.6646 41.5033C68.8261 41.4348 68.9998 41.4006 69.1749 41.4026C69.3499 41.4006 69.523 41.4335 69.6852 41.4979C69.8358 41.5603 69.9742 41.6489 70.093 41.7596C70.2077 41.8757 70.2993 42.0126 70.3631 42.1622C70.4947 42.4843 70.4947 42.8447 70.3631 43.1675L70.3739 43.1822ZM25.671 43.3789H24.9008C24.6701 43.3889 24.4401 43.3473 24.2277 43.2581C24.0656 43.1789 23.932 43.0524 23.8449 42.8957C23.8739 42.7481 23.8875 42.5989 23.8857 42.4481V40.9248H23.4012V42.5488C23.4134 42.7903 23.3313 43.0286 23.1718 43.2131C23.0839 43.3011 22.9777 43.3692 22.8605 43.4125C22.7433 43.4559 22.618 43.4735 22.4932 43.4641C22.2373 43.4715 21.9878 43.3836 21.7943 43.2178C21.7126 43.1413 21.6453 43.0511 21.5955 42.9514C21.5454 42.8493 21.5176 42.738 21.5141 42.6246V40.9248H21.0044V42.589C21.0085 42.7165 20.9861 42.8434 20.938 42.9615C20.8971 43.0552 20.8363 43.1391 20.7597 43.2075C20.6831 43.276 20.5926 43.3273 20.4942 43.3581C20.3931 43.3881 20.2882 43.4035 20.1827 43.4037H19.2646V40.9248H18.755V43.4037H16.2042L17.0613 41.3925C16.9272 41.2803 16.7877 41.1746 16.6433 41.0758C16.5004 40.9791 16.3502 40.8934 16.1941 40.8195C16.0443 40.7439 15.888 40.6852 15.7252 40.6436C15.4169 40.5566 15.0902 40.5566 14.7819 40.6436C14.6186 40.6875 14.4603 40.7443 14.3069 40.8141C14.1493 40.8869 13.9991 40.9745 13.8584 41.0758C13.7146 41.1715 13.5784 41.2771 13.4499 41.3925L14.3117 43.4037H12.635V40.6235H11.8546C11.5739 40.6194 11.2946 40.6618 11.0281 40.749C10.798 40.8264 10.5838 40.9439 10.3957 41.0959C10.2217 41.2313 10.0803 41.4032 9.98174 41.5992C9.88402 41.8026 9.83313 42.026 9.83449 42.2522C9.8277 42.5065 9.88402 42.7581 9.99734 42.9863C10.1018 43.1856 10.2518 43.3581 10.4364 43.4896C10.6298 43.6238 10.8483 43.7218 11.079 43.7754C11.3321 43.8385 11.5927 43.8707 11.8539 43.8714H12.145V44.007C12.155 44.1083 12.1404 44.2105 12.1022 44.3051C12.0641 44.3996 12.0036 44.4838 11.9258 44.5505C11.7426 44.6673 11.5262 44.7236 11.3083 44.7116C11.1722 44.7125 11.0378 44.6972 10.9053 44.6659C10.7636 44.6309 10.6254 44.5838 10.492 44.525L10.3441 44.988C10.5273 45.0529 10.6974 45.103 10.8544 45.1384C10.9973 45.1724 11.1421 45.1891 11.2887 45.1887C11.4724 45.2032 11.6571 45.1813 11.8321 45.1242C12.0072 45.0672 12.1689 44.9762 12.3079 44.8565C12.4201 44.7356 12.5068 44.5939 12.5629 44.4395C12.6191 44.2851 12.6436 44.1212 12.635 43.9573V43.8714H20.2078C20.4195 43.8748 20.6287 43.826 20.8166 43.7295C21.0045 43.633 21.1651 43.4917 21.284 43.3185C21.4001 43.507 21.5656 43.662 21.7638 43.7654C21.9891 43.8795 22.2401 43.9345 22.4932 43.9264C22.7491 43.9352 23.0042 43.8855 23.2376 43.7808C23.4412 43.6802 23.6075 43.5178 23.712 43.3178C23.7549 43.3898 23.8042 43.4569 23.8599 43.5191C23.925 43.5925 24.0015 43.6513 24.0892 43.6956C24.1955 43.7529 24.3077 43.7947 24.4258 43.8211C24.5421 43.8461 24.6595 43.8596 24.778 43.8613H26.186V39.5726H25.6757L25.671 43.3789ZM12.1186 43.3789H11.6089C11.4359 43.3795 11.2639 43.3539 11.0987 43.303C10.9445 43.2568 10.8007 43.1816 10.6752 43.0816C10.5562 42.9856 10.459 42.8658 10.3902 42.7299C10.3179 42.5721 10.2828 42.3999 10.2878 42.2267C10.2856 42.0625 10.324 41.9003 10.3997 41.7542C10.4742 41.6118 10.5766 41.4854 10.701 41.3825C10.8279 41.2818 10.9711 41.2013 11.1244 41.1463C11.288 41.0892 11.461 41.0624 11.6341 41.0657H12.1443L12.1186 43.3789ZM14.8071 43.3789L14.0471 41.5335C14.2167 41.3858 14.4115 41.2697 14.6238 41.1912C15.0351 41.0446 15.4865 41.0517 15.8928 41.2114C16.0916 41.2885 16.2762 41.3972 16.439 41.5335L15.679 43.3789H14.8071ZM27.5588 43.8815H28.0684V39.5726H27.5588V43.8815ZM65.4821 15.1926C59.5039 15.1926 55.1631 19.637 55.1631 25.0625V25.1175C55.1631 30.543 59.453 34.9323 65.4258 34.9323C71.3986 34.9323 75.7394 30.4879 75.7394 25.0625V25.0074C75.7394 19.582 71.4556 15.1926 65.4821 15.1926ZM71.2852 25.1175C71.2852 28.3855 68.9089 31.061 65.4807 31.061C62.0539 31.061 59.6152 28.3359 59.6152 25.0618V25.0074C59.6152 21.7341 61.9969 19.0639 65.4251 19.0639C68.8532 19.0639 71.2852 21.7891 71.2852 25.0625V25.1175ZM7.34888 30.9805H14.729V34.6055H0.402344V31.2818L6.84945 26.0731C9.25159 24.1069 10.1955 23.056 10.1955 21.4925C10.1955 19.9289 9.11384 19.0089 7.59384 19.0089C6.07384 19.0089 5.07431 19.8283 3.64117 21.573L0.651379 19.2149C2.55884 16.6508 4.41066 15.2624 7.86866 15.2624C11.8783 15.2624 14.5356 17.5809 14.5356 21.1509V21.2059C14.5356 24.3934 12.8779 25.9771 9.43481 28.5922L5.21681 31.7851L4.39574 32.4085L7.34888 30.9805ZM54.0658 28.6318V28.6875C54.0658 32.2877 51.4085 34.9323 47.0928 34.9323C43.609 34.9323 41.2021 33.5701 39.5444 31.6341L42.4772 28.8788C43.8031 30.3517 45.1853 31.1717 47.1491 31.1717C48.756 31.1717 49.8885 30.2712 49.8885 28.8533V28.7982C49.8885 27.2447 48.4751 26.3697 46.0987 26.3697H44.3283L43.6653 23.6996L49.8783 17.5406L47.3887 19.1196H40.6762V15.5194H53.7591V18.6821L48.8632 23.2875C51.5151 23.7398 54.0658 25.0866 54.0658 28.6318ZM33.3117 25.9523C33.1007 25.8318 32.8764 25.7357 32.6433 25.6658C32.0472 25.4786 31.4151 25.4322 30.7976 25.5302C30.5246 25.5731 30.2564 25.6421 29.9969 25.7362H29.9148C29.7723 25.7912 29.6338 25.8516 29.4913 25.9221C29.3488 25.9926 29.2518 26.0483 29.129 26.1234C28.8589 26.2845 28.5882 26.4703 28.3235 26.667C28.1169 25.2611 28.0896 23.8352 28.2421 22.4226C28.8793 22.8198 28.7008 23.9311 28.5678 24.2478C28.8308 23.9471 28.995 23.5745 29.0388 23.1793C29.0825 22.7842 29.0037 22.3852 28.8128 22.0354C28.9191 22.123 29.0143 22.2203 29.0985 22.3273C29.3102 22.599 29.4364 22.9258 29.4608 23.2674C29.4739 23.4101 29.4739 23.5526 29.4608 23.6949C29.4631 23.7266 29.4631 23.7584 29.4608 23.7902C29.5936 23.5342 29.6628 23.2507 29.6628 22.9631C29.6628 22.6754 29.5936 22.3919 29.4608 22.136C29.3678 21.9505 29.2455 21.7808 29.0985 21.6334L28.956 21.4978L29.0937 21.5381C29.2235 21.5819 29.3441 21.6439 29.4554 21.724C29.6861 21.8951 29.8625 22.1266 29.9657 22.3924C30.0485 22.5937 30.0919 22.8084 30.0932 23.0258C30.1629 22.8202 30.1875 22.6023 30.1655 22.3865C30.1435 22.1707 30.0754 21.9621 29.9657 21.7743C29.8386 21.5687 29.6637 21.3961 29.4554 21.271C29.2917 21.1704 29.1099 21.102 28.92 21.0697H29.0883C29.2104 21.0688 29.3312 21.0791 29.4506 21.1006C29.6325 21.1301 29.8062 21.1965 29.9602 21.2965C30.0987 21.3885 30.214 21.5113 30.2975 21.6535C30.2734 21.3945 30.1489 21.1547 29.9501 20.9845C29.8022 20.8605 29.6281 20.771 29.4405 20.7228C29.3226 20.6891 29.2008 20.6706 29.0781 20.6677C28.9247 20.6648 28.7722 20.6922 28.6296 20.7483C28.7415 20.594 28.9033 20.4823 29.0883 20.4315C29.2053 20.3951 29.3281 20.3798 29.4506 20.3866C29.5533 20.3924 29.6519 20.4159 29.7465 20.457C29.6606 20.3603 29.5587 20.2786 29.4452 20.2155C29.2403 20.0984 28.9973 20.0649 28.7678 20.1222C28.5384 20.1794 28.3405 20.3229 28.2163 20.5221C28.0587 20.2463 27.9517 19.945 27.9001 19.6323C27.8627 19.8579 27.7957 20.0776 27.7006 20.2859C27.6667 20.3664 27.6278 20.4452 27.5839 20.5221C27.4622 20.3326 27.2748 20.1934 27.0568 20.1308C26.8388 20.0682 26.6052 20.0863 26.3998 20.1819C26.2641 20.245 26.1446 20.3389 26.0537 20.457C26.2456 20.3782 26.4584 20.364 26.6593 20.4166C26.8602 20.4693 27.0379 20.5858 27.1652 20.7483C26.9177 20.6613 26.6498 20.6483 26.395 20.711C26.1401 20.7736 25.9095 20.9091 25.7321 21.1006C25.6008 21.2577 25.5208 21.4505 25.5027 21.6535C25.559 21.5529 25.633 21.4623 25.7219 21.3871C25.8813 21.2585 26.0665 21.1647 26.2652 21.1118C26.4639 21.059 26.6716 21.0483 26.8748 21.0804C26.6202 21.1246 26.381 21.2316 26.1794 21.3916C25.9779 21.5517 25.8205 21.7595 25.7219 21.9958C25.6153 22.3226 25.6153 22.6742 25.7219 23.001V22.9708C25.7157 22.636 25.8228 22.3087 26.0261 22.0408C26.2294 21.773 26.5174 21.58 26.8442 21.4925C26.5059 21.7551 26.2701 22.1257 26.1771 22.541C26.084 22.9563 26.1395 23.3906 26.334 23.77C26.291 23.4482 26.3327 23.1208 26.4551 22.8197C26.5776 22.5185 26.7766 22.2536 27.0329 22.0508C26.8409 22.4003 26.7614 22.7994 26.8051 23.1948C26.8488 23.5902 27.0135 23.963 27.2772 24.2633C27.1448 23.9465 26.9664 22.8352 27.6042 22.438C27.7615 23.853 27.741 25.2818 27.5432 26.6918C27.0566 26.3054 26.5175 25.9887 25.9417 25.751L25.7422 25.6859C25.2598 25.5248 24.7514 25.4531 24.2426 25.4745C23.7113 25.5 23.1908 25.6317 22.7124 25.8617L22.5597 25.9422L22.6975 25.902C23.1944 25.7622 23.7126 25.7113 24.2277 25.7516C24.7474 25.7986 25.255 25.9342 25.7273 26.1536C26.3855 26.4623 26.9962 26.8596 27.5425 27.3347C26.9779 27.8738 26.3801 28.3778 25.7524 28.8439C25.7357 28.8585 25.7167 28.8702 25.6961 28.8788C25.6397 28.802 25.5582 28.7467 25.4655 28.7223C25.3727 28.6979 25.2743 28.7058 25.1867 28.7447C25.0992 28.7836 25.0278 28.8511 24.9847 28.9359C24.9415 29.0206 24.9291 29.1175 24.9497 29.2102C24.9641 29.272 24.992 29.3275 25.0331 29.3767C25.1239 29.4711 25.2441 29.5328 25.3744 29.5519C25.5048 29.571 25.6378 29.5464 25.7524 29.482C26.2627 29.2659 26.9304 28.5768 27.7318 27.8527L27.9354 27.6715L28.1396 27.8527C28.502 28.1795 28.8386 28.5016 29.1595 28.7734C29.2871 28.8888 29.4045 28.9895 29.5219 29.0848C29.6798 29.2167 29.8499 29.3308 30.0322 29.427C30.1468 29.5147 30.2876 29.5623 30.4325 29.5623C30.5774 29.5623 30.7183 29.5147 30.8329 29.427L30.8682 29.3914C30.9048 29.3412 30.9309 29.2842 30.9449 29.2238C30.9589 29.1634 30.9605 29.1008 30.9496 29.0398C30.9303 28.962 30.8899 28.8907 30.8329 28.8338C30.7891 28.794 30.7373 28.7637 30.6808 28.7451C30.6244 28.7264 30.5646 28.7197 30.5054 28.7254C30.4462 28.7311 30.3888 28.7491 30.3371 28.7781C30.2854 28.8072 30.2404 28.8468 30.2052 28.8942L29.9962 28.768C29.8181 28.6441 29.6477 28.5096 29.4859 28.3654L29.1242 28.0493L28.3181 27.33C28.5732 27.1192 28.8284 26.9179 29.1242 26.7267L29.4859 26.5005C29.6483 26.4044 29.8184 26.3156 29.9962 26.2341C30.2545 26.1116 30.5214 26.0109 30.7969 25.9322C31.3969 25.762 32.0276 25.726 32.6433 25.8268C32.8672 25.859 33.0866 25.9093 33.3015 25.9778M27.9245 35.5604L26.7126 36.7549L27.9245 37.9494L29.1364 36.7549L27.9245 35.5604ZM18.1741 28.7143L17.7344 30.0484L19.0875 30.4826L19.5279 29.1485L18.1741 28.7143ZM22.1037 17.0219L21.9198 18.1694L23.0836 18.3506L23.2675 17.2031L22.1037 17.0219ZM36.9997 24.1015L36.1665 24.9229L36.9997 25.7443L37.833 24.9229L36.9997 24.1015ZM36.3035 21.3851L35.7681 22.4199L36.8186 22.9473L37.3533 21.9126L36.3035 21.3851ZM23.0822 31.5019L21.9185 31.6831L22.1031 32.8306L23.2668 32.6494L23.0822 31.5019ZM33.7521 17.0226L32.589 17.2038L32.7729 18.3513L33.9373 18.1701L33.7521 17.0226ZM25.3819 32.6527L24.3315 33.1795L24.8662 34.215L25.9166 33.6875L25.3819 32.6527ZM27.9259 15.1571L27.0926 15.9784L27.9259 16.7991L28.7592 15.9784L27.9259 15.1571ZM26.5864 16.5696L26.0137 17.3467L26.8015 17.9111L27.3742 17.134L26.5864 16.5696ZM29.0577 31.9394L28.485 32.7165L29.2728 33.2809L29.8456 32.5044L29.0577 31.9394ZM21.208 20.7906L20.2818 21.0872L20.5824 22.0005L21.5093 21.7039L21.208 20.7906ZM35.2768 27.8527L34.3506 28.1486L34.6512 29.0626L35.5781 28.766L35.2768 27.8527ZM20.0259 25.4691L19.4532 26.2455L20.2411 26.8106L20.8138 26.0335L20.0259 25.4691Z" fill="white"/>
<path d="M39.7147 27.4434L38.188 28.2104L38.9656 29.7156L40.4924 28.9485L39.7147 27.4434ZM21.5874 33.5258L19.895 33.7909L20.1631 35.4591L21.8554 35.1947L21.5874 33.5258ZM35.6928 14.386L34.0005 14.6498L34.2685 16.3187L35.9609 16.0543L35.6928 14.386ZM17.4664 25.5591L16.6304 26.6938L17.7813 27.5185L18.618 26.3831L17.4664 25.5591ZM24.8676 15.6382L24.3329 16.6736L25.3826 17.2004L25.9173 16.1657L24.8676 15.6382ZM19.5557 21.3771L18.506 21.9045L19.0407 22.9393L20.0905 22.4125L19.5557 21.3771ZM27.9293 33.0487L27.096 33.87L27.9293 34.6914L28.7619 33.87L27.9293 33.0487ZM34.6492 20.7859L34.3486 21.6985L35.2749 21.9958L35.5761 21.0825L34.6492 20.7859ZM22.836 29.9444H21.8615V30.9047H22.836V29.9444ZM16.8856 20.1316L15.3588 20.8986L16.1364 22.4038L17.6632 21.6368L16.8856 20.1316ZM16.1357 27.4474L15.3574 28.9526L16.8842 29.7196L17.6625 28.2144L16.1357 27.4474ZM22.7321 14.8746L22.2917 16.2086L23.6455 16.6421L24.0852 15.3081L22.7321 14.8746ZM32.2118 33.2117L31.7727 34.5465L33.1258 34.9793L33.5655 33.6452L32.2118 33.2117ZM37.6858 28.7143L36.3321 29.1478L36.7718 30.4819L38.1255 30.0484L37.6858 28.7143ZM38.3956 25.5564L37.2441 26.3811L38.0801 27.5158L39.2316 26.6918L38.3956 25.5564ZM36.7718 19.3719L36.3321 20.706L37.6851 21.1395L38.1255 19.8054L36.7718 19.3719ZM36.0199 16.9521H34.597V18.3546H36.0199V16.9521ZM23.6557 33.1339L22.304 33.5687L22.745 34.9014L24.0967 34.4659L23.6557 33.1339ZM29.5335 34.174L28.6934 35.3101L29.8463 36.1382L30.6857 35.0014L29.5335 34.174ZM19.0407 26.9065L18.506 27.942L19.5557 28.4687L20.0905 27.434L19.0407 26.9065ZM22.836 18.9431H21.8615V19.9028H22.836V18.9431ZM20.2391 23.0352L19.4512 23.5996L20.024 24.3767L20.8125 23.8116L20.2391 23.0352ZM31.8257 17.389L30.8994 17.6856L31.2 18.5982L32.127 18.3023L31.8257 17.389ZM29.2715 16.5703L28.483 17.1347L29.0557 17.9117L29.8436 17.3474L29.2715 16.5703ZM33.8173 28.4459L33.0213 28.5701L33.1475 29.3552L33.9435 29.2304L33.8173 28.4459ZM34.7903 24.3646L34.2204 24.9263L34.7903 25.4879L35.3597 24.9263L34.7903 24.3646ZM38.9636 20.1323L38.1852 21.6374L39.712 22.4044L40.4903 20.8993L38.9636 20.1323ZM36.0199 31.4972H34.597V32.8997H36.0199V31.4972ZM19.0855 19.3753L17.7324 19.8088L18.1721 21.1429L19.5252 20.7094L19.0855 19.3753ZM33.1211 14.8772L31.7673 15.3107L32.2077 16.6448L33.5608 16.2113L33.1211 14.8772ZM26.2363 13.8015L25.3969 14.9376L26.5498 15.765L27.3892 14.6289L26.2363 13.8015ZM36.8172 26.9059L35.7675 27.4326L36.3022 28.4674L37.352 27.9406L36.8172 26.9059ZM18.8521 24.1002L18.0188 24.9216L18.8521 25.7429L19.6854 24.9216L18.8521 24.1002ZM35.8292 25.4732L35.0414 26.0368L35.6141 26.8139L36.402 26.2496L35.8292 25.4732ZM24.6545 31.2503L23.7283 31.5469L24.0289 32.4602L24.9558 32.1636L24.6545 31.2503ZM27.9266 31.1321L27.3566 31.6938L27.9266 32.2555L28.4966 31.6938L27.9266 31.1321ZM23.56 19.0042L23.4338 19.7893L24.2304 19.9128L24.356 19.1277L23.56 19.0042ZM21.2243 26.4811L20.8579 27.189L21.5765 27.5501L21.943 26.8421L21.2243 26.4811ZM21.2596 16.9521H19.8367V18.3546H21.2596V16.9521ZM29.716 13.7841L28.5645 14.6088L29.4005 15.7436L30.552 14.9195L29.716 13.7841ZM30.476 32.6588L29.9413 33.6936L30.991 34.221L31.5257 33.1856L30.476 32.6588ZM20.0932 29.5209L19.9086 30.6684L21.0724 30.8496L21.2569 29.7021L20.0932 29.5209ZM34.7842 18.9995L34.5997 20.147L35.7641 20.3282L35.948 19.1807L34.7842 18.9995ZM33.9957 29.9444H33.0213V30.9047H33.9964L33.9957 29.9444ZM35.6141 23.0372L35.0414 23.815L35.8292 24.3787L36.402 23.6023L35.6141 23.0372ZM26.8022 31.9448L26.0137 32.5091L26.5864 33.2862L27.3742 32.7225L26.8022 31.9448ZM25.6276 17.9634L25.2612 18.6707L25.9798 19.0317L26.3462 18.3244L25.6276 17.9634ZM29.87 30.8268L29.5036 31.5341L30.2222 31.8951L30.5886 31.1872L29.87 30.8268ZM31.6255 29.9451L31.5 30.7302L32.2959 30.8537L32.4215 30.0685L31.6255 29.9451ZM21.5786 22.3011L20.8606 22.6621L21.2271 23.3694L21.9443 23.0084L21.5786 22.3011ZM34.6302 26.4824L33.9123 26.8434L34.2787 27.5514L34.996 27.1904L34.6302 26.4824ZM22.0427 28.4459L21.9165 29.2304L22.7125 29.3539L22.8387 28.5694L22.0427 28.4459ZM32.298 18.9982L31.502 19.1223L31.6275 19.9074L32.4235 19.7833L32.298 18.9982ZM25.9845 30.8215L25.2666 31.1818L25.633 31.8898L26.3503 31.5287L25.9845 30.8215ZM20.159 14.3907L19.891 16.0596L21.5833 16.324L21.8513 14.6551L20.159 14.3907ZM34.2665 33.5352L33.9985 35.2041L35.6908 35.4685L35.9589 33.7996L34.2665 33.5352ZM27.9232 11.8978L26.712 13.0922L27.9239 14.2867L29.1351 13.0922L27.9232 11.8978ZM17.7772 22.336L16.6257 23.16L17.4623 24.2948L18.6139 23.4707L17.7772 22.336ZM38.076 22.3353L37.24 23.4707L38.3915 24.2948L39.2275 23.16L38.076 22.3353ZM21.2596 31.4972H19.8367V32.8997H21.2596V31.4972ZM26.4575 34.1096L25.3053 34.9337L26.142 36.0684L27.2935 35.2444L26.4575 34.1096ZM32.7736 31.4985L32.5891 32.646L33.7528 32.8272L33.9374 31.6797L32.7736 31.4985ZM21.0785 19.0082L19.9147 19.1894L20.0993 20.3369L21.263 20.1557L21.0785 19.0082ZM35.7614 29.5203L34.5976 29.7015L34.7822 30.849L35.946 30.6678L35.7614 29.5203ZM30.9924 15.6308L29.9426 16.1576L30.4774 17.1924L31.5271 16.6656L30.9924 15.6308ZM24.035 17.3937L23.7344 18.307L24.6606 18.6036L24.9619 17.691L24.035 17.3937ZM31.1966 31.2563L30.896 32.1696L31.823 32.4669L32.1236 31.5529L31.1966 31.2563ZM20.5838 27.8554L20.2825 28.7687L21.2094 29.0653L21.51 28.1527L20.5838 27.8554ZM33.9957 18.9431H33.0213V19.9028H33.9964L33.9957 18.9431ZM27.9273 17.5977L27.3573 18.1594L27.9273 18.721L28.4973 18.1594L27.9273 17.5977ZM22.7118 20.4939L21.9158 20.6181L22.0413 21.4032L22.8373 21.2784L22.7118 20.4939ZM21.0656 24.3639L20.4956 24.9256L21.0656 25.4873L21.6356 24.9256L21.0656 24.3639ZM34.2794 22.3011L33.913 23.0084L34.6309 23.3694L34.9973 22.6614L34.2794 22.3011ZM33.1435 20.4953L33.0172 21.2798L33.8132 21.4039L33.9394 20.6188L33.1435 20.4953ZM24.2291 29.9404L23.4331 30.0645L23.5586 30.849L24.3546 30.7248L24.2291 29.9404ZM30.2222 17.954L29.5043 18.315L29.87 19.023L30.588 18.662L30.2222 17.954Z" fill="white"/>
</g>
</g>
<defs>
<clipPath id="clip0_265_536">
<rect width="76" height="51" fill="white"/>
</clipPath>
</defs>
</svg>
