<svg width="424" height="183" viewBox="0 0 424 183" fill="none" xmlns="http://www.w3.org/2000/svg">
<path d="M204.744 80.081H198.123C197.344 85.9066 195.887 90.8457 193.752 94.8983C190.722 100.64 186.784 103.51 181.937 103.51C179.657 103.51 177.378 103.004 175.099 101.99C173.8 101.428 171.752 100.274 168.953 98.5288L169.646 97.3046C169.732 97.3327 170.684 97.4734 172.502 97.7267C173.339 97.8393 173.887 97.8956 174.147 97.8956C181.1 97.8956 188.212 92.7876 195.483 82.5717L192.583 79.1945C190.794 77.1119 189.482 74.9308 188.645 72.6512L194.098 64.6726C196.002 68.3313 197.906 70.1606 199.811 70.1606H204.744V80.081Z" fill="#326149"/>
<path d="M223.96 80.081H201.672V70.1606H223.96V80.081Z" fill="#326149"/>
<path d="M242.656 80.081H220.368V70.1606H242.656V80.081Z" fill="#326149"/>
<path d="M261.353 80.081H239.064V70.1606H261.353V80.081Z" fill="#326149"/>
<path d="M280.049 80.081H257.761V70.1606H280.049V80.081Z" fill="#326149"/>
<path d="M298.745 80.081H276.457V70.1606H298.745V80.081Z" fill="#326149"/>
<path d="M317.442 80.081H295.153V70.1606H317.442V80.081Z" fill="#326149"/>
<path d="M336.138 80.081H313.85V70.1606H336.138V80.081Z" fill="#326149"/>
<path d="M374.699 26.9328C374.699 27.2705 374.67 27.4956 374.613 27.6082L373.574 28.4947L372.362 29.6767C372.016 30.0426 371.641 30.6054 371.237 31.3653C370.919 31.9 370.573 32.1674 370.198 32.1674C369.996 32.1674 369.693 32.083 369.289 31.9141L367.385 31.703H353.969C353.045 31.703 352.569 31.506 352.54 31.112C352.54 30.7462 352.569 30.5351 352.627 30.4788L353.709 29.5923L356.046 26.6373C356.335 26.0744 356.666 25.793 357.041 25.793C357.272 25.793 357.575 25.8774 357.95 26.0463C358.498 26.187 359.148 26.2573 359.898 26.2573H373.271C374.223 26.2573 374.699 26.4825 374.699 26.9328Z" fill="#326149"/>
<path d="M395.3 80.081L383.355 80.0388L379.027 79.9121L370.588 79.4056L365.567 79.6588L361.889 79.7433C360.158 79.7714 358.542 79.884 357.041 80.081L356.782 80.8831L356.003 83.4159C356.003 84.4572 355.786 85.006 355.354 85.0623C355.036 85.0623 354.69 84.7809 354.315 84.218L354.012 83.3737L353.925 82.2762V81.4319L354.228 80.081L352.324 80.1654H350.377C347.578 80.1654 345.472 79.2367 344.058 77.3793C343.481 76.6194 343.005 75.6907 342.63 74.5931C341.014 78.2517 338.922 80.081 336.354 80.081H333.152V70.1606H336.354C337.624 70.1606 338.749 70.0761 339.73 69.9073C340.365 69.7947 341.057 69.5414 341.807 69.1474C342.933 68.5283 344.26 67.2196 345.789 65.2214L346.135 65.3059C346.597 68.6268 348.155 70.245 350.809 70.1606L355.354 70.0339L357.95 69.9073C364.125 56.877 370.992 50.3619 378.551 50.3619C381.436 50.3619 383.658 51.2203 385.216 52.937C386.803 54.6537 387.596 56.9192 387.596 59.7335C387.596 62.3508 387.005 64.5319 385.822 66.2768C384.841 67.684 382.864 69.2459 379.893 70.9626L382.706 70.5405C384.552 70.2872 385.937 70.1606 386.86 70.1606H395.3V80.081ZM383.398 63.5751C383.398 62.4775 382.331 61.591 380.195 60.9156C378.58 60.3527 377.079 60.0713 375.694 60.0713C372.146 60.0713 368.51 61.9568 364.788 65.728C363.577 66.9382 362.437 68.3594 361.369 69.9917C371.872 69.9917 378.695 68.7534 381.84 66.2768C382.879 65.4325 383.398 64.5319 383.398 63.5751Z" fill="#326149"/>
<path d="M406.509 65.3059C406.509 69.274 405.672 72.5949 403.999 75.2685C402.008 78.4768 399.108 80.081 395.3 80.081H392.097V70.1606H395.3C399.916 70.1606 402.224 69.4288 402.224 67.9654C402.224 67.6558 401.445 66.6145 399.887 64.8415C399.166 63.9972 398.805 63.2374 398.805 62.5619C398.805 61.8583 399.526 60.029 400.969 57.074L403.133 52.6415C404.403 55.4277 405.297 57.7213 405.816 59.5225C406.278 61.0422 406.509 62.97 406.509 65.3059ZM403.523 92.6609L399.93 98.6554L394.001 94.2229L397.68 88.2706L403.523 92.6609Z" fill="#326149"/>
<path d="M423.993 67.501C424.08 70.6531 423.33 74.2132 421.743 78.1813H420.055C420.055 73.8473 419.853 70.2309 419.449 67.3322C419.449 67.3322 419.074 65.1511 418.324 60.7889L415.77 45.8871L415.641 43.6498C415.583 42.4678 415.9 41.2295 416.593 39.9349C417.141 38.978 418.569 37.2894 420.877 34.8691C420.877 38.9499 421.122 42.51 421.613 45.5494L422.652 52.1349L423.171 56.1875L423.647 61.1266C423.647 62.1679 423.676 63.1951 423.734 64.2083C423.82 64.9119 423.907 66.0094 423.993 67.501ZM423.56 25.1598L422.089 28.4103L410.966 32.9695C411.399 31.7593 411.76 30.9432 412.048 30.521C412.481 29.8456 413.073 29.3812 413.823 29.1279L415.164 28.6214L413.13 27.3971C412.698 27.1438 412.279 26.8202 411.875 26.4262C411.241 25.7789 410.923 25.0894 410.923 24.3577C410.923 23.0068 411.659 21.4871 413.13 19.7985C414.602 18.1099 416.016 17.2656 417.372 17.2656C418.814 17.2656 419.536 18.1803 419.536 20.0096C419.536 21.7544 419.045 22.6269 418.064 22.6269C417.804 22.6269 417.516 22.5002 417.199 22.247C416.997 22.0781 416.722 21.7122 416.376 21.1494C416.059 20.5584 415.742 20.2629 415.424 20.2629C415.049 20.2629 414.688 20.4599 414.342 20.8539C414.025 21.2197 413.866 21.5856 413.866 21.9514C413.866 22.9927 414.602 23.9496 416.073 24.822C417.401 25.6382 418.627 26.0463 419.752 26.0463C420.877 26.0463 422.147 25.7508 423.56 25.1598Z" fill="#326149"/>
<path d="M218.641 160.713C218.995 161.362 219.172 161.924 219.172 162.399C219.217 162.831 219.084 163.242 218.774 163.631C218.463 163.977 217.976 164.301 217.311 164.604C216.248 165.079 215.405 165.187 214.785 164.928C214.209 164.669 213.677 164.042 213.19 163.048L196.571 128.552L180.085 162.983C179.597 163.977 179.043 164.604 178.423 164.863C177.847 165.123 177.005 165.014 175.897 164.539C175.232 164.28 174.744 163.955 174.434 163.566C174.168 163.177 174.058 162.702 174.102 162.14C174.191 161.578 174.412 160.929 174.767 160.195L193.845 121.354C194.111 120.836 194.488 120.425 194.975 120.122C195.507 119.777 196.061 119.604 196.637 119.604C197.036 119.604 197.413 119.669 197.767 119.798C198.122 119.928 198.432 120.122 198.698 120.382C198.964 120.641 199.185 120.987 199.363 121.419L218.641 160.713ZM184.073 151.96L186.333 146.967H206.941L209.135 151.96H184.073Z" fill="#326149"/>
<path d="M236.596 164.863C235.798 164.863 235.178 164.712 234.735 164.409C234.336 164.15 234.07 163.761 233.937 163.242C233.804 162.68 233.737 162.075 233.737 161.427V122.911C233.737 122.262 233.804 121.7 233.937 121.225C234.114 120.706 234.402 120.317 234.801 120.058C235.244 119.755 235.865 119.604 236.662 119.604H255.209C257.691 119.604 259.862 120.144 261.724 121.225C263.629 122.305 265.114 123.775 266.178 125.634C267.241 127.493 267.751 129.524 267.707 131.729C267.751 132.853 267.618 133.955 267.308 135.036C266.997 136.117 266.532 137.133 265.912 138.084C265.336 138.991 264.604 139.748 263.718 140.353C264.915 141.088 265.934 142.039 266.776 143.206C267.618 144.373 268.26 145.67 268.704 147.097C269.147 148.523 269.368 150.014 269.368 151.571C269.324 153.429 268.97 155.18 268.305 156.823C267.64 158.422 266.687 159.827 265.446 161.038C264.205 162.248 262.765 163.199 261.125 163.891C259.486 164.539 257.735 164.863 255.874 164.863H236.596ZM239.72 159.287H255.209C256.937 159.287 258.422 158.963 259.663 158.314C260.904 157.666 261.857 156.715 262.521 155.461C263.186 154.207 263.519 152.673 263.519 150.857C263.519 149.301 263.297 148.048 262.854 147.097C262.411 146.146 261.812 145.432 261.059 144.957C260.306 144.438 259.486 144.071 258.599 143.854C257.757 143.638 256.915 143.53 256.073 143.53C255.276 143.487 254.544 143.465 253.88 143.465H249.825C248.938 143.465 248.296 143.249 247.897 142.817C247.498 142.385 247.298 141.693 247.298 140.742C247.298 139.834 247.498 139.186 247.897 138.797C248.34 138.408 249.005 138.213 249.891 138.213H253.946C254.655 138.213 255.453 138.192 256.339 138.148C257.225 138.105 258.09 137.932 258.932 137.63C259.818 137.327 260.527 136.765 261.059 135.944C261.635 135.079 261.923 133.869 261.923 132.313C261.923 129.892 261.258 128.12 259.929 126.996C258.599 125.828 256.406 125.245 253.348 125.245H239.72V159.287Z" fill="#326149"/>
<path d="M300.392 165.512C298.708 165.512 297.113 165.317 295.606 164.928C294.144 164.539 292.792 164.02 291.551 163.372C290.354 162.68 289.291 161.924 288.36 161.102C287.43 160.281 286.698 159.46 286.167 158.638C285.679 157.947 285.369 157.385 285.236 156.952C285.103 156.477 285.125 156.023 285.302 155.591C285.524 155.159 285.945 154.683 286.565 154.164C287.274 153.646 287.895 153.408 288.427 153.451C288.959 153.451 289.446 153.646 289.889 154.035C290.377 154.424 290.864 154.942 291.352 155.591C292.46 157.061 293.811 158.141 295.407 158.833C297.002 159.481 298.575 159.806 300.126 159.806C302.121 159.806 303.893 159.546 305.444 159.027C306.996 158.509 308.214 157.731 309.101 156.693C310.031 155.612 310.497 154.229 310.497 152.543C310.497 151.16 310.142 149.993 309.433 149.042C308.724 148.091 307.771 147.291 306.575 146.643C305.378 145.951 304.048 145.367 302.586 144.892C301.124 144.373 299.639 143.876 298.132 143.401C296.936 143.012 295.761 142.579 294.609 142.104C293.457 141.585 292.371 141.023 291.352 140.418C290.332 139.769 289.424 139.013 288.626 138.148C287.873 137.284 287.274 136.268 286.831 135.101C286.432 133.934 286.233 132.572 286.233 131.016C286.233 128.638 286.809 126.542 287.961 124.726C289.158 122.911 290.82 121.506 292.947 120.511C295.074 119.474 297.534 118.955 300.326 118.955C301.966 118.955 303.472 119.107 304.846 119.409C306.22 119.712 307.439 120.122 308.502 120.641C309.566 121.117 310.474 121.635 311.228 122.197C311.981 122.716 312.557 123.213 312.956 123.689C313.754 124.51 314.197 125.202 314.286 125.764C314.374 126.326 314.042 127.017 313.289 127.839C312.58 128.617 311.893 129.027 311.228 129.071C310.563 129.114 309.832 128.811 309.034 128.163C308.192 127.212 307.306 126.477 306.375 125.958C305.489 125.439 304.536 125.094 303.517 124.921C302.542 124.705 301.456 124.596 300.259 124.596C299.107 124.596 298.021 124.748 297.002 125.05C296.027 125.31 295.163 125.72 294.41 126.282C293.7 126.844 293.146 127.536 292.748 128.357C292.349 129.135 292.149 130.043 292.149 131.081C292.149 132.248 292.46 133.242 293.08 134.063C293.745 134.885 294.609 135.598 295.673 136.203C296.736 136.765 297.933 137.284 299.262 137.759C300.592 138.192 301.988 138.624 303.45 139.056C305.046 139.532 306.619 140.115 308.17 140.807C309.721 141.455 311.117 142.277 312.358 143.271C313.599 144.222 314.596 145.432 315.349 146.902C316.103 148.372 316.479 150.187 316.479 152.349C316.479 154.51 316.036 156.412 315.15 158.055C314.308 159.697 313.134 161.081 311.627 162.205C310.12 163.285 308.392 164.107 306.442 164.669C304.536 165.231 302.52 165.512 300.392 165.512Z" fill="#326149"/>
<path d="M371.898 160.713C372.253 161.362 372.43 161.924 372.43 162.399C372.475 162.831 372.342 163.242 372.031 163.631C371.721 163.977 371.234 164.301 370.569 164.604C369.505 165.079 368.663 165.187 368.043 164.928C367.467 164.669 366.935 164.042 366.447 163.048L349.828 128.552L333.342 162.983C332.855 163.977 332.301 164.604 331.681 164.863C331.104 165.123 330.262 165.014 329.155 164.539C328.49 164.28 328.002 163.955 327.692 163.566C327.426 163.177 327.315 162.702 327.36 162.14C327.448 161.578 327.67 160.929 328.024 160.195L347.103 121.354C347.369 120.836 347.746 120.425 348.233 120.122C348.765 119.777 349.319 119.604 349.895 119.604C350.294 119.604 350.671 119.669 351.025 119.798C351.38 119.928 351.69 120.122 351.956 120.382C352.222 120.641 352.443 120.987 352.62 121.419L371.898 160.713ZM337.331 151.96L339.591 146.967H360.199L362.392 151.96H337.331Z" fill="#326149"/>
<path d="M391.25 164.863C390.408 164.863 389.765 164.733 389.322 164.474C388.879 164.258 388.591 163.934 388.458 163.501C388.369 163.026 388.325 162.486 388.325 161.88V122.457C388.325 121.895 388.391 121.419 388.524 121.03C388.701 120.598 388.989 120.252 389.388 119.993C389.831 119.733 390.474 119.604 391.316 119.604H406.007C408.179 119.604 410.151 119.928 411.924 120.576C413.741 121.181 415.314 122.089 416.643 123.3C417.973 124.51 418.992 126.045 419.701 127.903C420.455 129.719 420.831 131.837 420.831 134.258C420.831 135.771 420.588 137.349 420.1 138.991C419.613 140.591 418.859 142.104 417.84 143.53C416.865 144.957 415.602 146.146 414.051 147.097C412.5 148.048 410.616 148.588 408.4 148.718H394.308V161.945C394.308 162.55 394.219 163.069 394.042 163.501C393.909 163.934 393.621 164.258 393.177 164.474C392.779 164.733 392.136 164.863 391.25 164.863ZM419.768 164.15C418.837 164.755 418.039 164.95 417.375 164.733C416.754 164.517 416.156 163.999 415.58 163.177L404.944 146.578L411.525 145.605L420.698 159.87C421.142 160.562 421.407 161.146 421.496 161.621C421.629 162.097 421.54 162.529 421.23 162.918C420.964 163.307 420.477 163.718 419.768 164.15ZM394.308 143.012H407.47C408.489 143.012 409.442 142.839 410.328 142.493C411.215 142.104 411.99 141.542 412.655 140.807C413.32 140.072 413.851 139.164 414.25 138.084C414.649 137.003 414.849 135.706 414.849 134.193C414.849 132.334 414.494 130.756 413.785 129.46C413.12 128.163 412.123 127.19 410.794 126.542C409.464 125.85 407.824 125.504 405.874 125.504H394.308V143.012Z" fill="#326149"/>
<g clip-path="url(#clip0_541_2622)">
<path d="M100.924 105.339L100.598 106.136C100.407 106.667 100.163 107.198 99.9177 107.73C98.9928 109.829 97.9046 111.848 96.7348 113.84C94.3408 117.772 91.566 121.518 88.4647 124.972C85.3634 128.452 81.9628 131.64 78.3446 134.616C77.4741 135.386 76.5219 136.077 75.5969 136.794L74.2095 137.857C73.747 138.202 73.2574 138.548 72.7949 138.893L71.353 139.903C70.8634 140.248 70.4009 140.593 69.9112 140.912L66.9731 142.851C66.7283 143.011 66.4834 143.17 66.2386 143.33L65.4769 143.781L63.9534 144.685C62.9469 145.296 61.9403 145.907 60.9065 146.465L57.8052 148.165C57.2883 148.457 56.7714 148.696 56.2273 148.962L54.6495 149.759L53.0716 150.556C52.7996 150.689 52.5547 150.822 52.2827 150.954L51.4938 151.326L48.2836 152.788C47.2227 153.292 46.1345 153.744 45.0463 154.196L41.7818 155.551C35.824 157.942 29.7574 159.987 23.6092 161.794C31.7433 170.056 41.7818 177.176 53.1804 182.782C86.1795 166.603 105.848 139.026 105.848 109.005V78.6387C89.9609 87.9637 71.7339 92.9052 53.0988 92.9052C34.5182 92.9052 16.3184 87.9903 0.485352 78.7184V109.031C0.485352 111.077 0.59417 113.123 0.757396 115.142C9.57165 115.992 18.4131 116.444 27.2546 116.205L30.7095 116.072C31.8521 116.019 33.0219 115.992 34.1645 115.886C36.4497 115.7 38.7621 115.567 41.0472 115.275C42.1898 115.142 43.3324 115.036 44.475 114.876L47.9028 114.371C48.4741 114.292 49.0454 114.212 49.6167 114.106L51.3033 113.787L53.0172 113.468C53.5885 113.362 54.1598 113.256 54.7039 113.123L58.0772 112.352C58.6485 112.246 59.1926 112.087 59.7639 111.927L61.4234 111.476C61.9675 111.316 62.5388 111.183 63.0829 111.024L64.7423 110.519C65.8305 110.174 66.9459 109.855 68.0341 109.457C72.414 107.969 76.6851 106.189 80.7658 104.063C84.8737 101.938 88.7911 99.4673 92.4365 96.6512C94.232 95.2166 96.0003 93.7022 97.6326 92.0817C98.0406 91.6566 98.4487 91.2581 98.8296 90.833L99.4281 90.1954L99.9994 89.5312C100.761 88.6545 101.468 87.7512 102.121 86.7948C101.55 87.8043 100.897 88.7608 100.217 89.6906L99.7001 90.3814L99.156 91.0721C98.8024 91.5237 98.4215 91.9754 98.0406 92.4005C96.5172 94.1539 94.8577 95.8011 93.1438 97.3951C89.6617 100.53 85.853 103.32 81.8268 105.79C77.8005 108.261 73.5566 110.386 69.1767 112.246C68.0885 112.751 66.9731 113.149 65.8849 113.574L64.2255 114.212C63.6542 114.425 63.1101 114.611 62.5388 114.797L60.8521 115.381C60.2808 115.567 59.7367 115.78 59.1654 115.939L55.7377 116.975C55.1664 117.161 54.5951 117.294 54.0238 117.453L52.2827 117.905L50.5416 118.357C49.9703 118.516 49.3718 118.622 48.8005 118.755L45.3183 119.526C44.1486 119.765 42.9788 119.977 41.809 120.19C39.4694 120.668 37.1026 120.96 34.7358 121.332C33.566 121.518 32.369 121.651 31.172 121.784L27.6082 122.182C19.066 123.006 10.4966 123.245 1.92719 123.059C3.99473 132.862 8.23863 142.373 14.4957 151.114C15.5566 152.602 16.6992 154.089 17.869 155.524C25.2142 154.063 32.4778 152.256 39.6054 149.971L42.8427 148.882C43.9309 148.51 45.0191 148.165 46.0801 147.766L49.2902 146.571L50.0791 146.279C50.3512 146.172 50.596 146.066 50.8681 145.96L52.4459 145.296L54.0238 144.631C54.5407 144.419 55.0848 144.206 55.6016 143.967L58.703 142.533C59.7367 142.081 60.7433 141.55 61.7771 141.018L63.3005 140.248L64.0622 139.849C64.3071 139.717 64.5519 139.584 64.7968 139.451L67.7893 137.804C68.3061 137.538 68.7686 137.219 69.2583 136.927L70.7273 136.05C71.217 135.758 71.7067 135.466 72.1692 135.147L73.5838 134.217C74.536 133.58 75.4881 132.968 76.3859 132.304C80.0857 129.674 83.6223 126.805 86.8868 123.643C90.1513 120.482 93.1438 117.055 95.7827 113.335C97.0885 111.476 98.2855 109.536 99.3737 107.544C99.6457 107.039 99.9178 106.534 100.163 106.029L100.543 105.259L100.897 104.489C101.36 103.452 101.768 102.39 102.094 101.3C101.849 102.416 101.523 103.506 101.142 104.568L100.924 105.339Z" fill="#326149"/>
<g clip-path="url(#clip1_541_2622)">
<path d="M40.8746 61.8282C44.7223 67.5233 52.633 69.1169 58.4988 65.355C61.3509 63.5524 63.2883 60.7572 63.9609 57.5178C64.6605 54.2784 63.9878 50.9867 62.1313 48.2176C61.1088 46.7024 59.7634 45.4484 58.1759 44.4818L60.0863 41.4775L51.3146 46.5456C51.8527 46.5456 52.3909 46.5979 52.9021 46.7024C55.0816 47.1465 56.9382 48.3743 58.1759 50.1769C59.3867 51.9794 59.8172 54.1216 59.3598 56.2377C58.9024 58.3537 57.6378 60.1563 55.7812 61.358C54.382 62.2462 52.7945 62.6903 51.2338 62.6903C48.5162 62.6903 45.8793 61.4103 44.2649 59.0591C42.5428 56.525 42.489 53.364 43.8613 50.8561L35.1165 55.9242L38.7489 55.7152C38.9373 57.9096 39.6638 59.9996 40.8746 61.8282Z" fill="#326149"/>
<path d="M68.2391 44.3513C66.6247 41.9479 64.5259 39.9886 62.0505 38.4995L60.1401 41.5038C62.1043 42.6794 63.8532 44.2991 65.2255 46.2845C70.2033 53.6254 68.1046 63.4742 60.5437 68.281C52.9827 73.114 42.8387 71.0763 37.8878 63.7354C36.2465 61.3059 35.3855 58.6151 35.224 55.9243L31.5916 56.1333C31.7799 59.5294 32.91 62.8211 34.8473 65.6686C38.695 71.3375 45.072 74.4202 51.5836 74.4202C55.3506 74.4202 59.1714 73.4013 62.5348 71.233C67.0014 68.3855 70.0419 64.0228 71.1182 58.9286C72.1945 53.8866 71.172 48.6879 68.2391 44.3513Z" fill="#326149"/>
<path d="M46.848 48.1395C45.7986 48.7926 44.9914 49.6547 44.3726 50.6212L50.8841 46.8594C49.458 46.9116 48.0857 47.3557 46.848 48.1395Z" fill="#326149"/>
<path d="M46.7671 48.035C48.1125 47.1729 49.6193 46.7549 51.1261 46.7288L51.3683 46.5982C49.7269 46.5721 48.1125 47.0423 46.7133 47.9305C45.5025 48.7143 44.5608 49.7331 43.9419 50.9087L44.1572 50.7781C44.7491 49.6808 45.637 48.7404 46.7671 48.035Z" fill="#326149"/>
<path d="M82.1232 6.41895C85.2713 11.8528 87.6929 18.2271 87.5584 24.5491C87.397 31.5242 82.8496 36.8013 76.957 40.3542C69.9073 44.5863 61.9428 46.8591 54.5164 50.3075C48.6506 53.0505 42.3544 55.5062 37.2151 59.4771C30.5959 64.5974 25.3221 74.42 30.569 82.2312C30.569 82.205 30.5421 82.205 30.5421 82.1789C30.5421 82.1528 30.5152 82.1267 30.4883 82.1005C29.2775 80.089 27.8514 77.4504 26.4791 74.5507V74.5245C25.2414 71.9383 24.1113 69.3781 24.3266 66.4783C24.7571 60.2608 29.412 56.0025 34.3091 52.5542C40.0672 48.4788 46.1214 44.9259 52.4715 41.791C58.8215 38.63 65.3331 35.6257 71.0643 31.4459C72.0868 30.6883 73.0823 29.9307 74.051 29.0947C77.5489 26.0904 80.5356 22.3547 82.0424 18.0442C83.2802 14.3607 83.4416 10.1547 82.1232 6.41895Z" fill="#326149"/>
<path d="M41.8694 44.1161C32.8017 50.4381 25.8596 55.2711 24.1645 62.5597C22.9267 67.9152 25.7251 73.0355 28.0929 77.7117C23.8147 69.7961 20.1284 61.6976 19.375 52.6848C18.5947 43.1756 22.8729 33.9799 28.0391 29.7217C28.0122 29.6956 30.5146 47.9041 41.8694 44.1161Z" fill="#326149"/>
</g>
</g>
<defs>
<clipPath id="clip0_541_2622">
<rect width="105.363" height="182.809" fill="white" transform="translate(0.485352)"/>
</clipPath>
<clipPath id="clip1_541_2622">
<rect width="68.5326" height="75.9429" fill="white" transform="translate(19.1335 6.3667)"/>
</clipPath>
</defs>
</svg>
