<svg width="114" height="50" viewBox="0 0 114 50" fill="none" xmlns="http://www.w3.org/2000/svg">
<path d="M54.5604 21.7789H52.7916C52.5835 23.335 52.1943 24.6543 51.624 25.7368C50.8148 27.2703 49.7628 28.0371 48.4681 28.0371C47.8592 28.0371 47.2504 27.9018 46.6416 27.6312C46.2948 27.4808 45.7476 27.1726 45 26.7065L45.185 26.3795C45.2081 26.387 45.4624 26.4246 45.9479 26.4923C46.1714 26.5223 46.3179 26.5374 46.3872 26.5374C48.2446 26.5374 50.1443 25.173 52.0865 22.4442L51.3119 21.5421C50.8341 20.9858 50.4834 20.4032 50.2599 19.7943L51.7165 17.6631C52.2252 18.6403 52.7338 19.129 53.2425 19.129H54.5604V21.7789Z" fill="white"/>
<path d="M59.6931 21.7789H53.7396V19.129H59.6931V21.7789Z" fill="white"/>
<path d="M64.6872 21.7789H58.7336V19.129H64.6872V21.7789Z" fill="white"/>
<path d="M69.6812 21.7789H63.7277V19.129H69.6812V21.7789Z" fill="white"/>
<path d="M74.6752 21.7789H68.7217V19.129H74.6752V21.7789Z" fill="white"/>
<path d="M79.6693 21.7789H73.7157V19.129H79.6693V21.7789Z" fill="white"/>
<path d="M84.6633 21.7789H78.7098V19.129H84.6633V21.7789Z" fill="white"/>
<path d="M89.6574 21.7789H83.7038V19.129H89.6574V21.7789Z" fill="white"/>
<path d="M99.9576 7.58224C99.9576 7.67245 99.9499 7.73259 99.9344 7.76266L99.657 7.99946L99.3333 8.31519C99.2408 8.41292 99.1406 8.56326 99.0327 8.76623C98.948 8.90907 98.8555 8.98048 98.7553 8.98048C98.7014 8.98048 98.6204 8.95793 98.5125 8.91282L98.0039 8.85644H94.4202C94.1736 8.85644 94.0464 8.80382 94.0387 8.69858C94.0387 8.60085 94.0464 8.54447 94.0618 8.52944L94.3508 8.29264L94.9751 7.50331C95.0522 7.35296 95.1408 7.27779 95.241 7.27779C95.3026 7.27779 95.3835 7.30034 95.4837 7.34545C95.6302 7.38303 95.8036 7.40183 96.004 7.40183H99.5761C99.8304 7.40183 99.9576 7.46197 99.9576 7.58224Z" fill="white"/>
<path d="M105.46 21.7789L102.27 21.7676L101.114 21.7338L98.8593 21.5984L97.5183 21.6661L96.5357 21.6887C96.0733 21.6962 95.6417 21.7262 95.241 21.7789L95.1716 21.9931L94.9635 22.6697C94.9635 22.9478 94.9057 23.0944 94.7901 23.1094C94.7053 23.1094 94.6129 23.0343 94.5127 22.8839L94.4318 22.6584L94.4086 22.3652V22.1397L94.4896 21.7789L93.9809 21.8014H93.4607C92.7131 21.8014 92.1505 21.5533 91.7729 21.0572C91.6188 20.8542 91.4916 20.6061 91.3914 20.313C90.9598 21.2902 90.4011 21.7789 89.7152 21.7789H88.8597V19.129H89.7152C90.0543 19.129 90.3548 19.1064 90.6169 19.0613C90.7864 19.0313 90.9714 18.9636 91.1718 18.8584C91.4723 18.693 91.8268 18.3434 92.2353 17.8097L92.3278 17.8322C92.4511 18.7193 92.8673 19.1515 93.5763 19.129L94.7901 19.0951L95.4837 19.0613C97.133 15.5808 98.9672 13.8405 100.986 13.8405C101.757 13.8405 102.351 14.0698 102.767 14.5283C103.191 14.9869 103.403 15.592 103.403 16.3438C103.403 17.0429 103.245 17.6255 102.929 18.0916C102.667 18.4674 102.139 18.8847 101.345 19.3432L102.096 19.2305C102.589 19.1628 102.959 19.129 103.206 19.129H105.46V21.7789ZM102.281 17.3699C102.281 17.0767 101.996 16.8399 101.426 16.6595C100.994 16.5092 100.593 16.434 100.223 16.434C99.2755 16.434 98.3044 16.9377 97.3103 17.945C96.9866 18.2682 96.6822 18.6479 96.397 19.0839C99.2023 19.0839 101.025 18.7531 101.865 18.0916C102.142 17.8661 102.281 17.6255 102.281 17.3699Z" fill="white"/>
<path d="M108.454 17.8322C108.454 18.8922 108.231 19.7792 107.784 20.4934C107.252 21.3504 106.478 21.7789 105.46 21.7789H104.605V19.129H105.46C106.693 19.129 107.31 18.9335 107.31 18.5426C107.31 18.4599 107.102 18.1818 106.686 17.7082C106.493 17.4827 106.397 17.2797 106.397 17.0993C106.397 16.9113 106.589 16.4227 106.975 15.6334L107.553 14.4494C107.892 15.1936 108.131 15.8063 108.269 16.2874C108.393 16.6933 108.454 17.2083 108.454 17.8322ZM107.657 25.1391L106.697 26.7403L105.113 25.5564L106.096 23.9664L107.657 25.1391Z" fill="white"/>
<path d="M113.125 18.4186C113.148 19.2605 112.947 20.2115 112.524 21.2714H112.073C112.073 20.1138 112.019 19.1478 111.911 18.3735C111.911 18.3735 111.811 17.7909 111.61 16.6257L110.928 12.6452L110.894 12.0476C110.878 11.7319 110.963 11.4011 111.148 11.0553C111.294 10.7997 111.676 10.3486 112.292 9.70215C112.292 10.7922 112.358 11.7431 112.489 12.555L112.766 14.3141L112.905 15.3966L113.032 16.7159C113.032 16.994 113.04 17.2684 113.055 17.539C113.078 17.727 113.102 18.0202 113.125 18.4186ZM113.009 7.10865L112.616 7.97691L109.645 9.19473C109.761 8.87148 109.857 8.65347 109.934 8.54071C110.05 8.3603 110.208 8.23626 110.408 8.1686L110.766 8.03329L110.223 7.70628C110.107 7.63862 109.996 7.55217 109.888 7.44693C109.718 7.27403 109.634 7.08985 109.634 6.8944C109.634 6.53357 109.83 6.12763 110.223 5.67658C110.616 5.22554 110.994 5.00002 111.356 5.00002C111.741 5.00002 111.934 5.24433 111.934 5.73296C111.934 6.19904 111.803 6.43208 111.541 6.43208C111.472 6.43208 111.395 6.39825 111.31 6.3306C111.256 6.28549 111.183 6.18777 111.09 6.03742C111.005 5.87955 110.921 5.80062 110.836 5.80062C110.736 5.80062 110.639 5.85324 110.547 5.95848C110.462 6.05621 110.42 6.15394 110.42 6.25166C110.42 6.52981 110.616 6.7854 111.009 7.01844C111.364 7.23644 111.691 7.34545 111.992 7.34545C112.292 7.34545 112.631 7.26651 113.009 7.10865Z" fill="white"/>
<path d="M58.2722 43.3169C58.3669 43.4901 58.4143 43.6402 58.4143 43.7672C58.4261 43.8826 58.3906 43.9923 58.3077 44.0963C58.2249 44.1886 58.0947 44.2752 57.9171 44.3561C57.633 44.4831 57.4081 44.5119 57.2423 44.4427C57.0884 44.3734 56.9464 44.206 56.8162 43.9404L52.377 34.7261L47.9734 43.9231C47.8432 44.1886 47.6952 44.3561 47.5295 44.4253C47.3756 44.4946 47.1507 44.4658 46.8547 44.3387C46.6772 44.2695 46.547 44.1829 46.4641 44.0789C46.3931 43.975 46.3635 43.848 46.3753 43.6979C46.399 43.5478 46.4582 43.3746 46.5529 43.1783L51.649 32.8036C51.72 32.665 51.8207 32.5553 51.9509 32.4745C52.0929 32.3821 52.2409 32.3359 52.3948 32.3359C52.5013 32.3359 52.6019 32.3532 52.6966 32.3879C52.7914 32.4225 52.8742 32.4745 52.9452 32.5438C53.0163 32.613 53.0755 32.7054 53.1228 32.8209L58.2722 43.3169ZM49.0388 40.9786L49.6425 39.645H55.1471L55.733 40.9786H49.0388Z" fill="white"/>
<path d="M63.0683 44.4253C62.8552 44.4253 62.6895 44.3849 62.5711 44.3041C62.4646 44.2348 62.3936 44.1309 62.358 43.9923C62.3225 43.8422 62.3048 43.6806 62.3048 43.5074V33.2192C62.3048 33.046 62.3225 32.8959 62.358 32.7689C62.4054 32.6304 62.4823 32.5264 62.5889 32.4572C62.7073 32.3763 62.873 32.3359 63.0861 32.3359H68.0401C68.7031 32.3359 69.2831 32.4802 69.7803 32.7689C70.2893 33.0576 70.6859 33.4502 70.97 33.9467C71.2541 34.4432 71.3902 34.9859 71.3784 35.5748C71.3902 35.875 71.3547 36.1694 71.2718 36.4581C71.189 36.7468 71.0647 37.0181 70.899 37.2721C70.7451 37.5146 70.5497 37.7167 70.313 37.8783C70.6326 38.0746 70.9049 38.3287 71.1298 38.6404C71.3547 38.9522 71.5264 39.2986 71.6447 39.6796C71.7631 40.0607 71.8223 40.459 71.8223 40.8747C71.8105 41.3712 71.7158 41.8389 71.5382 42.2777C71.3606 42.7049 71.1061 43.0802 70.7747 43.4035C70.4432 43.7268 70.0585 43.9808 69.6205 44.1655C69.1825 44.3387 68.7149 44.4253 68.2177 44.4253H63.0683ZM63.9029 42.9358H68.0401C68.5018 42.9358 68.8984 42.8492 69.2298 42.676C69.5613 42.5028 69.8158 42.2488 69.9934 41.9139C70.1709 41.5791 70.2597 41.1692 70.2597 40.6842C70.2597 40.2685 70.2005 39.9337 70.0822 39.6796C69.9638 39.4256 69.804 39.2351 69.6027 39.1081C69.4015 38.9695 69.1825 38.8714 68.9457 38.8136C68.7208 38.7559 68.4959 38.727 68.271 38.727C68.0579 38.7155 67.8626 38.7097 67.685 38.7097H66.6019C66.3651 38.7097 66.1935 38.652 66.0869 38.5365C65.9804 38.421 65.9271 38.2363 65.9271 37.9823C65.9271 37.7398 65.9804 37.5666 66.0869 37.4627C66.2053 37.3587 66.3829 37.3068 66.6196 37.3068H67.7028C67.8922 37.3068 68.1053 37.301 68.342 37.2895C68.5788 37.2779 68.8096 37.2317 69.0345 37.1509C69.2713 37.0701 69.4607 36.92 69.6027 36.7006C69.7566 36.4696 69.8336 36.1463 69.8336 35.7307C69.8336 35.084 69.656 34.6106 69.3009 34.3104C68.9457 33.9986 68.3598 33.8428 67.543 33.8428H63.9029V42.9358Z" fill="white"/>
<path d="M80.1092 44.5985C79.6594 44.5985 79.2332 44.5466 78.8307 44.4427C78.4401 44.3387 78.079 44.2002 77.7476 44.027C77.428 43.8422 77.1439 43.6402 76.8953 43.4208C76.6467 43.2014 76.4514 42.982 76.3093 42.7626C76.1791 42.5779 76.0962 42.4278 76.0607 42.3123C76.0252 42.1853 76.0311 42.064 76.0785 41.9486C76.1377 41.8331 76.2501 41.7061 76.4158 41.5675C76.6052 41.429 76.771 41.3655 76.913 41.377C77.0551 41.377 77.1853 41.429 77.3037 41.5329C77.4339 41.6368 77.5641 41.7754 77.6943 41.9486C77.9903 42.3412 78.3513 42.6298 78.7775 42.8146C79.2036 42.9878 79.6239 43.0744 80.0382 43.0744C80.5709 43.0744 81.0444 43.0051 81.4587 42.8665C81.873 42.728 82.1986 42.5201 82.4353 42.243C82.6839 41.9543 82.8082 41.5848 82.8082 41.1345C82.8082 40.765 82.7135 40.4533 82.5241 40.1992C82.3347 39.9452 82.0802 39.7316 81.7606 39.5584C81.441 39.3736 81.0858 39.2178 80.6952 39.0908C80.3045 38.9522 79.908 38.8194 79.5055 38.6924C79.1859 38.5885 78.8722 38.473 78.5644 38.346C78.2566 38.2074 77.9666 38.0573 77.6943 37.8957C77.4221 37.7225 77.1794 37.5204 76.9663 37.2895C76.7651 37.0585 76.6053 36.7872 76.4869 36.4754C76.3803 36.1637 76.3271 35.7999 76.3271 35.3843C76.3271 34.7492 76.481 34.1892 76.7887 33.7042C77.1084 33.2192 77.5523 32.844 78.1205 32.5784C78.6887 32.3013 79.3457 32.1627 80.0915 32.1627C80.5295 32.1627 80.9319 32.2031 81.2989 32.284C81.6659 32.3648 81.9914 32.4745 82.2755 32.613C82.5596 32.74 82.8023 32.8786 83.0035 33.0287C83.2048 33.1673 83.3587 33.3001 83.4652 33.4271C83.6783 33.6465 83.7967 33.8312 83.8203 33.9813C83.844 34.1314 83.7552 34.3162 83.554 34.5356C83.3646 34.7434 83.1811 34.8531 83.0035 34.8646C82.826 34.8762 82.6306 34.7954 82.4176 34.6222C82.1927 34.3681 81.9559 34.1718 81.7073 34.0333C81.4706 33.8947 81.216 33.8023 80.9438 33.7562C80.6833 33.6984 80.3933 33.6696 80.0737 33.6696C79.7659 33.6696 79.4759 33.71 79.2036 33.7908C78.9432 33.8601 78.7124 33.9698 78.5111 34.1199C78.3217 34.27 78.1738 34.4547 78.0672 34.6741C77.9607 34.882 77.9074 35.1245 77.9074 35.4016C77.9074 35.7133 77.9903 35.9789 78.156 36.1983C78.3336 36.4177 78.5644 36.6082 78.8485 36.7699C79.1326 36.92 79.4522 37.0585 79.8074 37.1855C80.1625 37.301 80.5354 37.4165 80.926 37.5319C81.3522 37.659 81.7724 37.8148 82.1867 37.9996C82.6011 38.1728 82.9739 38.3922 83.3054 38.6578C83.6369 38.9118 83.9032 39.2351 84.1044 39.6277C84.3057 40.0203 84.4063 40.5052 84.4063 41.0826C84.4063 41.6599 84.2879 42.168 84.0512 42.6067C83.8263 43.0455 83.5126 43.415 83.1101 43.7152C82.7076 44.0039 82.2459 44.2233 81.7251 44.3734C81.216 44.5235 80.6774 44.5985 80.1092 44.5985Z" fill="white"/>
<path d="M99.2095 43.3169C99.3042 43.4901 99.3515 43.6402 99.3515 43.7672C99.3634 43.8826 99.3279 43.9923 99.245 44.0963C99.1621 44.1886 99.0319 44.2752 98.8543 44.3561C98.5702 44.4831 98.3453 44.5119 98.1796 44.4427C98.0257 44.3734 97.8837 44.206 97.7534 43.9404L93.3143 34.7261L88.9107 43.9231C88.7804 44.1886 88.6325 44.3561 88.4667 44.4253C88.3129 44.4946 88.0879 44.4658 87.792 44.3387C87.6144 44.2695 87.4842 44.1829 87.4013 44.0789C87.3303 43.975 87.3007 43.848 87.3126 43.6979C87.3362 43.5478 87.3954 43.3746 87.4901 43.1783L92.5863 32.8036C92.6573 32.665 92.7579 32.5553 92.8881 32.4745C93.0302 32.3821 93.1782 32.3359 93.3321 32.3359C93.4386 32.3359 93.5392 32.3532 93.6339 32.3879C93.7286 32.4225 93.8115 32.4745 93.8825 32.5438C93.9535 32.613 94.0127 32.7054 94.0601 32.8209L99.2095 43.3169ZM89.9761 40.9786L90.5798 39.645H96.0843L96.6703 40.9786H89.9761Z" fill="white"/>
<path d="M104.378 44.4253C104.154 44.4253 103.982 44.3907 103.864 44.3214C103.745 44.2637 103.668 44.1771 103.633 44.0616C103.609 43.9346 103.597 43.7903 103.597 43.6286V33.098C103.597 32.9479 103.615 32.8209 103.65 32.717C103.698 32.6015 103.775 32.5091 103.881 32.4398C104 32.3706 104.171 32.3359 104.396 32.3359H108.32C108.9 32.3359 109.427 32.4225 109.901 32.5957C110.386 32.7574 110.806 32.9998 111.161 33.3232C111.517 33.6465 111.789 34.0564 111.978 34.5529C112.18 35.0378 112.28 35.6036 112.28 36.2503C112.28 36.6544 112.215 37.0758 112.085 37.5146C111.955 37.9419 111.753 38.346 111.481 38.727C111.221 39.1081 110.883 39.4256 110.469 39.6796C110.055 39.9337 109.552 40.078 108.96 40.1126H105.195V43.6459C105.195 43.8076 105.172 43.9462 105.124 44.0616C105.089 44.1771 105.012 44.2637 104.893 44.3214C104.787 44.3907 104.615 44.4253 104.378 44.4253ZM111.996 44.2348C111.747 44.3965 111.534 44.4484 111.357 44.3907C111.191 44.333 111.031 44.1944 110.877 43.975L108.036 39.5411L109.794 39.2813L112.245 43.0917C112.363 43.2764 112.434 43.4323 112.458 43.5593C112.493 43.6864 112.47 43.8018 112.387 43.9057C112.316 44.0097 112.185 44.1194 111.996 44.2348ZM105.195 38.5885H108.711C108.983 38.5885 109.238 38.5423 109.475 38.4499C109.711 38.346 109.919 38.1959 110.096 37.9996C110.274 37.8033 110.416 37.5608 110.522 37.2721C110.629 36.9835 110.682 36.6371 110.682 36.2329C110.682 35.7364 110.587 35.315 110.398 34.9686C110.22 34.6222 109.954 34.3624 109.599 34.1892C109.244 34.0044 108.806 33.912 108.285 33.912H105.195V38.5885Z" fill="white"/>
<g clip-path="url(#clip0_265_497)">
<path d="M26.8286 28.5257L26.7414 28.7386C26.6906 28.8806 26.6252 29.0225 26.5598 29.1644C26.3127 29.725 26.022 30.2644 25.7096 30.7966C25.0701 31.8469 24.3289 32.8475 23.5005 33.77C22.6721 34.6997 21.7637 35.5512 20.7973 36.346C20.5647 36.5518 20.3104 36.7363 20.0633 36.9279L19.6927 37.2118C19.5692 37.3041 19.4384 37.3963 19.3149 37.4886L18.9297 37.7582C18.7989 37.8505 18.6754 37.9427 18.5446 38.0279L17.7598 38.5459C17.6944 38.5885 17.629 38.6311 17.5636 38.6737L17.3601 38.7943L16.9532 39.0356C16.6843 39.1988 16.4155 39.362 16.1393 39.511L15.3109 39.9652C15.1729 40.0433 15.0348 40.1071 14.8895 40.1781L14.468 40.391L14.0465 40.6039C13.9738 40.6394 13.9084 40.6749 13.8358 40.7103L13.625 40.8097L12.7676 41.2C12.4842 41.3348 12.1935 41.4555 11.9028 41.5761L11.0308 41.938C9.43943 42.5767 7.81896 43.1231 6.17669 43.6057C8.34943 45.8127 11.0308 47.7145 14.0756 49.2119C22.8901 44.8902 28.1439 37.524 28.1439 29.505V21.3938C23.9002 23.8847 19.0315 25.2046 14.0538 25.2046C9.09063 25.2046 4.22921 23.8918 0 21.4151V29.5121C0 30.0586 0.0290668 30.605 0.0726669 31.1443C2.42708 31.3714 4.78875 31.4921 7.15042 31.4282L8.07329 31.3927C8.3785 31.3785 8.69096 31.3714 8.99616 31.343C9.60657 31.2934 10.2242 31.2579 10.8346 31.1798C11.1398 31.1443 11.445 31.1159 11.7502 31.0734L12.6658 30.9385C12.8184 30.9172 12.971 30.896 13.1236 30.8676L13.5742 30.7824L14.032 30.6973C14.1846 30.6689 14.3372 30.6405 14.4825 30.605L15.3836 30.3992C15.5362 30.3708 15.6815 30.3282 15.8341 30.2857L16.2774 30.165C16.4227 30.1224 16.5753 30.087 16.7207 30.0444L17.1639 29.9095C17.4546 29.8173 17.7525 29.7321 18.0432 29.6257C19.2131 29.2283 20.354 28.7528 21.444 28.1851C22.5413 27.6174 23.5877 26.9574 24.5614 26.2052C25.041 25.822 25.5134 25.4175 25.9494 24.9846C26.0584 24.8711 26.1674 24.7646 26.2691 24.6511L26.429 24.4808L26.5816 24.3033C26.785 24.0692 26.974 23.8279 27.1484 23.5724C26.9958 23.8421 26.8214 24.0976 26.6397 24.3459L26.5016 24.5304L26.3563 24.7149C26.2618 24.8356 26.1601 24.9562 26.0584 25.0698C25.6514 25.5381 25.2082 25.9781 24.7504 26.4039C23.8202 27.2413 22.8029 27.9864 21.7274 28.6464C20.6519 29.3063 19.5183 29.8741 18.3484 30.3708C18.0577 30.5056 17.7598 30.6121 17.4691 30.7256L17.0259 30.896C16.8733 30.9527 16.7279 31.0024 16.5753 31.0521L16.1248 31.2082C15.9722 31.2579 15.8269 31.3146 15.6743 31.3572L14.7587 31.634C14.6061 31.6837 14.4535 31.7191 14.3008 31.7617L13.8358 31.8824L13.3707 32.003C13.2181 32.0456 13.0582 32.074 12.9056 32.1094L11.9755 32.3152C11.663 32.3791 11.3506 32.4359 11.0381 32.4927C10.4132 32.6204 9.78097 32.6985 9.14876 32.7978C8.8363 32.8475 8.51656 32.883 8.19683 32.9184L7.24489 33.0249C4.96315 33.2449 2.67414 33.3087 0.385135 33.2591C0.937403 35.8777 2.07101 38.4182 3.74235 40.7529C4.02575 41.1503 4.33095 41.5477 4.64342 41.9309C6.60542 41.5406 8.54563 41.0581 10.4495 40.4478L11.3142 40.1568C11.6049 40.0575 11.8956 39.9652 12.179 39.8588L13.0364 39.5394L13.2472 39.4614C13.3198 39.433 13.3852 39.4046 13.4579 39.3762L13.8794 39.1988L14.3008 39.0214C14.4389 38.9646 14.5843 38.9079 14.7223 38.844L15.5507 38.4608C15.8269 38.3401 16.0957 38.1982 16.3719 38.0563L16.7788 37.8505L16.9823 37.744C17.0477 37.7085 17.1131 37.6731 17.1785 37.6376L17.9778 37.1976C18.1159 37.1266 18.2394 37.0415 18.3702 36.9634L18.7626 36.7292C18.8934 36.6512 19.0242 36.5731 19.1477 36.488L19.5256 36.2396C19.7799 36.0693 20.0343 35.906 20.2741 35.7286C21.2623 35.0261 22.207 34.2597 23.079 33.4152C23.951 32.5707 24.7504 31.6553 25.4552 30.6618C25.804 30.165 26.1238 29.647 26.4144 29.1147C26.4871 28.9799 26.5598 28.8451 26.6252 28.7102L26.7269 28.5045L26.8214 28.2987C26.9449 28.0219 27.0539 27.738 27.1411 27.4471C27.0757 27.7451 26.9885 28.0361 26.8868 28.3199L26.8286 28.5257Z" fill="white"/>
<g clip-path="url(#clip1_265_497)">
<path d="M10.7888 16.9034C11.8166 18.4247 13.9296 18.8503 15.4965 17.8455C16.2583 17.364 16.7758 16.6173 16.9555 15.752C17.1424 14.8868 16.9627 14.0075 16.4668 13.2678C16.1936 12.8631 15.8343 12.5282 15.4102 12.27L15.9205 11.4675L13.5775 12.8212C13.7212 12.8212 13.865 12.8352 14.0015 12.8631C14.5837 12.9817 15.0796 13.3097 15.4102 13.7912C15.7337 14.2727 15.8486 14.8449 15.7265 15.4101C15.6043 15.9753 15.2665 16.4568 14.7706 16.7778C14.3968 17.0151 13.9728 17.1337 13.5559 17.1337C12.83 17.1337 12.1256 16.7918 11.6944 16.1638C11.2344 15.4869 11.22 14.6425 11.5866 13.9726L9.25073 15.3264L10.221 15.2706C10.2713 15.8567 10.4654 16.415 10.7888 16.9034Z" fill="white"/>
<path d="M18.0981 12.2351C17.6669 11.5931 17.1063 11.0697 16.4451 10.672L15.9348 11.4745C16.4594 11.7885 16.9266 12.2211 17.2932 12.7515C18.6228 14.7123 18.0622 17.3431 16.0426 18.627C14.023 19.918 11.3134 19.3737 9.9909 17.4128C9.55248 16.7639 9.32249 16.0451 9.27936 15.3264L8.30908 15.3822C8.35939 16.2894 8.66126 17.1686 9.17874 17.9292C10.2065 19.4435 11.9099 20.2669 13.6492 20.2669C14.6554 20.2669 15.676 19.9947 16.5744 19.4156C17.7675 18.6549 18.5797 17.4896 18.8672 16.1289C19.1547 14.7821 18.8816 13.3934 18.0981 12.2351Z" fill="white"/>
<path d="M12.3844 13.2469C12.1041 13.4214 11.8885 13.6516 11.7231 13.9098L13.4625 12.905C13.0815 12.9189 12.715 13.0376 12.3844 13.2469Z" fill="white"/>
<path d="M12.3628 13.219C12.7222 12.9887 13.1247 12.8771 13.5272 12.8701L13.5918 12.8352C13.1534 12.8282 12.7222 12.9538 12.3484 13.1911C12.025 13.4004 11.7735 13.6726 11.6082 13.9866L11.6657 13.9517C11.8238 13.6586 12.061 13.4074 12.3628 13.219Z" fill="white"/>
<path d="M21.8067 2.10285C22.6476 3.5543 23.2944 5.25696 23.2585 6.94566C23.2154 8.80882 22.0007 10.2184 20.4267 11.1674C18.5436 12.2979 16.4162 12.905 14.4325 13.8261C12.8657 14.5588 11.1839 15.2147 9.81111 16.2754C8.04304 17.6431 6.63434 20.2669 8.03585 22.3533C8.03585 22.3464 8.02867 22.3464 8.02867 22.3394C8.02867 22.3324 8.02148 22.3254 8.01429 22.3184C7.69087 21.7811 7.30994 21.0763 6.94339 20.3018V20.2948C6.61277 19.604 6.31091 18.9201 6.36841 18.1455C6.4834 16.4847 7.7268 15.3473 9.03489 14.4262C10.573 13.3376 12.1901 12.3886 13.8863 11.5512C15.5825 10.7069 17.3218 9.90438 18.8527 8.78788C19.1258 8.58552 19.3917 8.38315 19.6505 8.15985C20.5848 7.35737 21.3826 6.3595 21.7851 5.20811C22.1157 4.22419 22.1588 3.10072 21.8067 2.10285Z" fill="white"/>
<path d="M11.0545 12.1723C8.63234 13.861 6.77802 15.1519 6.32523 17.0988C5.99461 18.5293 6.74209 19.897 7.37457 21.1461C6.23179 19.0318 5.24713 16.8685 5.04589 14.4611C4.83746 11.9211 5.98024 9.46476 7.36019 8.32733C7.35301 8.32035 8.02142 13.1841 11.0545 12.1723Z" fill="white"/>
</g>
</g>
<defs>
<clipPath id="clip0_265_497">
<rect width="28.1439" height="48.8307" fill="white" transform="translate(0 0.388321)"/>
</clipPath>
<clipPath id="clip1_265_497">
<rect width="18.306" height="20.2854" fill="white" transform="translate(4.9812 2.08889)"/>
</clipPath>
</defs>
</svg>
