<svg width="50" height="9" viewBox="0 0 50 9" fill="none" xmlns="http://www.w3.org/2000/svg">
<path d="M9.00097 8.07242C9.07261 8.19777 9.10843 8.30641 9.10843 8.39833C9.11738 8.48189 9.09052 8.56128 9.02784 8.63649C8.96516 8.70334 8.86666 8.76602 8.73235 8.82451C8.51744 8.91643 8.34731 8.93732 8.22195 8.88719C8.10555 8.83705 7.99809 8.71588 7.8996 8.52368L4.54174 1.85515L1.21075 8.51114C1.11225 8.70334 1.00032 8.82451 0.874961 8.87465C0.758556 8.92479 0.588424 8.9039 0.364567 8.81197C0.230253 8.76184 0.131756 8.69916 0.069076 8.62395C0.0153502 8.54874 -0.00703551 8.45682 0.00191877 8.34818C0.0198273 8.23955 0.0645988 8.11421 0.136233 7.97214L3.99105 0.463787C4.04478 0.363509 4.12089 0.284121 4.21939 0.225625C4.32684 0.158773 4.43877 0.125348 4.55517 0.125348C4.63576 0.125348 4.71187 0.137881 4.78351 0.162951C4.85514 0.188021 4.91782 0.225624 4.97155 0.275763C5.02527 0.325903 5.07004 0.392756 5.10586 0.476321L9.00097 8.07242ZM2.01663 6.38022L2.4733 5.41504L6.63704 5.41504L7.08028 6.38022L2.01663 6.38022Z" fill="#224332"/>
<path d="M12.6288 8.87465C12.4676 8.87465 12.3423 8.8454 12.2527 8.7869C12.1722 8.73676 12.1184 8.66156 12.0916 8.56128C12.0647 8.45264 12.0513 8.33565 12.0513 8.2103L12.0513 0.764623C12.0513 0.639274 12.0647 0.530639 12.0916 0.438717C12.1274 0.338439 12.1856 0.26323 12.2662 0.21309C12.3557 0.154595 12.4811 0.125348 12.6423 0.125348L16.3896 0.125348C16.8911 0.125348 17.3298 0.229804 17.7059 0.438717C18.0909 0.647631 18.3909 0.931755 18.6058 1.29109C18.8207 1.65042 18.9237 2.04317 18.9147 2.46936C18.9237 2.68663 18.8968 2.89972 18.8341 3.10863C18.7715 3.31755 18.6774 3.51393 18.5521 3.69777C18.4357 3.87326 18.2879 4.0195 18.1088 4.13649C18.3506 4.27855 18.5566 4.46239 18.7267 4.68802C18.8968 4.91365 19.0267 5.16434 19.1162 5.44011C19.2057 5.71588 19.2505 6.00418 19.2505 6.30501C19.2416 6.66435 19.1699 7.00278 19.0356 7.32033C18.9013 7.62953 18.7088 7.90111 18.4581 8.1351C18.2073 8.36908 17.9163 8.55292 17.585 8.68663C17.2537 8.81198 16.9 8.87465 16.5239 8.87465H12.6288ZM13.2601 7.79665L16.3896 7.79665C16.7388 7.79665 17.0388 7.73398 17.2895 7.60863C17.5402 7.48329 17.7328 7.29944 17.8671 7.0571C18.0014 6.81476 18.0685 6.5181 18.0685 6.16713C18.0685 5.86629 18.0238 5.62395 17.9342 5.44011C17.8447 5.25627 17.7238 5.11838 17.5716 5.02646C17.4194 4.92618 17.2537 4.85515 17.0746 4.81337C16.9045 4.77158 16.7344 4.7507 16.5642 4.7507C16.4031 4.74234 16.2553 4.73816 16.121 4.73816H15.3017C15.1226 4.73816 14.9928 4.69638 14.9122 4.61281C14.8316 4.52925 14.7913 4.39554 14.7913 4.2117C14.7913 4.03621 14.8316 3.91086 14.9122 3.83565C15.0017 3.76044 15.136 3.72284 15.3151 3.72284H16.1344C16.2777 3.72284 16.4389 3.71866 16.618 3.71031C16.797 3.70195 16.9716 3.66852 17.1418 3.61003C17.3209 3.55153 17.4641 3.4429 17.5716 3.28412C17.688 3.11699 17.7462 2.88301 17.7462 2.58217C17.7462 2.11421 17.6119 1.77159 17.3433 1.55432C17.0746 1.32869 16.6314 1.21588 16.0135 1.21588L13.2601 1.21588L13.2601 7.79665Z" fill="#224332"/>
<path d="M25.5189 9C25.1786 9 24.8563 8.96239 24.5518 8.88719C24.2563 8.81198 23.9832 8.7117 23.7325 8.58635C23.4908 8.45264 23.2759 8.3064 23.0878 8.14763C22.8998 7.98885 22.752 7.83008 22.6446 7.67131C22.5461 7.5376 22.4834 7.42897 22.4565 7.3454C22.4297 7.25348 22.4341 7.16573 22.47 7.08217C22.5147 6.9986 22.5998 6.90668 22.7252 6.80641C22.8684 6.70613 22.9938 6.66017 23.1012 6.66852C23.2087 6.66852 23.3072 6.70613 23.3967 6.78133C23.4952 6.85654 23.5937 6.95682 23.6922 7.08217C23.9161 7.36629 24.1892 7.57521 24.5115 7.70891C24.8339 7.83426 25.1518 7.89693 25.4652 7.89693C25.8681 7.89693 26.2263 7.84679 26.5397 7.74651C26.8531 7.64624 27.0993 7.49582 27.2784 7.29526C27.4665 7.08635 27.5605 6.81894 27.5605 6.49303C27.5605 6.22563 27.4888 6 27.3456 5.81616C27.2023 5.63231 27.0098 5.47771 26.768 5.35236C26.5263 5.21866 26.2576 5.10585 25.9621 5.01393C25.6666 4.91365 25.3667 4.81755 25.0622 4.72563C24.8205 4.65042 24.5832 4.56685 24.3504 4.47493C24.1175 4.37465 23.8982 4.26602 23.6922 4.14903C23.4863 4.02368 23.3027 3.87744 23.1415 3.71031C22.9893 3.54317 22.8684 3.34679 22.7789 3.12117C22.6983 2.89554 22.658 2.63231 22.658 2.33147C22.658 1.87186 22.7744 1.46657 23.0072 1.1156C23.249 0.764622 23.5848 0.493034 24.0146 0.300834C24.4444 0.100277 24.9413 0 25.5055 0C25.8368 0 26.1412 0.0292481 26.4188 0.0877437C26.6964 0.14624 26.9426 0.225626 27.1575 0.325904C27.3724 0.417827 27.556 0.518104 27.7082 0.626739C27.8604 0.727018 27.9768 0.823119 28.0574 0.915041C28.2186 1.07382 28.3082 1.20752 28.3261 1.31615C28.344 1.42479 28.2768 1.55849 28.1246 1.71727C27.9813 1.86769 27.8425 1.94707 27.7082 1.95543C27.5739 1.96379 27.4262 1.90529 27.265 1.77994C27.0948 1.5961 26.9158 1.45404 26.7277 1.35376C26.5486 1.25348 26.3561 1.18663 26.1502 1.1532C25.9532 1.11142 25.7338 1.09053 25.492 1.09053C25.2592 1.09053 25.0398 1.11978 24.8339 1.17827C24.6369 1.22841 24.4623 1.3078 24.3101 1.41643C24.1668 1.52507 24.0549 1.65877 23.9743 1.81755C23.8937 1.96797 23.8534 2.14345 23.8534 2.34401C23.8534 2.56964 23.9161 2.76184 24.0414 2.92061C24.1758 3.07939 24.3504 3.21727 24.5653 3.33426C24.7802 3.4429 25.0219 3.54317 25.2906 3.63509C25.5592 3.71866 25.8412 3.80223 26.1367 3.88579C26.4591 3.97771 26.777 4.09053 27.0904 4.22423C27.4038 4.34958 27.6858 4.50836 27.9366 4.70056C28.1873 4.8844 28.3887 5.11838 28.541 5.40251C28.6932 5.68663 28.7693 6.0376 28.7693 6.45543C28.7693 6.87326 28.6798 7.24095 28.5007 7.5585C28.3305 7.87604 28.0933 8.14345 27.7888 8.36072C27.4844 8.56963 27.1351 8.72841 26.7412 8.83705C26.3561 8.94568 25.9487 9 25.5189 9Z" fill="#224332"/>
<path d="M39.9667 8.07242C40.0383 8.19777 40.0742 8.30641 40.0742 8.39833C40.0831 8.48189 40.0562 8.56128 39.9936 8.63649C39.9309 8.70334 39.8324 8.76602 39.6981 8.82451C39.4832 8.91643 39.313 8.93732 39.1877 8.88719C39.0713 8.83705 38.9638 8.71588 38.8653 8.52368L35.5075 1.85515L32.1765 8.51114C32.078 8.70334 31.9661 8.82451 31.8407 8.87465C31.7243 8.92479 31.5542 8.9039 31.3303 8.81197C31.196 8.76184 31.0975 8.69916 31.0348 8.62395C30.9811 8.54874 30.9587 8.45682 30.9676 8.34818C30.9856 8.23955 31.0303 8.11421 31.102 7.97214L34.9568 0.463787C35.0105 0.363509 35.0866 0.284121 35.1851 0.225625C35.2926 0.158773 35.4045 0.125348 35.5209 0.125348C35.6015 0.125348 35.6776 0.137881 35.7492 0.162951C35.8209 0.188021 35.8835 0.225624 35.9373 0.275763C35.991 0.325903 36.0358 0.392756 36.0716 0.476321L39.9667 8.07242ZM32.9824 6.38022L33.439 5.41504L37.6028 5.41504L38.046 6.38022L32.9824 6.38022Z" fill="#224332"/>
<path d="M43.8766 8.87465C43.7065 8.87465 43.5766 8.84958 43.4871 8.79944C43.3976 8.75766 43.3394 8.69498 43.3125 8.61142C43.2946 8.5195 43.2856 8.41504 43.2856 8.29805V0.676879C43.2856 0.568244 43.2991 0.476322 43.3259 0.401113C43.3617 0.317547 43.4199 0.250695 43.5005 0.200556C43.5901 0.150417 43.7199 0.125348 43.89 0.125348L46.8584 0.125348C47.2971 0.125348 47.6956 0.188022 48.0538 0.31337C48.4209 0.430362 48.7388 0.605848 49.0074 0.839831C49.276 1.07381 49.482 1.37047 49.6253 1.7298C49.7775 2.08078 49.8536 2.49025 49.8536 2.95822C49.8536 3.25069 49.8043 3.55571 49.7058 3.87326C49.6074 4.18245 49.4551 4.47493 49.2492 4.7507C49.0522 5.02646 48.797 5.25627 48.4836 5.44011C48.1702 5.62395 47.7896 5.72841 47.3419 5.75348L44.4945 5.75348V8.31058C44.4945 8.42757 44.4766 8.52785 44.4407 8.61142C44.4139 8.69498 44.3557 8.75766 44.2661 8.79944C44.1855 8.84958 44.0557 8.87465 43.8766 8.87465ZM49.6387 8.73677C49.4507 8.85376 49.2895 8.89136 49.1552 8.84958C49.0298 8.8078 48.9089 8.70752 48.7925 8.54875L46.6435 5.33983L47.9732 5.15181L49.8267 7.90947C49.9163 8.04317 49.97 8.15599 49.9879 8.24791C50.0148 8.33983 49.9969 8.4234 49.9342 8.49861C49.8805 8.57382 49.782 8.6532 49.6387 8.73677ZM44.4945 4.65042L47.1539 4.65042C47.3598 4.65042 47.5523 4.61699 47.7314 4.55014C47.9105 4.47493 48.0672 4.36629 48.2015 4.22423C48.3358 4.08217 48.4433 3.90669 48.5239 3.69777C48.6045 3.48886 48.6448 3.23816 48.6448 2.94568C48.6448 2.58635 48.5731 2.28134 48.4299 2.03064C48.2955 1.77994 48.0941 1.59192 47.8254 1.46657C47.5568 1.33287 47.2255 1.26602 46.8315 1.26602L44.4945 1.26602V4.65042Z" fill="#224332"/>
</svg>
