<svg width="3" height="80" viewBox="0 0 3 80" fill="none" xmlns="http://www.w3.org/2000/svg">
<g clip-path="url(#clip0_441_240)">
<path d="M3 46.9762L3 41.7566L3.57628e-06 41.7566L3.34812e-06 46.9762L3 46.9762Z" fill="#326149"/>
<path d="M3 31.7189L3 30.2133L3.57628e-06 30.2133L3.51046e-06 31.7189L3 31.7189Z" fill="#326149"/>
<path d="M3 28.7076L3 27.202L3.57628e-06 27.202L3.51046e-06 28.7076L3 28.7076Z" fill="#326149"/>
<path d="M3 25.6964L3 24.1907L3.57628e-06 24.1907L3.51046e-06 25.6964L3 25.6964Z" fill="#326149"/>
<path d="M3 22.6851L3 21.1794L3.57628e-06 21.1794L3.51046e-06 22.6851L3 22.6851Z" fill="#326149"/>
<path d="M3 73.9774L3 72.4718L3.57628e-06 72.4718L3.51046e-06 73.9774L3 73.9774Z" fill="#326149"/>
<path d="M3 77.0891L3 75.5834L3.57628e-06 75.5834L3.51046e-06 77.0891L3 77.0891Z" fill="#326149"/>
<path d="M3 80.1004L3 78.5947L3.57628e-06 78.5947L3.51046e-06 80.1004L3 80.1004Z" fill="#326149"/>
<path d="M3 70.9661L3 69.4605L3.57628e-06 69.4605L3.51046e-06 70.9661L3 70.9661Z" fill="#326149"/>
<path d="M3 67.9548L3 66.4492L3.57628e-06 66.4492L3.51046e-06 67.9548L3 67.9548Z" fill="#326149"/>
<path d="M3 64.9435L3 63.4379L3.57628e-06 63.4379L3.51046e-06 64.9435L3 64.9435Z" fill="#326149"/>
<path d="M3 18.67L3 17.1644L3.57628e-06 17.1644L3.51046e-06 18.67L3 18.67Z" fill="#326149"/>
<path d="M3 13.6512L3 12.1455L3.57628e-06 12.1455L3.51046e-06 13.6512L3 13.6512Z" fill="#326149"/>
<path d="M3 10.5395L3 9.03387L3.57628e-06 9.03387L3.51046e-06 10.5395L3 10.5395Z" fill="#326149"/>
<path d="M3 7.52823L3 6.02258L3.57628e-06 6.02258L3.51046e-06 7.52823L3 7.52823Z" fill="#326149"/>
<path d="M3 4.51694L3 3.01129L3.57628e-06 3.01129L3.51046e-06 4.51694L3 4.51694Z" fill="#326149"/>
<path d="M3 1.50565L3 0L3.57628e-06 -1.31134e-07L3.51046e-06 1.50565L3 1.50565Z" fill="#326149"/>
<path d="M3 18.67L3 17.1644L3.57628e-06 17.1644L3.51046e-06 18.67L3 18.67Z" fill="#326149"/>
<path d="M3 57.0138L3 51.7942L3.57628e-06 51.7942L3.34812e-06 57.0138L3 57.0138Z" fill="#326149"/>
</g>
<defs>
<clipPath id="clip0_441_240">
<rect width="80" height="3" fill="white" transform="translate(3) rotate(90)"/>
</clipPath>
</defs>
</svg>
