<svg width="55" height="65" viewBox="0 0 55 65" fill="none" xmlns="http://www.w3.org/2000/svg">
<path d="M26.4578 0.262048C26.7012 0.29312 26.9446 0.324063 27.1881 0.354887C27.7031 0.420315 28.2181 0.486504 28.7329 0.553336C29.9451 0.710643 31.1578 0.864076 32.3704 1.01786C32.7779 1.06958 33.1855 1.12145 33.593 1.17334C36.3066 1.51822 39.0229 1.83705 41.7404 2.1494C41.995 2.17868 42.2497 2.20802 42.5043 2.23737C42.8086 2.27238 43.1129 2.30719 43.4173 2.34175C43.5501 2.35698 43.6829 2.37222 43.8197 2.38791C43.9338 2.40088 44.0478 2.41385 44.1653 2.42721C44.5261 2.47369 44.8837 2.53275 45.2422 2.59519C44.8904 4.48672 44.3511 6.33408 43.5306 8.07682C43.3705 8.50638 43.342 8.67533 43.5069 9.0983C43.7036 9.37023 43.7036 9.37023 43.9562 9.62199C44.49 10.2011 44.9315 10.8177 45.3661 11.4744C45.4511 11.5864 45.5361 11.6983 45.6236 11.8136C45.903 12.2957 45.9228 12.5527 45.9123 13.1075C45.9106 13.1971 45.909 13.2866 45.9073 13.3789C45.8631 14.9178 45.6954 16.4534 45.5521 17.9854C45.5221 18.3131 45.4923 18.6408 45.4625 18.9685C45.3901 19.7638 45.3165 20.559 45.2422 21.3542C45.3688 21.4007 45.3688 21.4007 45.4981 21.4482C45.6648 21.5119 45.6648 21.5119 45.8348 21.5769C45.9448 21.6183 46.0548 21.6596 46.1682 21.7022C46.7988 22.0083 47.208 22.5877 47.4733 23.23C47.6369 24.7855 47.3616 26.4011 47.1828 27.9434C47.1324 28.3811 47.0849 28.8191 47.0375 29.2571C47.0054 29.54 46.9732 29.823 46.9407 30.1059C46.927 30.2345 46.9133 30.3631 46.8992 30.4956C46.7306 31.9029 46.3891 33.215 45.3661 34.2353C45.1601 34.3717 44.9535 34.5071 44.7464 34.6418C43.9105 35.2787 43.7568 36.2166 43.471 37.1854C43.1857 38.1393 42.7414 38.9931 42.2674 39.863C42.2002 39.9905 42.1331 40.118 42.064 40.2494C41.1389 41.9371 39.8496 43.8035 38.3506 45.0272C38.1057 45.3281 38.1141 45.5622 38.0908 45.9479C38.0766 46.1552 38.0766 46.1552 38.0622 46.3666C38.05 46.583 38.05 46.583 38.0375 46.8038C38.0195 47.0891 38.0011 47.3744 37.9823 47.6597C37.9713 47.8496 37.9713 47.8496 37.96 48.0434C37.9291 48.3671 37.9291 48.3671 37.8051 48.7422C37.971 48.6133 37.971 48.6133 38.1402 48.4819C38.2867 48.368 38.4333 48.2542 38.5798 48.1404C38.6525 48.0839 38.7252 48.0274 38.8001 47.9692C38.942 47.859 39.0844 47.7495 39.2274 47.6408C39.4335 47.4832 39.4335 47.4832 39.6702 47.2479C39.9123 47.1165 39.9123 47.1165 40.2338 47.1761C40.8209 47.441 41.3892 47.7352 41.9575 48.0388C42.0832 48.1054 42.2088 48.1721 42.3383 48.2408C43.4104 48.8115 44.4753 49.3953 45.538 49.9835C46.2743 50.3911 47.0133 50.7938 47.7522 51.1965C48.902 51.8239 50.0481 52.4576 51.188 53.1032C51.3698 53.2051 51.5524 53.3055 51.7355 53.4048C51.8837 53.4857 51.8837 53.4857 52.0348 53.5683C52.1246 53.6168 52.2145 53.6653 52.3071 53.7153C53.3447 54.3607 53.7604 55.6065 54.0427 56.7461C54.0836 59.4699 54.1245 62.1937 54.1667 65C36.2917 65 18.4167 65 0 65C0 55.6103 0 55.6103 1.43479 54.0241C1.96717 53.529 2.58687 53.2251 3.23048 52.9005C3.5192 52.7495 3.80777 52.5982 4.0962 52.4466C4.24072 52.3713 4.38524 52.296 4.53414 52.2184C5.17235 51.8802 5.79712 51.5196 6.42222 51.1574C7.4126 50.587 8.41331 50.0434 9.42646 49.5155C10.6313 48.8841 11.8086 48.204 12.9861 47.5224C13.1231 47.4453 13.1231 47.4453 13.2628 47.3666C13.3881 47.2905 13.3881 47.2905 13.516 47.213C13.8218 47.0913 13.9514 47.1212 14.2544 47.2415C14.539 47.4466 14.8114 47.6538 15.0833 47.8746C15.5055 48.2802 15.5055 48.2802 15.9897 48.4921C16.0943 46.4884 16.0943 46.4884 15.3869 44.7008C15.0281 44.3326 14.6305 44.0117 14.2319 43.6887C12.4173 42.0873 11.0293 39.1934 10.3567 36.8918C9.97424 35.5023 9.97424 35.5023 8.9545 34.5377C8.06545 33.9704 7.61139 33.0977 7.31312 32.1093C7.1967 31.5054 7.12536 30.8992 7.05747 30.2881C7.03732 30.1166 7.01702 29.9452 6.99658 29.7737C6.95544 29.4268 6.91521 29.0797 6.8756 28.7326C6.82249 28.2711 6.76379 27.8104 6.70353 27.3497C6.209 23.535 6.209 23.535 6.70886 22.6516C6.88123 22.4274 6.88123 22.4274 7.06522 22.2296C7.12338 22.1656 7.18154 22.1016 7.24146 22.0356C7.69095 21.6028 8.07769 21.5471 8.67658 21.4792C8.66727 21.4023 8.65795 21.3254 8.64835 21.2462C8.45198 19.6119 8.27253 17.9764 8.12043 16.3373C8.10409 16.162 8.0875 15.9867 8.07061 15.8114C7.74378 12.4022 7.74378 12.4022 8.30437 11.6495C8.35817 11.5866 8.41198 11.5237 8.46741 11.4588C8.55028 11.3524 8.55028 11.3524 8.63482 11.2439C8.80907 11.0241 8.9892 10.8112 9.17239 10.599C9.23197 10.5289 9.29154 10.4588 9.35293 10.3866C9.84024 9.81786 10.3248 9.2614 10.9184 8.80275C11.3484 8.41015 11.5287 8.04585 11.7599 7.51942C13.2137 4.41611 15.9818 1.85253 19.1727 0.653348C21.6386 -0.217694 23.9064 -0.0743915 26.4578 0.262048ZM14.9981 12.4749C14.286 14.5523 13.6734 16.6533 13.0768 18.767C12.9419 19.2431 12.8068 19.7192 12.6716 20.1954C12.5836 20.5058 12.4956 20.8162 12.4076 21.1266C11.9958 22.5798 11.577 24.0308 11.1556 25.4811C10.7666 25.388 10.4094 25.2612 10.04 25.1059C10.1225 25.9139 10.2064 26.7217 10.2912 27.5294C10.3199 27.8041 10.3483 28.0789 10.3763 28.3537C10.4167 28.749 10.4582 29.1441 10.5 29.5392C10.5123 29.6618 10.5246 29.7844 10.5372 29.9107C10.6132 30.7282 10.6132 30.7282 10.9077 31.484C11.1218 31.6154 11.3369 31.7457 11.5591 31.8625C12.2009 32.2082 12.7454 32.5386 12.9926 33.2563C13.1254 33.7608 13.2155 34.2745 13.3133 34.7869C13.8059 36.9583 15.0242 39.0003 16.3616 40.7384C16.4453 40.8485 16.529 40.9586 16.6153 41.0721C19.0447 44.1718 22.878 47.2627 26.8974 47.7418C29.9715 47.5609 33.1367 45.2488 35.2676 43.1672C35.4518 42.9878 35.6384 42.8113 35.8253 42.6348C38.0215 40.5282 39.9139 37.5523 40.5698 34.5406C40.9813 32.6757 40.9813 32.6757 41.6026 32.2202C41.9268 32.0197 42.258 31.8636 42.6063 31.7111C43.035 31.5256 43.035 31.5256 43.154 31.1404C43.253 30.7569 43.3171 30.3944 43.3602 30.0009C43.3755 29.8623 43.3909 29.7237 43.4067 29.5809C43.4219 29.4351 43.437 29.2893 43.4526 29.1391C43.4687 28.9897 43.4847 28.8403 43.5012 28.6864C43.6253 27.4942 43.7098 26.3036 43.7548 25.1059C43.4684 25.271 43.1821 25.4361 42.8871 25.6062C42.462 24.351 42.0583 23.0907 41.6771 21.8212C41.6374 21.6889 41.5977 21.5567 41.5567 21.4204C41.3926 20.8732 41.2288 20.3258 41.0657 19.7783C40.9447 19.3726 40.8229 18.9672 40.701 18.5618C40.6464 18.3771 40.6464 18.3771 40.5907 18.1888C40.4086 17.5853 40.2151 17.0294 39.9123 16.4768C39.8023 16.4794 39.6923 16.4821 39.5789 16.4848C36.8355 16.5409 34.1952 16.3977 31.4836 15.9766C31.3985 15.9636 31.3134 15.9505 31.2257 15.9371C26.5864 15.2249 22.0235 14.1447 17.474 12.9959C17.3367 12.9613 17.1993 12.9267 17.0577 12.8911C16.7986 12.8258 16.5396 12.7602 16.2808 12.694C16.1659 12.6651 16.051 12.6361 15.9326 12.6063C15.8324 12.5808 15.7322 12.5553 15.629 12.5291C15.3534 12.4622 15.3534 12.4622 14.9981 12.4749ZM19.5843 48.242C19.6671 48.765 19.7508 49.2879 19.8355 49.8106C19.8641 49.9882 19.8924 50.1659 19.9206 50.3437C19.9611 50.5999 20.0026 50.856 20.0443 51.112C20.0689 51.2659 20.0936 51.4198 20.119 51.5784C20.2419 52.1786 20.369 52.6004 20.8393 53.0006C20.916 53.0668 20.9928 53.133 21.0718 53.2013C21.1536 53.2697 21.2354 53.3381 21.3196 53.4085C21.4036 53.4803 21.4876 53.5521 21.5742 53.626C22.127 54.0964 22.687 54.5576 23.2549 55.0094C23.8142 55.4555 24.3631 55.9146 24.9142 56.3709C25.1569 56.5715 25.3996 56.7722 25.6424 56.9727C25.7495 57.0612 25.8565 57.1497 25.9668 57.2409C26.2756 57.4947 26.5861 57.7461 26.8974 57.9967C27.383 57.7901 27.7515 57.4584 28.1447 57.1134C28.2894 56.9881 28.4341 56.8629 28.579 56.7378C28.6509 56.6755 28.7228 56.6133 28.7969 56.5491C29.0898 56.2977 29.3878 56.0527 29.6863 55.8081C30.2595 55.3375 30.8236 54.8571 31.3862 54.3738C31.9004 53.9335 32.4244 53.5073 32.956 53.0885C33.5 52.6347 33.7677 52.358 33.8944 51.6396C33.9202 51.4985 33.946 51.3573 33.9725 51.2119C33.9974 51.065 34.0222 50.918 34.0478 50.7666C34.0741 50.6211 34.1004 50.4757 34.1275 50.3258C34.2514 49.6329 34.3665 48.9399 34.4584 48.242C34.0244 48.4007 33.6926 48.5845 33.3274 48.8673C31.3107 50.3167 28.8075 51.5742 26.2777 51.3685C25.0388 51.135 23.9251 50.6944 22.807 50.1179C22.6715 50.0494 22.536 49.9809 22.3964 49.9103C21.5742 49.4808 20.8311 49.0008 20.098 48.4301C19.8525 48.2181 19.8525 48.2181 19.5843 48.242Z" fill="#B8D900"/>
</svg>
