<svg width="65" height="65" viewBox="0 0 65 65" fill="none" xmlns="http://www.w3.org/2000/svg">
<path d="M2.69775 31.7954C2.69775 39.6995 5.83762 47.2798 11.4266 52.8688C17.0156 58.4578 24.596 61.5977 32.5 61.5977C40.404 61.5977 47.9844 58.4578 53.5734 52.8688C59.1624 47.2798 62.3022 39.6995 62.3022 31.7954C62.3022 23.8914 59.1624 16.311 53.5734 10.722C47.9844 5.13303 40.404 1.99316 32.5 1.99316C24.596 1.99316 17.0156 5.13303 11.4266 10.722C5.83762 16.311 2.69775 23.8914 2.69775 31.7954Z" fill="#B8D900"/>
<path d="M32.5 18.2432C33.9346 18.2432 35.1025 19.4048 35.1025 20.8457V31.8018C35.1025 33.2363 33.9409 34.4043 32.5 34.4043C31.0654 34.4043 29.8975 33.2427 29.8975 31.8018V20.8394C29.8975 19.4048 31.0654 18.2432 32.5 18.2432Z" fill="#224332"/>
<path d="M50.1339 42.0977C49.4166 43.3418 47.8233 43.7671 46.5855 43.0498L31.2432 34.1885C29.9991 33.4712 29.5738 31.8779 30.2911 30.6402C31.0084 29.396 32.6016 28.9707 33.8394 29.688L49.1817 38.543C50.4259 39.2603 50.8512 40.8535 50.1339 42.0977Z" fill="#224332"/>
</svg>
