<svg width="56" height="65" viewBox="0 0 56 65" fill="none" xmlns="http://www.w3.org/2000/svg">
<path d="M23.2729 0C26.152 0 29.0312 0 31.9975 0C32.0354 3.56103 32.0733 7.12205 32.1123 10.791C33.0694 9.79653 33.0694 9.79653 33.2733 8.71042C33.2756 8.56342 33.2778 8.41642 33.2801 8.26497C33.2773 8.10922 33.2745 7.95347 33.2715 7.79773C33.2722 7.63481 33.2733 7.47189 33.2748 7.30897C33.2776 6.88445 33.2743 6.46019 33.2697 6.03569C33.266 5.60083 33.2682 5.16601 33.27 4.73115C33.2724 3.88108 33.2685 3.0312 33.2603 2.18116C33.4794 2.25254 33.6984 2.32435 33.9173 2.39635C34.1002 2.45626 34.1002 2.45626 34.2868 2.51739C34.7493 2.67937 35.1763 2.88089 35.6065 3.11389C35.7304 3.18051 35.7304 3.18051 35.8568 3.24847C39.5898 5.31341 42.3417 9.08786 43.5176 13.1494C43.7422 13.9991 43.8931 14.8632 44.0513 15.7273C45.0363 15.7273 46.0212 15.7273 47.036 15.7273C47.0739 17.3942 47.1118 19.061 47.1508 20.7784C46.0143 20.7784 44.8778 20.7784 43.7069 20.7784C43.7069 21.1572 43.7069 21.5361 43.7069 21.9264C43.6715 22.1612 43.6338 22.3957 43.5921 22.6295C43.5439 23.1292 43.5439 23.1292 43.7728 23.5591C43.936 23.7108 44.1024 23.8593 44.2715 24.0044C44.7548 24.4451 44.9395 24.9422 45.0016 25.5877C45.021 26.8945 44.8192 28.1551 44.6025 29.4413C44.5391 29.8193 44.4785 30.1976 44.4181 30.5761C44.3779 30.8205 44.3376 31.0649 44.297 31.3093C44.2793 31.4204 44.2616 31.5315 44.2433 31.646C43.9878 33.1357 43.4886 34.3542 42.3293 35.3577C42.2172 35.4182 42.1051 35.4786 41.9897 35.5409C41.5303 35.9041 41.4655 36.2013 41.3383 36.7555C41.3032 36.8936 41.3032 36.8936 41.2673 37.0345C41.1931 37.3288 41.1226 37.6239 41.0522 37.9191C41.0042 38.1127 40.9559 38.3062 40.9074 38.4996C40.7459 39.1457 40.5849 39.7919 40.4305 40.4397C40.3734 40.6791 40.3143 40.9179 40.2549 41.1568C40.2223 41.2916 40.1898 41.4265 40.1562 41.5654C39.9674 42.0817 39.7158 42.2415 39.2298 42.4752C39.3896 43.3201 39.6652 44.0771 39.9903 44.8716C40.0856 45.1054 40.1804 45.3395 40.2746 45.5738C40.3165 45.6761 40.3583 45.7783 40.4014 45.8836C40.4926 46.1487 40.4926 46.1487 40.4926 46.4931C40.5755 46.5248 40.6585 46.5565 40.7439 46.5891C41.0542 46.7176 41.3419 46.8624 41.6365 47.0231C41.7459 47.0826 41.8553 47.1421 41.968 47.2033C42.0849 47.2673 42.2017 47.3312 42.3222 47.3971C42.4449 47.464 42.5676 47.5308 42.694 47.5997C42.948 47.738 43.2018 47.8765 43.4556 48.0151C43.7861 48.1956 44.1168 48.3756 44.4477 48.5554C45.0815 48.9 45.7145 49.2461 46.3473 49.5926C46.5466 49.7018 46.5466 49.7018 46.7501 49.8131C47.5351 50.243 48.3188 50.675 49.1007 51.1106C49.5003 51.333 49.9022 51.5506 50.306 51.7653C50.4812 51.8613 50.6564 51.9574 50.8315 52.0536C50.9079 52.0926 50.9844 52.1316 51.0631 52.1718C51.9396 52.6644 52.1271 53.6851 52.387 54.5934C52.4208 54.7145 52.4546 54.8356 52.4894 54.9603C52.5261 55.0896 52.5629 55.2189 52.6007 55.352C52.7196 55.771 52.8375 56.1903 52.9553 56.6096C53.0371 56.8986 53.1189 57.1875 53.2008 57.4763C53.4046 58.1957 53.6076 58.9154 53.8101 59.6351C53.9802 60.2391 54.1507 60.843 54.3212 61.4469C54.4881 62.0379 54.6548 62.6289 54.8208 63.2202C54.8451 63.3068 54.8694 63.3933 54.8945 63.4825C54.9587 63.7111 55.0228 63.9397 55.0869 64.1683C55.1535 64.4006 55.2251 64.6315 55.3015 64.8607C55.1084 65.0538 54.8707 64.9896 54.613 64.9904C54.5303 64.99 54.4475 64.9897 54.3623 64.9893C54.275 64.9894 54.1877 64.9895 54.0977 64.9896C53.803 64.9898 53.5083 64.9892 53.2136 64.9886C53.0032 64.9885 52.7928 64.9886 52.5824 64.9886C52.0094 64.9887 51.4364 64.988 50.8634 64.9872C50.2652 64.9865 49.6671 64.9864 49.069 64.9863C47.9354 64.9859 46.8019 64.985 45.6684 64.9838C44.3783 64.9825 43.0882 64.9819 41.7981 64.9813C39.1435 64.9801 36.4889 64.9781 33.8343 64.9755C33.3328 63.1052 33.3328 63.1052 33.1169 62.2318C33.095 62.1436 33.0731 62.0555 33.0506 61.9646C32.8534 61.1658 32.6632 60.3653 32.4756 59.5642C32.3502 59.0295 32.2223 58.4957 32.0884 57.9631C31.9576 57.4421 31.8335 56.9199 31.7139 56.3962C31.6677 56.1991 31.6192 56.0024 31.5682 55.8064C31.3242 54.8639 31.1432 54.1107 31.638 53.227C31.8573 52.8832 32.0982 52.56 32.3419 52.233C32.4695 52.0097 32.5938 51.7844 32.7119 51.5559C32.766 51.4523 32.8201 51.3488 32.8759 51.2422C32.9293 51.1382 32.9828 51.0343 33.0379 50.9272C33.0963 50.8141 33.1547 50.7011 33.2149 50.5846C34.1328 48.7984 34.9259 46.9803 35.6711 45.1155C35.3626 45.2601 35.1049 45.4153 34.8428 45.6326C34.7742 45.6887 34.7056 45.7449 34.6349 45.8028C34.5625 45.8625 34.4901 45.9222 34.4155 45.9837C33.8484 46.4434 33.2769 46.8918 32.6791 47.311C32.5642 47.3918 32.4492 47.4726 32.3307 47.5559C31.7139 47.9262 31.1357 48.0269 30.4262 48.0572C30.3363 48.0615 30.2463 48.0658 30.1536 48.0702C29.1257 48.1114 28.097 48.1125 27.0684 48.1146C26.982 48.1149 26.8956 48.1152 26.8065 48.1155C24.4629 48.1219 23.2487 47.9103 21.4192 46.4339C21.0742 46.1575 20.7245 45.8874 20.3743 45.6178C20.2798 45.5445 20.2798 45.5445 20.1834 45.4697C19.849 45.212 19.849 45.212 19.4846 45.0007C20.8376 48.3109 20.8376 48.3109 22.4334 51.5083C22.4858 51.6053 22.5382 51.7022 22.5922 51.8021C22.8745 52.3135 23.1746 52.7317 23.5599 53.1729C23.9662 53.8238 23.7971 54.3502 23.637 55.0554C23.6106 55.1792 23.5841 55.303 23.5569 55.4305C23.4812 55.781 23.4035 56.1309 23.3246 56.4806C23.2712 56.7175 23.2185 56.9545 23.1658 57.1915C22.9117 58.3351 22.6511 59.4772 22.3887 60.6189C22.3036 60.99 22.2189 61.3613 22.1343 61.7326C22.0524 62.0916 21.9702 62.4505 21.8879 62.8094C21.8488 62.98 21.8098 63.1506 21.7709 63.3212C21.7171 63.5568 21.6629 63.7923 21.6087 64.0278C21.578 64.1613 21.5474 64.2949 21.5158 64.4326C21.4361 64.7459 21.4361 64.7459 21.3213 64.9755C14.3129 64.9755 7.30454 64.9755 0.083758 64.9755C-0.0317094 64.5137 -0.0288842 64.4033 0.0990326 63.9721C0.13069 63.8633 0.162348 63.7545 0.194965 63.6424C0.23063 63.5242 0.266294 63.4059 0.30304 63.2841C0.339592 63.1594 0.376145 63.0347 0.413805 62.9063C0.534544 62.4955 0.656971 62.0853 0.779719 61.6751C0.950729 61.1017 1.12139 60.5281 1.29183 59.9545C1.31351 59.8817 1.33519 59.809 1.35753 59.7341C1.66826 58.6908 1.95784 57.6434 2.23353 56.5904C2.33388 56.2162 2.43476 55.8421 2.5359 55.4681C2.59867 55.2314 2.65944 54.9942 2.71811 54.7564C3.2294 52.6904 3.2294 52.6904 4.10482 52.137C4.36891 52.0101 4.6359 51.8891 4.90526 51.7738C5.1066 51.6659 5.30793 51.5581 5.50769 51.4473C5.78244 51.2956 6.06047 51.1506 6.33848 51.005C6.71703 50.8066 7.0946 50.6065 7.47207 50.4061C7.54742 50.3661 7.62277 50.3261 7.70041 50.2849C8.4736 49.873 9.2348 49.441 9.99479 49.0054C10.6084 48.6553 11.2266 48.3158 11.851 47.9855C11.9243 47.9466 11.9977 47.9077 12.0733 47.8676C12.4332 47.677 12.7937 47.4874 13.1551 47.2993C13.285 47.2308 13.4149 47.1623 13.5487 47.0918C13.6642 47.0315 13.7796 46.9713 13.8986 46.9092C14.5054 46.5385 14.735 46.1684 14.9841 45.5066C15.0115 45.4344 15.0389 45.3622 15.0671 45.2879C15.1244 45.1361 15.1811 44.984 15.2372 44.8317C15.3231 44.5991 15.4111 44.3674 15.4994 44.1357C15.8182 43.3285 15.8182 43.3285 15.9258 42.4752C15.8215 42.4212 15.7172 42.3671 15.6097 42.3115C15.0964 42 15.035 41.4886 14.891 40.9374C14.856 40.7937 14.8211 40.6501 14.785 40.5021C14.7461 40.3529 14.7068 40.2037 14.6672 40.0547C14.4753 39.3273 14.2971 38.5974 14.1259 37.8649C13.75 36.1639 13.75 36.1639 12.5573 34.9842C11.6227 34.3698 11.3543 33.4018 11.1043 32.373C11.0148 31.9298 10.9409 31.4849 10.8698 31.0384C10.84 30.8545 10.84 30.8545 10.8095 30.6669C10.768 30.4095 10.7268 30.1522 10.686 29.8947C10.6238 29.5039 10.5597 29.1133 10.4956 28.7228C10.4552 28.4711 10.4149 28.2193 10.3748 27.9676C10.3557 27.8525 10.3367 27.7375 10.3171 27.6189C10.1386 26.4745 9.96847 25.2373 10.6452 24.2223C10.8039 24.1051 10.9629 23.9884 11.1223 23.8721C11.4219 23.6197 11.548 23.4945 11.6274 23.107C11.6281 22.7477 11.6028 22.4057 11.5635 22.0483C11.5257 21.6293 11.4878 21.2102 11.4487 20.7784C10.3501 20.7784 9.25151 20.7784 8.1196 20.7784C8.1196 19.1115 8.1196 17.4447 8.1196 15.7273C9.10457 15.7273 10.0895 15.7273 11.1043 15.7273C11.218 15.12 11.218 15.12 11.3339 14.5004C12.0108 11.1355 13.5572 8.31089 15.9258 5.85469C16.0093 5.76397 16.0928 5.67326 16.1788 5.5798C16.8917 4.82591 17.7074 4.24765 18.5662 3.67353C18.6645 3.60708 18.7627 3.54064 18.864 3.47218C19.8067 2.87043 20.9089 2.38589 22.0101 2.18116C22.0088 2.31756 22.0088 2.31756 22.0075 2.45671C22.0004 3.318 21.9982 4.17909 22.0015 5.04039C22.003 5.48311 22.0027 5.92566 21.9979 6.36836C21.9934 6.79645 21.994 7.22426 21.998 7.65235C21.9986 7.81481 21.9975 7.9773 21.9944 8.13973C21.9905 8.36903 21.9937 8.59841 21.9971 8.82771C21.9968 8.95772 21.9966 9.08773 21.9963 9.22168C22.151 9.83463 22.151 9.83463 23.1581 10.791C23.2149 5.44945 23.2149 5.44945 23.2729 0ZM15.1223 20.7784C15.1223 21.679 15.127 22.55 15.1976 23.443C15.2052 23.546 15.2129 23.649 15.2208 23.7551C15.2448 24.0783 15.2696 24.4014 15.2945 24.7246C15.3193 25.0502 15.3439 25.3758 15.3682 25.7014C15.3832 25.9024 15.3985 26.1034 15.4142 26.3044C15.421 26.396 15.4279 26.4877 15.435 26.5821C15.4412 26.6615 15.4473 26.7409 15.4536 26.8226C15.4709 27.18 15.4667 27.5381 15.4667 27.8959C14.6711 27.2708 14.6711 27.2708 13.8595 26.6331C13.7458 26.6899 13.7458 26.6899 13.6299 26.7479C13.7527 27.4897 13.8774 28.2312 14.0034 28.9725C14.046 29.2246 14.0882 29.4768 14.1299 29.7291C14.1901 30.0921 14.2518 30.4547 14.3137 30.8174C14.3412 30.9862 14.3412 30.9862 14.3692 31.1584C14.5006 31.9147 14.6108 32.3929 15.2514 32.8694C15.319 32.9163 15.3866 32.9633 15.4562 33.0116C16.7184 33.9216 16.9362 35.0982 17.2532 36.5559C17.3329 36.9015 17.4143 37.2466 17.4979 37.5913C17.549 37.8041 17.5977 38.0175 17.6436 38.2314C17.7865 38.8494 17.9411 39.1927 18.4514 39.6052C18.5177 39.66 18.584 39.7149 18.6524 39.7713C18.7132 39.8158 18.774 39.8603 18.8366 39.9061C18.907 39.9582 18.9774 40.0102 19.0499 40.0638C19.1247 40.1185 19.1995 40.1731 19.2765 40.2294C19.9723 40.7445 20.6606 41.2679 21.3429 41.8007C21.4294 41.8683 21.516 41.9358 21.6052 42.0054C21.7749 42.1378 21.9445 42.2702 22.1142 42.4026C22.4686 42.6789 22.8238 42.9541 23.1796 43.2285C23.2902 43.3139 23.4007 43.3993 23.5146 43.4873C23.6243 43.57 23.7339 43.6527 23.8469 43.7379C23.9594 43.8363 24.0719 43.9347 24.1878 44.0361C24.7415 44.4279 25.2987 44.3926 25.9563 44.3841C26.1428 44.3846 26.1428 44.3846 26.3332 44.385C26.5952 44.3849 26.8573 44.3833 27.1193 44.3805C27.5192 44.3765 27.9188 44.3781 28.3186 44.3803C28.5739 44.3795 28.8292 44.3784 29.0845 44.377C29.2629 44.3778 29.2629 44.3778 29.4448 44.3787C30.1711 44.3669 30.5987 44.274 31.194 43.8527C31.2764 43.7947 31.3589 43.7366 31.4439 43.6768C31.5138 43.6213 31.5838 43.5659 31.6558 43.5088C31.7364 43.4455 31.817 43.3821 31.9 43.3168C31.9843 43.2498 32.0686 43.1828 32.1554 43.1137C32.339 42.9693 32.5227 42.8249 32.7065 42.6806C32.7989 42.6078 32.8914 42.535 32.9866 42.46C33.4028 42.1339 33.8229 41.813 34.2433 41.4922C34.3221 41.4316 34.4009 41.371 34.4821 41.3085C34.9022 40.9859 35.3258 40.6697 35.7558 40.3604C35.8449 40.2952 35.934 40.23 36.0257 40.1629C36.1954 40.0389 36.3663 39.9165 36.5386 39.7962C36.6154 39.7396 36.6923 39.6829 36.7715 39.6245C36.839 39.5763 36.9066 39.5281 36.9762 39.4784C37.4674 38.9077 37.5901 38.0534 37.7522 37.3348C37.798 37.1437 37.8439 36.9526 37.8901 36.7615C37.9614 36.4652 38.0315 36.1689 38.0977 35.8714C38.4178 34.4424 38.7549 33.6533 40.0095 32.8084C40.6489 32.3322 40.7701 31.8755 40.8867 31.1062C40.906 30.9964 40.9252 30.8866 40.9451 30.7735C41.0054 30.4246 41.0611 30.0751 41.1168 29.7254C41.1571 29.49 41.1977 29.2547 41.2385 29.0194C41.3121 28.5882 41.3852 28.1569 41.4542 27.725C41.475 27.5954 41.475 27.5954 41.4963 27.4632C41.5283 27.1845 41.5307 26.9134 41.5257 26.6331C40.8568 27.0698 40.2088 27.5254 39.5742 28.0107C39.5958 27.835 39.5958 27.835 39.6179 27.6559C39.7549 26.527 39.8716 25.3977 39.9682 24.2646C39.9905 24.0047 40.0137 23.7449 40.037 23.4851C40.0517 23.315 40.0663 23.1449 40.0809 22.9748C40.0939 22.8255 40.1068 22.6762 40.1202 22.5224C40.1539 21.942 40.1482 21.3598 40.1482 20.7784C31.8896 20.7784 23.6311 20.7784 15.1223 20.7784Z" fill="#B8D900"/>
<path d="M29.7015 49.8223C29.714 50.4156 29.7123 51.0031 29.6566 51.5943C29.5163 53.2113 29.7512 54.6145 30.1279 56.1841C30.185 56.4323 30.2418 56.6805 30.2983 56.9288C30.446 57.5743 30.5973 58.2188 30.7496 58.8631C30.9048 59.523 31.0568 60.1837 31.2089 60.8444C31.3795 61.5854 31.5505 62.3263 31.7242 63.0665C31.7503 63.1781 31.7765 63.2896 31.8034 63.4046C31.8523 63.6132 31.9014 63.8217 31.9507 64.0302C32.1122 64.7204 32.1122 64.7204 32.1122 64.9756C29.1195 64.9756 26.1267 64.9756 23.0432 64.9756C23.5713 62.335 23.5713 62.335 23.8695 61.0692C23.959 60.6879 24.048 60.3065 24.1363 59.9249C24.3269 59.1012 24.5179 58.2775 24.7111 57.4544C24.8305 56.9459 24.9484 56.4371 25.0655 55.928C25.1099 55.7364 25.1547 55.5449 25.2001 55.3535C25.439 54.3448 25.639 53.3918 25.5688 52.3478C25.5653 52.2275 25.5618 52.1071 25.5582 51.9832C25.5534 51.8888 25.5486 51.7944 25.5437 51.6971C25.5385 51.5924 25.5333 51.4878 25.528 51.3799C25.5225 51.2755 25.517 51.1711 25.5114 51.0635C25.5059 50.9542 25.5004 50.8449 25.4948 50.7324C25.4815 50.4672 25.4678 50.2021 25.454 49.9371C26.0404 49.9207 26.6269 49.9043 27.2133 49.888C27.413 49.8825 27.6127 49.8769 27.8123 49.8713C28.0987 49.8633 28.3851 49.8553 28.6714 49.8474C28.7612 49.8449 28.8511 49.8424 28.9436 49.8398C29.5736 49.8223 29.5736 49.8223 29.7015 49.8223Z" fill="#B8D900"/>
</svg>
