<svg width="44" height="28" viewBox="0 0 44 28" fill="none" xmlns="http://www.w3.org/2000/svg">
<path d="M22.0366 0.249268C9.53158 0.249268 0.775879 14.0001 0.775879 14.0001C0.775879 14.0001 7.15387 27.7509 22.0366 27.7509C37.0437 27.7509 43.2974 14.0001 43.2974 14.0001C43.2974 14.0001 34.6683 0.249268 22.0366 0.249268ZM22.0366 22.7493C17.1593 22.7493 13.2833 18.8751 13.2833 14.0001C13.2833 9.12507 17.1593 5.25087 22.0366 5.25087C26.9139 5.25087 30.7899 9.12507 30.7899 14.0001C30.7899 18.8751 26.9139 22.7493 22.0366 22.7493Z" fill="#B8D900"/>
<path d="M25.7882 14C25.7882 16.0719 24.1093 17.75 22.0364 17.75C19.9636 17.75 18.2847 16.0719 18.2847 14C18.2847 11.9281 19.9636 10.25 22.0364 10.25C24.1093 10.25 25.7882 11.9281 25.7882 14Z" fill="#B8D900"/>
</svg>
