<svg width="29" height="50" viewBox="0 0 29 50" fill="none" xmlns="http://www.w3.org/2000/svg">
<g clip-path="url(#clip0_265_513)">
<path d="M26.8286 28.5257L26.7414 28.7386C26.6906 28.8806 26.6252 29.0225 26.5598 29.1644C26.3127 29.725 26.022 30.2644 25.7096 30.7966C25.0701 31.8469 24.3289 32.8475 23.5005 33.77C22.6721 34.6997 21.7637 35.5512 20.7973 36.346C20.5647 36.5518 20.3104 36.7363 20.0633 36.9279L19.6927 37.2118C19.5692 37.3041 19.4384 37.3963 19.3149 37.4886L18.9297 37.7582C18.7989 37.8505 18.6754 37.9427 18.5446 38.0279L17.7598 38.5459C17.6944 38.5885 17.629 38.6311 17.5636 38.6737L17.3601 38.7943L16.9532 39.0356C16.6843 39.1988 16.4155 39.362 16.1393 39.511L15.3109 39.9652C15.1729 40.0433 15.0348 40.1071 14.8895 40.1781L14.468 40.391L14.0465 40.6039C13.9738 40.6394 13.9084 40.6749 13.8358 40.7103L13.625 40.8097L12.7676 41.2C12.4842 41.3348 12.1935 41.4555 11.9028 41.5761L11.0308 41.938C9.43943 42.5767 7.81896 43.1231 6.17669 43.6057C8.34943 45.8127 11.0308 47.7145 14.0756 49.2119C22.8901 44.8902 28.1439 37.524 28.1439 29.505V21.3938C23.9002 23.8847 19.0315 25.2046 14.0538 25.2046C9.09063 25.2046 4.22921 23.8918 0 21.4151V29.5121C0 30.0586 0.0290668 30.605 0.0726669 31.1443C2.42708 31.3714 4.78875 31.4921 7.15042 31.4282L8.07329 31.3927C8.3785 31.3785 8.69096 31.3714 8.99616 31.343C9.60657 31.2934 10.2242 31.2579 10.8346 31.1798C11.1398 31.1443 11.445 31.1159 11.7502 31.0734L12.6658 30.9385C12.8184 30.9172 12.971 30.896 13.1236 30.8676L13.5742 30.7824L14.032 30.6973C14.1846 30.6689 14.3372 30.6405 14.4825 30.605L15.3836 30.3992C15.5362 30.3708 15.6815 30.3282 15.8341 30.2857L16.2774 30.165C16.4227 30.1224 16.5753 30.087 16.7207 30.0444L17.1639 29.9095C17.4546 29.8173 17.7525 29.7321 18.0432 29.6257C19.2131 29.2283 20.354 28.7528 21.444 28.1851C22.5413 27.6174 23.5877 26.9574 24.5614 26.2052C25.041 25.822 25.5134 25.4175 25.9494 24.9846C26.0584 24.8711 26.1674 24.7646 26.2691 24.6511L26.429 24.4808L26.5816 24.3033C26.785 24.0692 26.974 23.8279 27.1484 23.5724C26.9958 23.8421 26.8214 24.0976 26.6397 24.3459L26.5016 24.5304L26.3563 24.7149C26.2618 24.8356 26.1601 24.9562 26.0584 25.0698C25.6514 25.5381 25.2082 25.9781 24.7504 26.4039C23.8202 27.2413 22.8029 27.9864 21.7274 28.6464C20.6519 29.3063 19.5183 29.8741 18.3484 30.3708C18.0577 30.5056 17.7598 30.6121 17.4691 30.7256L17.0259 30.896C16.8733 30.9527 16.7279 31.0024 16.5753 31.0521L16.1248 31.2082C15.9722 31.2579 15.8269 31.3146 15.6743 31.3572L14.7587 31.634C14.6061 31.6837 14.4535 31.7191 14.3008 31.7617L13.8358 31.8824L13.3707 32.003C13.2181 32.0456 13.0582 32.074 12.9056 32.1094L11.9755 32.3152C11.663 32.3791 11.3506 32.4359 11.0381 32.4927C10.4132 32.6204 9.78097 32.6985 9.14876 32.7978C8.8363 32.8475 8.51656 32.883 8.19683 32.9184L7.24489 33.0249C4.96315 33.2449 2.67414 33.3087 0.385135 33.2591C0.937403 35.8777 2.07101 38.4182 3.74235 40.7529C4.02575 41.1503 4.33095 41.5477 4.64342 41.9309C6.60542 41.5406 8.54563 41.0581 10.4495 40.4478L11.3142 40.1568C11.6049 40.0575 11.8956 39.9652 12.179 39.8588L13.0364 39.5394L13.2472 39.4614C13.3198 39.433 13.3852 39.4046 13.4579 39.3762L13.8794 39.1988L14.3008 39.0214C14.4389 38.9646 14.5843 38.9079 14.7223 38.844L15.5507 38.4608C15.8269 38.3401 16.0957 38.1982 16.3719 38.0563L16.7788 37.8505L16.9823 37.744C17.0477 37.7085 17.1131 37.6731 17.1785 37.6376L17.9778 37.1976C18.1159 37.1266 18.2394 37.0415 18.3702 36.9634L18.7626 36.7292C18.8934 36.6512 19.0242 36.5731 19.1477 36.488L19.5256 36.2396C19.7799 36.0693 20.0343 35.906 20.2741 35.7286C21.2623 35.0261 22.207 34.2597 23.079 33.4152C23.951 32.5707 24.7504 31.6553 25.4552 30.6618C25.804 30.165 26.1238 29.647 26.4144 29.1147C26.4871 28.9799 26.5598 28.8451 26.6252 28.7102L26.7269 28.5045L26.8214 28.2987C26.9449 28.0219 27.0539 27.738 27.1411 27.4471C27.0757 27.7451 26.9885 28.0361 26.8868 28.3199L26.8286 28.5257Z" fill="white"/>
<g clip-path="url(#clip1_265_513)">
<path d="M10.7888 16.9034C11.8166 18.4247 13.9296 18.8503 15.4965 17.8455C16.2583 17.364 16.7758 16.6173 16.9555 15.752C17.1424 14.8868 16.9627 14.0075 16.4668 13.2678C16.1936 12.8631 15.8343 12.5282 15.4102 12.27L15.9205 11.4675L13.5775 12.8212C13.7212 12.8212 13.865 12.8352 14.0015 12.8631C14.5837 12.9817 15.0796 13.3097 15.4102 13.7912C15.7337 14.2727 15.8486 14.8449 15.7265 15.4101C15.6043 15.9753 15.2665 16.4568 14.7706 16.7778C14.3968 17.0151 13.9728 17.1337 13.5559 17.1337C12.83 17.1337 12.1256 16.7918 11.6944 16.1638C11.2344 15.4869 11.22 14.6425 11.5866 13.9726L9.25073 15.3264L10.221 15.2706C10.2713 15.8567 10.4654 16.415 10.7888 16.9034Z" fill="white"/>
<path d="M18.0981 12.2351C17.6669 11.5931 17.1063 11.0697 16.4451 10.672L15.9348 11.4745C16.4594 11.7885 16.9266 12.2211 17.2932 12.7515C18.6228 14.7123 18.0622 17.3431 16.0426 18.627C14.023 19.918 11.3134 19.3737 9.9909 17.4128C9.55248 16.7639 9.32249 16.0451 9.27936 15.3264L8.30908 15.3822C8.35939 16.2894 8.66126 17.1686 9.17874 17.9292C10.2065 19.4435 11.9099 20.2669 13.6492 20.2669C14.6554 20.2669 15.676 19.9947 16.5744 19.4156C17.7675 18.6549 18.5797 17.4896 18.8672 16.1289C19.1547 14.7821 18.8816 13.3934 18.0981 12.2351Z" fill="white"/>
<path d="M12.3844 13.2469C12.1041 13.4214 11.8885 13.6516 11.7231 13.9098L13.4625 12.905C13.0815 12.9189 12.715 13.0376 12.3844 13.2469Z" fill="white"/>
<path d="M12.3628 13.219C12.7222 12.9887 13.1247 12.8771 13.5272 12.8701L13.5918 12.8352C13.1534 12.8282 12.7222 12.9538 12.3484 13.1911C12.025 13.4004 11.7735 13.6726 11.6082 13.9866L11.6657 13.9517C11.8238 13.6586 12.061 13.4074 12.3628 13.219Z" fill="white"/>
<path d="M21.8067 2.10285C22.6476 3.5543 23.2944 5.25696 23.2585 6.94566C23.2154 8.80882 22.0007 10.2184 20.4267 11.1674C18.5436 12.2979 16.4162 12.905 14.4325 13.8261C12.8657 14.5588 11.1839 15.2147 9.81111 16.2754C8.04304 17.6431 6.63434 20.2669 8.03585 22.3533C8.03585 22.3464 8.02867 22.3464 8.02867 22.3394C8.02867 22.3324 8.02148 22.3254 8.01429 22.3184C7.69087 21.7811 7.30994 21.0763 6.94339 20.3018V20.2948C6.61277 19.604 6.31091 18.9201 6.36841 18.1455C6.4834 16.4847 7.7268 15.3473 9.03489 14.4262C10.573 13.3376 12.1901 12.3886 13.8863 11.5512C15.5825 10.7069 17.3218 9.90438 18.8527 8.78788C19.1258 8.58552 19.3917 8.38315 19.6505 8.15985C20.5848 7.35737 21.3826 6.3595 21.7851 5.20811C22.1157 4.22419 22.1588 3.10072 21.8067 2.10285Z" fill="white"/>
<path d="M11.0545 12.1723C8.63234 13.861 6.77802 15.1519 6.32523 17.0988C5.99461 18.5293 6.74209 19.897 7.37457 21.1461C6.23179 19.0318 5.24713 16.8685 5.04589 14.4611C4.83746 11.9211 5.98024 9.46476 7.36019 8.32733C7.35301 8.32035 8.02142 13.1841 11.0545 12.1723Z" fill="white"/>
</g>
</g>
<defs>
<clipPath id="clip0_265_513">
<rect width="28.1439" height="48.8307" fill="white" transform="translate(0 0.388321)"/>
</clipPath>
<clipPath id="clip1_265_513">
<rect width="18.306" height="20.2854" fill="white" transform="translate(4.9812 2.08889)"/>
</clipPath>
</defs>
</svg>
