<svg width="1978" height="1629" viewBox="0 0 1978 1629" fill="none" xmlns="http://www.w3.org/2000/svg">
<g opacity="0.07">
<path d="M883.826 1104.56L799.011 1257.96L857.33 1316.94L974.54 1201.11L883.826 1104.56Z" stroke="#224332" stroke-width="50" stroke-miterlimit="1.5" stroke-linecap="round" stroke-linejoin="round"/>
<path d="M1149.85 1020.15L1042.52 1150.42L1201.5 1324.84L1298.4 1229.07L1181.74 1126.23L1149.85 1020.15Z" stroke="#224332" stroke-width="50" stroke-miterlimit="1.5" stroke-linecap="round" stroke-linejoin="round"/>
<path fill-rule="evenodd" clip-rule="evenodd" d="M1280.28 182.828L1425.59 39.2188L1712.09 322.352L1664.99 368.897L1499.83 205.674L1402.84 301.519L1280.28 182.828Z" stroke="#224332" stroke-width="50" stroke-miterlimit="1.5" stroke-linecap="round" stroke-linejoin="round"/>
<path fill-rule="evenodd" clip-rule="evenodd" d="M94.8926 182.828L240.202 39.2188L526.71 322.352L479.607 368.897L314.448 205.674L217.457 301.519L94.8926 182.828Z" stroke="#224332" stroke-width="50" stroke-miterlimit="1.5" stroke-linecap="round" stroke-linejoin="round"/>
<path fill-rule="evenodd" clip-rule="evenodd" d="M1280.28 1354.28L1425.59 1210.68L1712.09 1493.81L1664.99 1540.35L1499.83 1377.13L1402.84 1472.98L1280.28 1354.28Z" stroke="#224332" stroke-width="50" stroke-miterlimit="1.5" stroke-linecap="round" stroke-linejoin="round"/>
<path fill-rule="evenodd" clip-rule="evenodd" d="M94.8926 1354.28L240.202 1210.68L526.71 1493.81L479.607 1540.35L314.448 1377.13L217.457 1472.98L94.8926 1354.28Z" stroke="#224332" stroke-width="50" stroke-miterlimit="1.5" stroke-linecap="round" stroke-linejoin="round"/>
<path fill-rule="evenodd" clip-rule="evenodd" d="M794.062 884.322L960.015 712.294L1060.3 783.987L914.298 896.552L973.709 955.264L1028.84 900.787L1090.16 961.394L977.632 1072.6L794.062 884.322Z" stroke="#224332" stroke-width="50" stroke-miterlimit="1.5" stroke-linecap="round" stroke-linejoin="round"/>
<path fill-rule="evenodd" clip-rule="evenodd" d="M1090.47 724.3L1159.22 644.758L1270.88 757.804L1319.84 739.881L1397.54 814.561L1230.28 990.455L1119.15 867.862L1176.62 805.972L1090.47 724.3Z" stroke="#224332" stroke-width="50" stroke-miterlimit="1.5" stroke-linecap="round" stroke-linejoin="round"/>
<path fill-rule="evenodd" clip-rule="evenodd" d="M736.525 375.136L792.341 328.34L1035.46 521.726L1138 423.588L1193.54 481.634L1035.46 665.143L736.525 375.136Z" stroke="#224332" stroke-width="50" stroke-miterlimit="1.5" stroke-linecap="round" stroke-linejoin="round"/>
<path fill-rule="evenodd" clip-rule="evenodd" d="M557.486 444.505L618.435 384.272L682.733 447.814L618.616 504.624L557.486 444.505Z" stroke="#224332" stroke-width="50" stroke-miterlimit="1.5" stroke-linecap="round" stroke-linejoin="round"/>
<path fill-rule="evenodd" clip-rule="evenodd" d="M633.372 615.419L749.788 504.624L824.052 581.149L634.358 731.186L575.982 670.645L633.372 615.419Z" stroke="#224332" stroke-width="50" stroke-miterlimit="1.5" stroke-linecap="round" stroke-linejoin="round"/>
<path fill-rule="evenodd" clip-rule="evenodd" d="M677.894 780.121L877.809 631.58L915.088 667.869L736.868 843.995L677.894 780.121Z" stroke="#224332" stroke-width="50" stroke-miterlimit="1.5" stroke-linecap="round" stroke-linejoin="round"/>
<path fill-rule="evenodd" clip-rule="evenodd" d="M422.494 752.402L489.691 685.994L831.195 1044.75L778.83 1127.69L422.494 752.402Z" stroke="#224332" stroke-width="50" stroke-miterlimit="1.5" stroke-linecap="round" stroke-linejoin="round"/>
<path fill-rule="evenodd" clip-rule="evenodd" d="M973.452 371.697L1089.79 256.726L1028.8 196.449L909.789 314.064L850.361 255.334L1023.48 84.2476L1317.32 374.637L1262.95 428.373L1139.07 299.062L1022.66 416.208L973.452 371.697Z" stroke="#224332" stroke-width="50" stroke-miterlimit="1.5" stroke-linecap="round" stroke-linejoin="round"/>
<path fill-rule="evenodd" clip-rule="evenodd" d="M973.452 1543.15L1089.79 1428.18L1028.8 1367.91L909.789 1485.52L850.361 1426.79L1023.48 1255.7L1317.32 1546.09L1262.95 1599.83L1149.35 1487.57L1032.08 1603.46L973.452 1543.15Z" stroke="#224332" stroke-width="50" stroke-miterlimit="1.5" stroke-linecap="round" stroke-linejoin="round"/>
<path fill-rule="evenodd" clip-rule="evenodd" d="M1202.9 583.105L1504.98 315.54L1775.73 583.105L1712.38 645.705L1506.38 442.115L1389.05 558.05L1443.27 611.633L1510.04 545.66L1595.65 630.273L1474.52 749.973L1337.38 630.273L1279.71 645.705L1202.9 583.105Z" stroke="#224332" stroke-width="50" stroke-miterlimit="1.5" stroke-linecap="round" stroke-linejoin="round"/>
<path fill-rule="evenodd" clip-rule="evenodd" d="M25 606.681L319.598 315.54L590.346 583.105L526.997 645.705L320.991 442.115L203.664 558.05L257.884 611.633L324.66 545.66L410.267 630.273L289.139 749.973L142.658 605.213L84.7463 669.063L25 606.681Z" stroke="#224332" stroke-width="50" stroke-miterlimit="1.5" stroke-linecap="round" stroke-linejoin="round"/>
<path fill-rule="evenodd" clip-rule="evenodd" d="M620.109 1436.11L679.246 1494.55L809.284 1366.04L748.989 1306.45L690.636 1359.17L494.041 1196.46L395.713 1247.47L620.109 1436.11Z" stroke="#224332" stroke-width="50" stroke-miterlimit="1.5" stroke-linecap="round" stroke-linejoin="round"/>
<path fill-rule="evenodd" clip-rule="evenodd" d="M620.109 264.65L679.246 323.092L809.284 194.581L748.989 134.995L690.636 187.715L494.041 25L395.713 76.0169L620.109 264.65Z" stroke="#224332" stroke-width="50" stroke-miterlimit="1.5" stroke-linecap="round" stroke-linejoin="round"/>
<path fill-rule="evenodd" clip-rule="evenodd" d="M556.688 1124.76L695.911 1230.6L723.827 1179.41L354.062 801.662L51.3125 1100.85L111.939 1160.77L358.552 923.689L426.589 990.927L274.151 1132.83L337.856 1195.79L483.216 1060.88L556.688 1124.76Z" stroke="#224332" stroke-width="50" stroke-miterlimit="1.5" stroke-linecap="round" stroke-linejoin="round"/>
<path fill-rule="evenodd" clip-rule="evenodd" d="M1742.87 1133.12L1887.01 1275.57L1953 1210.36L1539.45 801.662L1260.69 1080.83L1321.31 1140.75L1543.94 923.689L1611.97 990.927L1459.54 1132.83L1523.24 1195.79L1668.6 1060.88L1742.87 1133.12Z" stroke="#224332" stroke-width="50" stroke-miterlimit="1.5" stroke-linecap="round" stroke-linejoin="round"/>
</g>
</svg>
