<svg width="9" height="675" viewBox="0 0 9 675" fill="none" xmlns="http://www.w3.org/2000/svg">
<path d="M1 24.625L1 18.125L8 18.125L8 24.625L1 24.625Z" fill="#B8D900"/>
<path d="M1 5.625L1 3.75L8 3.75L8 5.625L1 5.625Z" fill="#B8D900"/>
<path d="M1 1.875L1 0L8 9.28983e-07L8 1.875L1 1.875Z" fill="#B8D900"/>
<path d="M1 675L1 673.125L8 673.125L8 675L1 675Z" fill="#B8D900"/>
<path d="M1 665.125L1 658.625L8 658.625L8 665.125L1 665.125Z" fill="#B8D900"/>
<path d="M0.927579 325.626C0.80223 325.698 0.693594 325.733 0.601672 325.733C0.518106 325.742 0.438721 325.716 0.363513 325.653C0.29666 325.59 0.233985 325.492 0.175489 325.357C0.0835663 325.142 0.0626751 324.972 0.112814 324.847C0.162953 324.731 0.284122 324.623 0.476323 324.525L7.14485 321.167L0.488859 317.836C0.296658 317.737 0.175487 317.625 0.125348 317.5C0.0752086 317.384 0.0961036 317.213 0.188025 316.99C0.238165 316.855 0.300838 316.757 0.376047 316.694C0.451256 316.64 0.54318 316.618 0.651815 316.627C0.76045 316.645 0.885794 316.69 1.02786 316.761L8.53621 320.616C8.63649 320.67 8.71588 320.746 8.77437 320.844C8.84123 320.952 8.87465 321.064 8.87465 321.18C8.87465 321.261 8.86212 321.337 8.83705 321.409C8.81198 321.48 8.77438 321.543 8.72424 321.597C8.6741 321.65 8.60724 321.695 8.52368 321.731L0.927579 325.626ZM2.61978 318.642L3.58496 319.098L3.58496 323.262L2.61978 323.705L2.61978 318.642Z" fill="#B8D900"/>
<path d="M0.125348 329.254C0.125348 329.093 0.1546 328.967 0.213095 328.878C0.263235 328.797 0.338442 328.743 0.438721 328.717C0.547356 328.69 0.664347 328.676 0.789695 328.676L8.23538 328.676C8.36072 328.676 8.46936 328.69 8.56128 328.717C8.66156 328.752 8.73677 328.811 8.78691 328.891C8.8454 328.981 8.87465 329.106 8.87465 329.267L8.87465 333.015C8.87465 333.516 8.7702 333.955 8.56128 334.331C8.35237 334.716 8.06824 335.016 7.70891 335.231C7.34958 335.446 6.95683 335.549 6.53064 335.54C6.31337 335.549 6.10028 335.522 5.89137 335.459C5.68245 335.396 5.48607 335.302 5.30223 335.177C5.12674 335.061 4.9805 334.913 4.86351 334.734C4.72145 334.976 4.5376 335.182 4.31198 335.352C4.08635 335.522 3.83565 335.652 3.55989 335.741C3.28412 335.831 2.99582 335.876 2.69499 335.876C2.33565 335.867 1.99721 335.795 1.67967 335.661C1.37047 335.526 1.09889 335.334 0.864904 335.083C0.630921 334.832 0.447076 334.541 0.313371 334.21C0.188023 333.879 0.125347 333.525 0.125347 333.149L0.125348 329.254ZM1.20334 329.885L1.20334 333.015C1.20334 333.364 1.26602 333.664 1.39137 333.915C1.51671 334.165 1.70056 334.358 1.9429 334.492C2.18524 334.626 2.4819 334.694 2.83287 334.694C3.13371 334.694 3.37604 334.649 3.55989 334.559C3.74373 334.47 3.88162 334.349 3.97354 334.197C4.07382 334.044 4.14485 333.879 4.18663 333.7C4.22841 333.529 4.2493 333.359 4.2493 333.189C4.25766 333.028 4.26184 332.88 4.26184 332.746L4.26184 331.927C4.26184 331.748 4.30362 331.618 4.38719 331.537C4.47075 331.457 4.60446 331.416 4.7883 331.416C4.96379 331.416 5.08914 331.457 5.16435 331.537C5.23956 331.627 5.27716 331.761 5.27716 331.94L5.27716 332.759C5.27716 332.903 5.28134 333.064 5.28969 333.243C5.29805 333.422 5.33148 333.597 5.38997 333.767C5.44847 333.946 5.5571 334.089 5.71588 334.197C5.88301 334.313 6.11699 334.371 6.41783 334.371C6.88579 334.371 7.22841 334.237 7.44568 333.968C7.67131 333.7 7.78412 333.256 7.78412 332.639L7.78412 329.885L1.20334 329.885Z" fill="#B8D900"/>
<path d="M7.91882e-07 342.144C8.06756e-07 341.804 0.0376042 341.481 0.112813 341.177C0.188023 340.881 0.288301 340.608 0.413649 340.358C0.547355 340.116 0.693595 339.901 0.852369 339.713C1.01114 339.525 1.16992 339.377 1.32869 339.27C1.4624 339.171 1.57103 339.108 1.6546 339.082C1.74652 339.055 1.83426 339.059 1.91783 339.095C2.0014 339.14 2.09332 339.225 2.19359 339.35C2.29387 339.493 2.33983 339.619 2.33148 339.726C2.33148 339.834 2.29387 339.932 2.21866 340.022C2.14345 340.12 2.04318 340.219 1.91783 340.317C1.63371 340.541 1.42479 340.814 1.29109 341.137C1.16574 341.459 1.10307 341.777 1.10307 342.09C1.10307 342.493 1.15321 342.851 1.25348 343.165C1.35376 343.478 1.50418 343.724 1.70474 343.903C1.91365 344.091 2.18106 344.185 2.50696 344.185C2.77437 344.185 3 344.114 3.18384 343.971C3.36769 343.827 3.52229 343.635 3.64764 343.393C3.78134 343.151 3.89415 342.883 3.98607 342.587C4.08635 342.292 4.18245 341.992 4.27437 341.687C4.34958 341.445 4.43315 341.208 4.52507 340.975C4.62535 340.743 4.73398 340.523 4.85097 340.317C4.97632 340.111 5.12256 339.928 5.28969 339.767C5.45682 339.614 5.6532 339.493 5.87883 339.404C6.10446 339.323 6.36769 339.283 6.66852 339.283C7.12813 339.283 7.53343 339.399 7.8844 339.632C8.23538 339.874 8.50696 340.21 8.69917 340.64C8.89972 341.069 9 341.566 9 342.13C9 342.462 8.97075 342.766 8.91226 343.044C8.85376 343.321 8.77437 343.568 8.67409 343.783C8.58217 343.997 8.48189 344.181 8.37326 344.333C8.27298 344.485 8.17688 344.602 8.08496 344.682C7.92618 344.844 7.79248 344.933 7.68385 344.951C7.57521 344.969 7.4415 344.902 7.28273 344.75C7.13231 344.606 7.05293 344.468 7.04457 344.333C7.03621 344.199 7.09471 344.051 7.22006 343.89C7.4039 343.72 7.54596 343.541 7.64624 343.353C7.74652 343.174 7.81337 342.981 7.8468 342.775C7.88858 342.578 7.90947 342.359 7.90947 342.117C7.90947 341.884 7.88022 341.665 7.82173 341.459C7.77159 341.262 7.6922 341.087 7.58357 340.935C7.47493 340.792 7.34122 340.68 7.18245 340.599C7.03203 340.519 6.85655 340.478 6.65599 340.478C6.43036 340.478 6.23816 340.541 6.07939 340.666C5.92061 340.801 5.78273 340.975 5.66574 341.19C5.5571 341.405 5.45683 341.647 5.3649 341.916C5.28134 342.184 5.19777 342.466 5.11421 342.762C5.02228 343.084 4.90947 343.402 4.77577 343.715C4.65042 344.029 4.49164 344.311 4.29944 344.562C4.1156 344.812 3.88161 345.014 3.59749 345.166C3.31337 345.318 2.9624 345.394 2.54457 345.394C2.12674 345.394 1.75905 345.305 1.4415 345.126C1.12395 344.956 0.856548 344.718 0.639278 344.414C0.430364 344.109 0.271586 343.76 0.162951 343.366C0.0543163 342.981 7.73095e-07 342.574 7.91882e-07 342.144Z" fill="#B8D900"/>
<path d="M0.927577 356.592C0.802229 356.663 0.693592 356.699 0.60167 356.699C0.518105 356.708 0.43872 356.681 0.363511 356.619C0.296659 356.556 0.233983 356.457 0.175488 356.323C0.0835649 356.108 0.0626738 355.938 0.112812 355.813C0.162952 355.696 0.284121 355.589 0.476321 355.49L7.14485 352.132L0.488858 348.801C0.296657 348.703 0.175486 348.591 0.125347 348.466C0.0752073 348.349 0.0961023 348.179 0.188024 347.955C0.238164 347.821 0.300836 347.722 0.376046 347.66C0.451254 347.606 0.543179 347.584 0.651814 347.593C0.760449 347.611 0.885792 347.655 1.02785 347.727L8.53621 351.582C8.63649 351.636 8.71588 351.712 8.77437 351.81C8.84123 351.918 8.87465 352.029 8.87465 352.146C8.87465 352.226 8.86212 352.303 8.83705 352.374C8.81198 352.446 8.77437 352.509 8.72424 352.562C8.6741 352.616 8.60724 352.661 8.52368 352.697L0.927577 356.592ZM2.61978 349.607L3.58496 350.064L3.58496 354.228L2.61978 354.671L2.61978 349.607Z" fill="#B8D900"/>
<path d="M0.125346 360.502C0.125346 360.331 0.150418 360.202 0.200558 360.112C0.24234 360.023 0.305014 359.964 0.388578 359.937C0.4805 359.92 0.584957 359.911 0.701949 359.911L8.32312 359.911C8.43175 359.911 8.52368 359.924 8.59889 359.951C8.68245 359.987 8.7493 360.045 8.79944 360.126C8.84958 360.215 8.87465 360.345 8.87465 360.515L8.87465 363.483C8.87465 363.922 8.81198 364.321 8.68663 364.679C8.56964 365.046 8.39415 365.364 8.16017 365.632C7.92618 365.901 7.62953 366.107 7.27019 366.25C6.91922 366.402 6.50975 366.479 6.04178 366.479C5.7493 366.479 5.44429 366.429 5.12674 366.331C4.81755 366.232 4.52507 366.08 4.2493 365.874C3.97354 365.677 3.74373 365.422 3.55989 365.109C3.37604 364.795 3.27159 364.415 3.24652 363.967L3.24652 361.119L0.689415 361.119C0.572424 361.119 0.472144 361.102 0.388578 361.066C0.305014 361.039 0.24234 360.981 0.200558 360.891C0.150418 360.811 0.125346 360.681 0.125346 360.502ZM0.263232 366.264C0.14624 366.076 0.108634 365.914 0.150416 365.78C0.192199 365.655 0.292478 365.534 0.451253 365.418L3.66017 363.268L3.84819 364.598L1.09053 366.452C0.956826 366.541 0.844012 366.595 0.752089 366.613C0.660167 366.64 0.5766 366.622 0.501391 366.559C0.426182 366.505 0.346798 366.407 0.263232 366.264ZM4.34958 361.119L4.34958 363.779C4.34958 363.985 4.38301 364.177 4.44986 364.356C4.52507 364.536 4.6337 364.692 4.77576 364.827C4.91783 364.961 5.09331 365.068 5.30223 365.149C5.51114 365.229 5.76184 365.27 6.05432 365.27C6.41365 365.27 6.71866 365.198 6.96936 365.055C7.22005 364.921 7.40808 364.719 7.53342 364.45C7.66713 364.182 7.73398 363.851 7.73398 363.457L7.73398 361.119L4.34958 361.119Z" fill="#B8D900"/>
</svg>
