<svg width="41" height="40" viewBox="0 0 41 40" fill="none" xmlns="http://www.w3.org/2000/svg">
<path d="M10.4596 0.000732422V18.7507H0.456543V32.5015C0.456543 36.6265 3.83312 40.0015 7.96006 40.0015H32.9726C37.0995 40.0015 40.4761 36.6265 40.4761 32.5015L40.4737 0.000732422H10.4596ZM5.45809 32.4991V23.7499H10.4596V32.4991C10.4596 33.8749 9.3341 34.9999 7.95766 34.9999C6.58355 34.9999 5.45803 33.8749 5.45803 32.4991H5.45809ZM32.9702 34.9999H14.9617C15.2126 34.2499 15.4612 33.3757 15.4612 32.4991L15.4635 4.99993H35.4721V32.4991C35.4721 33.8749 34.3466 34.9999 32.9701 34.9999H32.9702Z" fill="#B8D900"/>
<path d="M17.9631 7.50073H25.4666V15.0007H17.9631V7.50073Z" fill="#B8D900"/>
<path d="M27.9685 7.50073H32.971V10.0015H27.9685V7.50073Z" fill="#B8D900"/>
<path d="M27.9685 12.5H32.971V15.0008H27.9685V12.5Z" fill="#B8D900"/>
<path d="M17.9631 17.499H32.9702V19.9998H17.9631V17.499Z" fill="#B8D900"/>
<path d="M17.9631 22.5007H32.9702V25.0015H17.9631V22.5007Z" fill="#B8D900"/>
<path d="M17.9631 27.5H32.9702V30.0008H17.9631V27.5Z" fill="#B8D900"/>
</svg>
