<svg width="1819" height="505" viewBox="0 0 1819 505" fill="none" xmlns="http://www.w3.org/2000/svg">
<g filter="url(#filter0_d_654_63)">
<path d="M1330.55 37.5092C1333.56 39.2201 1336.96 40.1195 1340.43 40.1195H1791C1802.05 40.1195 1811 49.0739 1811 60.1195V484.863C1811 495.909 1802.05 504.863 1791 504.863H20C8.95428 504.863 0 495.909 0 484.863V28.1372C0 17.0915 8.95431 8.13721 20 8.13721H1273.56C1277.03 8.13721 1280.43 9.03667 1283.44 10.7475L1330.55 37.5092Z" fill="#B8D900"/>
</g>
<g opacity="0.08" clip-path="url(#clip0_654_63)">
<path d="M890.278 67.0001L685.188 67.0001L685.188 75.8926L710.404 101.128L909.49 101.128L909.49 85.9868L890.278 67.0001ZM686.149 68.2018L889.798 68.2017L908.049 86.4674L908.049 99.9264L710.884 99.9264L686.149 75.4119L686.149 68.2018Z" fill="#326149"/>
<path d="M1077.6 334.256L726.254 334.256L641 248.936L775.726 113.866L877.79 113.866L877.79 131.411L851.614 157.608L793.737 157.608L702.479 248.936L744.266 290.755L1104.97 290.755L1104.97 306.858L1077.6 334.256Z" fill="#326149"/>
<path d="M1301.42 437.602L1301.42 345.792L1214.96 345.792L1065.83 196.542L947.434 196.542L913.813 162.895L913.813 153.041L1083.84 153.041L1232.98 302.291L1344.89 302.291L1344.89 465L1329.04 465L1301.42 437.602Z" fill="#326149"/>
<path d="M1337.68 127.565L913.813 127.565L913.813 117.471L947.194 84.0641L1355.69 84.0641L1355.69 109.54L1337.68 127.565Z" fill="#326149"/>
<path d="M1302.38 152.32L1168.86 152.32L1168.86 169.144L1197.19 197.504L1283.65 197.504L1432.78 346.754L1519.48 346.754L1542.29 323.922L1542.29 301.57L1451.51 301.57L1302.38 152.32ZM1170.54 153.762L1301.9 153.762L1451.03 303.012L1540.85 303.012L1540.85 323.2L1519 345.071L1433.5 345.071L1284.37 195.821L1197.91 195.821L1170.54 168.423L1170.54 153.762Z" fill="#326149"/>
<path d="M1506.75 187.409L1434.46 187.409L1368.42 121.316L1379.23 110.501L1419.09 110.501L1452.48 143.908L1532.21 143.908L1532.21 161.693L1506.75 187.409Z" fill="#326149"/>
<path d="M1025.72 217.211L848.972 217.211L848.972 237.16L878.031 266.24L1056.94 266.24L1056.94 248.696L1025.72 217.211ZM850.653 218.653L1025 218.653L1055.74 249.417L1055.74 264.798L878.751 264.798L850.653 236.438L850.653 218.653Z" fill="#326149"/>
<path d="M1553.34 169.865L1612.66 228.988L1683.74 228.988L1705.84 251.099L1705.84 261.914L1598.97 261.914L1553.34 216.49L1526.2 243.649L1596.57 314.068L1704.4 314.068L1738.98 279.459L1764.67 279.459L1775 290.034L1718.08 346.994L1583.12 346.994L1479.61 243.649L1553.34 169.865Z" fill="#326149"/>
</g>
<defs>
<filter id="filter0_d_654_63" x="0" y="0.137207" width="1819" height="504.726" filterUnits="userSpaceOnUse" color-interpolation-filters="sRGB">
<feFlood flood-opacity="0" result="BackgroundImageFix"/>
<feColorMatrix in="SourceAlpha" type="matrix" values="0 0 0 0 0 0 0 0 0 0 0 0 0 0 0 0 0 0 127 0" result="hardAlpha"/>
<feOffset dx="8" dy="-8"/>
<feComposite in2="hardAlpha" operator="out"/>
<feColorMatrix type="matrix" values="0 0 0 0 0.197208 0 0 0 0 0.379808 0 0 0 0 0.285741 0 0 0 1 0"/>
<feBlend mode="normal" in2="BackgroundImageFix" result="effect1_dropShadow_654_63"/>
<feBlend mode="normal" in="SourceGraphic" in2="effect1_dropShadow_654_63" result="shape"/>
</filter>
<clipPath id="clip0_654_63">
<rect width="398" height="1134" fill="white" transform="matrix(4.37114e-08 1 1 -4.37114e-08 641 67.0001)"/>
</clipPath>
</defs>
</svg>
