<svg width="1819" height="505" viewBox="0 0 1819 505" fill="none" xmlns="http://www.w3.org/2000/svg">
<g filter="url(#filter0_d_654_64)">
<path d="M488.452 37.372C485.44 39.0829 482.036 39.9823 478.573 39.9823H27.9999C16.9542 39.9823 7.99988 48.9366 7.99988 59.9823V484.726C7.99988 495.771 16.9542 504.726 27.9999 504.726H1799C1810.05 504.726 1819 495.771 1819 484.726V28C1819 16.9543 1810.05 8 1799 8H545.438C541.974 8 538.57 8.89946 535.559 10.6103L488.452 37.372Z" fill="#B8D900"/>
</g>
<g opacity="0.08" clip-path="url(#clip0_654_64)">
<path d="M292.278 67L87.188 67L87.188 75.8925L112.404 101.128L311.49 101.128L311.49 85.9867L292.278 67ZM88.1486 68.2017L291.798 68.2017L310.049 86.4674L310.049 99.9263L112.884 99.9263L88.1486 75.4118L88.1486 68.2017Z" fill="#326149"/>
<path d="M479.597 334.256L128.254 334.256L43 248.936L177.726 113.866L279.79 113.866L279.79 131.411L253.614 157.607L195.737 157.607L104.479 248.936L146.266 290.755L506.975 290.755L506.975 306.857L479.597 334.256Z" fill="#326149"/>
<path d="M703.419 437.601L703.419 345.792L616.964 345.792L467.83 196.542L349.434 196.542L315.813 162.895L315.813 153.041L485.841 153.041L634.976 302.291L746.887 302.291L746.887 465L731.037 465L703.419 437.601Z" fill="#326149"/>
<path d="M739.682 127.565L315.813 127.565L315.813 117.471L349.194 84.064L757.694 84.0639L757.694 109.54L739.682 127.565Z" fill="#326149"/>
<path d="M704.38 152.32L570.855 152.32L570.855 169.144L599.193 197.504L685.648 197.504L834.783 346.754L921.478 346.754L944.292 323.921L944.292 301.57L853.514 301.57L704.38 152.32ZM572.536 153.762L703.899 153.762L853.034 303.012L942.851 303.012L942.851 323.2L920.997 345.071L835.503 345.071L686.368 195.821L599.913 195.821L572.536 168.423L572.536 153.762Z" fill="#326149"/>
<path d="M908.75 187.409L836.464 187.409L770.422 121.316L781.229 110.501L821.094 110.501L854.475 143.908L934.206 143.908L934.206 161.693L908.75 187.409Z" fill="#326149"/>
<path d="M427.724 217.211L250.972 217.211L250.972 237.159L280.031 266.24L458.944 266.24L458.944 248.696L427.724 217.211ZM252.653 218.653L427.004 218.653L457.743 249.417L457.743 264.798L280.751 264.798L252.653 236.438L252.653 218.653Z" fill="#326149"/>
<path d="M955.339 169.865L1014.66 228.988L1085.74 228.988L1107.84 251.099L1107.84 261.914L1000.97 261.914L955.339 216.49L928.202 243.649L998.567 314.068L1106.39 314.068L1140.98 279.459L1166.67 279.459L1177 290.034L1120.08 346.994L985.118 346.994L881.612 243.649L955.339 169.865Z" fill="#326149"/>
</g>
<defs>
<filter id="filter0_d_654_64" x="0" y="0" width="1819" height="504.726" filterUnits="userSpaceOnUse" color-interpolation-filters="sRGB">
<feFlood flood-opacity="0" result="BackgroundImageFix"/>
<feColorMatrix in="SourceAlpha" type="matrix" values="0 0 0 0 0 0 0 0 0 0 0 0 0 0 0 0 0 0 127 0" result="hardAlpha"/>
<feOffset dx="-8" dy="-8"/>
<feComposite in2="hardAlpha" operator="out"/>
<feColorMatrix type="matrix" values="0 0 0 0 0.197208 0 0 0 0 0.379808 0 0 0 0 0.285741 0 0 0 1 0"/>
<feBlend mode="normal" in2="BackgroundImageFix" result="effect1_dropShadow_654_64"/>
<feBlend mode="normal" in="SourceGraphic" in2="effect1_dropShadow_654_64" result="shape"/>
</filter>
<clipPath id="clip0_654_64">
<rect width="398" height="1134" fill="white" transform="matrix(4.37114e-08 1 1 -4.37114e-08 43 67)"/>
</clipPath>
</defs>
</svg>
