<svg width="112" height="112" viewBox="0 0 112 112" fill="none" xmlns="http://www.w3.org/2000/svg">
<rect width="112" height="112" fill="#224332"/>
<g clip-path="url(#clip0_806_78)">
<path d="M77.71 62.1016L77.5582 62.4809C77.4697 62.7338 77.3558 62.9867 77.2419 63.2395C76.8118 64.2384 76.3057 65.1993 75.7617 66.1476C74.6483 68.0188 73.3579 69.8015 71.9156 71.4452C70.4733 73.1015 68.8918 74.6187 67.2091 76.0348C66.8043 76.4014 66.3615 76.7302 65.9313 77.0715L65.2861 77.5773C65.071 77.7417 64.8433 77.906 64.6282 78.0704L63.9577 78.5508C63.7299 78.7152 63.5148 78.8796 63.2871 79.0313L61.9207 79.9543C61.8069 80.0301 61.693 80.106 61.5791 80.1818L61.2249 80.3968L60.5164 80.8267C60.0483 81.1175 59.5802 81.4083 59.0994 81.6738L57.6571 82.483C57.4167 82.622 57.1763 82.7358 56.9233 82.8623L56.1895 83.2416L55.4557 83.6209C55.3292 83.6841 55.2153 83.7473 55.0888 83.8105L54.7219 83.9875L53.229 84.6829C52.7356 84.9232 52.2295 85.1381 51.7235 85.353L50.2053 85.9979C47.4345 87.1358 44.6132 88.1093 41.7539 88.9691C45.5368 92.9012 50.2053 96.2897 55.5063 98.9575C70.8528 91.2576 80 78.1336 80 63.8464V49.3949C72.6114 53.8328 64.1348 56.1845 55.4684 56.1845C46.8273 56.1845 38.3633 53.8454 31 49.4328V63.8591C31 64.8326 31.0506 65.8062 31.1265 66.7671C35.2257 67.1717 39.3375 67.3866 43.4493 67.2728L45.056 67.2096C45.5874 67.1843 46.1314 67.1717 46.6628 67.1211C47.7255 67.0326 48.8009 66.9694 49.8637 66.8303C50.395 66.7671 50.9264 66.7165 51.4578 66.6406L53.0519 66.4004C53.3176 66.3625 53.5833 66.3246 53.849 66.274L54.6334 66.1223L55.4304 65.9705C55.6961 65.92 55.9618 65.8694 56.2148 65.8062L57.7836 65.4395C58.0493 65.3889 58.3023 65.3131 58.568 65.2372L59.3398 65.0223C59.5928 64.9464 59.8585 64.8832 60.1115 64.8073L60.8833 64.5671C61.3894 64.4027 61.9081 64.251 62.4141 64.0614C64.4511 63.3533 66.4374 62.5062 68.3351 61.4947C70.2455 60.4833 72.0674 59.3074 73.7627 57.9672C74.5977 57.2844 75.4201 56.5638 76.1792 55.7925C76.369 55.5902 76.5587 55.4006 76.7359 55.1983L77.0142 54.8948L77.2799 54.5787C77.6341 54.1615 77.9631 53.7316 78.2667 53.2765C78.001 53.7569 77.6974 54.2121 77.3811 54.6546L77.1407 54.9833L76.8877 55.3121C76.7232 55.527 76.5461 55.7419 76.369 55.9442C75.6605 56.7787 74.8887 57.5626 74.0917 58.3212C72.4722 59.8132 70.701 61.1407 68.8286 62.3166C66.9561 63.4924 64.9824 64.5039 62.9455 65.3889C62.4395 65.6292 61.9207 65.8188 61.4147 66.0211L60.6429 66.3246C60.3772 66.4257 60.1242 66.5142 59.8585 66.6027L59.0741 66.8809C58.8084 66.9694 58.5554 67.0705 58.2897 67.1464L56.6956 67.6395C56.4299 67.728 56.1642 67.7912 55.8985 67.8671L55.0888 68.082L54.2791 68.2969C54.0134 68.3728 53.7351 68.4234 53.4694 68.4866L51.85 68.8533C51.306 68.9671 50.7619 69.0682 50.2179 69.1693C49.1299 69.3969 48.0292 69.536 46.9285 69.713C46.3845 69.8015 45.8278 69.8647 45.2711 69.928L43.6137 70.1176C39.6411 70.5096 35.6558 70.6234 31.6705 70.5349C32.6321 75.2003 34.6057 79.7267 37.5156 83.8864C38.009 84.5944 38.5404 85.3025 39.0844 85.9852C42.5004 85.2898 45.8784 84.4301 49.1931 83.3427L50.6987 82.8243C51.2047 82.6473 51.7108 82.483 52.2042 82.2933L53.6971 81.7244L54.064 81.5853C54.1905 81.5347 54.3044 81.4841 54.4309 81.4336L55.1647 81.1175L55.8985 80.8014C56.1389 80.7002 56.3919 80.5991 56.6323 80.4853L58.0746 79.8025C58.5554 79.5876 59.0235 79.3347 59.5043 79.0819L60.2128 78.7152L60.567 78.5256C60.6809 78.4623 60.7947 78.3991 60.9086 78.3359L62.3003 77.552C62.5407 77.4256 62.7557 77.2738 62.9835 77.1348L63.6667 76.7175C63.8944 76.5784 64.1221 76.4394 64.3372 76.2876L64.9951 75.8451C65.4379 75.5417 65.8807 75.2509 66.2982 74.9348C68.0188 73.6831 69.6636 72.3176 71.1818 70.813C72.7 69.3084 74.0917 67.6774 75.3189 65.9073C75.9262 65.0223 76.4828 64.0993 76.9889 63.151C77.1154 62.9108 77.2419 62.6706 77.3558 62.4304L77.5329 62.0637L77.6974 61.697C77.9125 61.2039 78.1022 60.6982 78.2541 60.1798C78.1402 60.7108 77.9884 61.2292 77.8113 61.735L77.71 62.1016Z" fill="url(#paint0_linear_806_78)"/>
<g clip-path="url(#clip1_806_78)">
<path d="M49.7833 41.3947C51.5728 44.105 55.2517 44.8634 57.9796 43.0731C59.3061 42.2152 60.207 40.8849 60.5199 39.3433C60.8452 37.8016 60.5324 36.2351 59.6689 34.9172C59.1934 34.1961 58.5678 33.5994 57.8295 33.1394L58.7179 31.7096L54.6385 34.1215C54.8888 34.1215 55.1391 34.1464 55.3768 34.1961C56.3904 34.4075 57.2539 34.9918 57.8295 35.8497C58.3926 36.7075 58.5928 37.727 58.3801 38.7341C58.1673 39.7411 57.5792 40.599 56.7158 41.1709C56.0651 41.5936 55.3268 41.8049 54.601 41.8049C53.3372 41.8049 52.1108 41.1957 51.36 40.0768C50.5592 38.8708 50.5341 37.3665 51.1723 36.1729L47.1055 38.5849L48.7948 38.4854C48.8824 39.5297 49.2202 40.5244 49.7833 41.3947Z" fill="url(#paint1_linear_806_78)"/>
<path d="M62.5096 33.0772C61.7588 31.9333 60.7827 31.0009 59.6315 30.2922L58.743 31.722C59.6565 32.2815 60.4699 33.0523 61.1081 33.9972C63.4231 37.4908 62.447 42.1779 58.9307 44.4655C55.4145 46.7655 50.6969 45.7958 48.3944 42.3022C47.6311 41.146 47.2307 39.8654 47.1556 38.5848L45.4663 38.6843C45.5539 40.3005 46.0795 41.8671 46.9804 43.2222C48.7699 45.9201 51.7355 47.3872 54.7638 47.3872C56.5157 47.3872 58.2926 46.9023 59.8567 45.8704C61.934 44.5152 63.348 42.439 63.8485 40.0146C64.3491 37.6151 63.8735 35.141 62.5096 33.0772Z" fill="url(#paint2_linear_806_78)"/>
<path d="M52.5614 34.8798C52.0734 35.1906 51.698 35.6009 51.4102 36.0609L54.4384 34.2706C53.7752 34.2955 53.137 34.5068 52.5614 34.8798Z" fill="url(#paint3_linear_806_78)"/>
<path d="M52.5239 34.8302C53.1495 34.4199 53.8503 34.221 54.551 34.2085L54.6637 34.1464C53.9003 34.1339 53.1495 34.3577 52.4988 34.7804C51.9357 35.1534 51.4978 35.6383 51.21 36.1978L51.3101 36.1356C51.5854 35.6134 51.9983 35.1658 52.5239 34.8302Z" fill="url(#paint4_linear_806_78)"/>
<path d="M68.9663 15.0249C70.4304 17.6109 71.5566 20.6445 71.4941 23.6532C71.419 26.9727 69.3042 29.4841 66.5638 31.175C63.2852 33.189 59.5813 34.2707 56.1276 35.9118C53.3997 37.2172 50.4715 38.3859 48.0814 40.2757C45.0031 42.7125 42.5505 47.3872 44.9906 51.1045C44.9906 51.0921 44.9781 51.0921 44.9781 51.0797C44.9781 51.0672 44.9656 51.0548 44.9531 51.0424C44.39 50.085 43.7268 48.8293 43.0886 47.4493V47.4369C42.513 46.2061 41.9874 44.9877 42.0875 43.6076C42.2877 40.6486 44.4526 38.6221 46.73 36.981C49.4079 35.0415 52.2234 33.3507 55.1766 31.8587C58.1297 30.3544 61.158 28.9246 63.8233 26.9354C64.2988 26.5749 64.7618 26.2143 65.2123 25.8165C66.8391 24.3867 68.228 22.6088 68.9288 20.5574C69.5044 18.8044 69.5795 16.8028 68.9663 15.0249Z" fill="url(#paint5_linear_806_78)" stroke="url(#paint6_linear_806_78)" stroke-miterlimit="10"/>
<path d="M50.2463 32.9653C46.0293 35.974 42.8008 38.274 42.0125 41.7428C41.4369 44.2915 42.7383 46.7283 43.8395 48.9537C41.8498 45.1866 40.1355 41.3325 39.7851 37.0432C39.4222 32.5177 41.4119 28.1414 43.8144 26.1149C43.8019 26.1024 44.9657 34.768 50.2463 32.9653Z" fill="url(#paint7_linear_806_78)" stroke="url(#paint8_linear_806_78)" stroke-miterlimit="10"/>
</g>
</g>
<defs>
<linearGradient id="paint0_linear_806_78" x1="55.5" y1="49.3949" x2="55.5" y2="98.9575" gradientUnits="userSpaceOnUse">
<stop stop-color="#D0994B"/>
<stop offset="1" stop-color="#FFC36E"/>
</linearGradient>
<linearGradient id="paint1_linear_806_78" x1="53.8756" y1="31.7096" x2="53.8756" y2="44.0438" gradientUnits="userSpaceOnUse">
<stop stop-color="#D0994B"/>
<stop offset="1" stop-color="#FFC36E"/>
</linearGradient>
<linearGradient id="paint2_linear_806_78" x1="54.7544" y1="30.2922" x2="54.7544" y2="47.3872" gradientUnits="userSpaceOnUse">
<stop stop-color="#D0994B"/>
<stop offset="1" stop-color="#FFC36E"/>
</linearGradient>
<linearGradient id="paint3_linear_806_78" x1="52.9243" y1="34.2706" x2="52.9243" y2="36.0609" gradientUnits="userSpaceOnUse">
<stop stop-color="#D0994B"/>
<stop offset="1" stop-color="#FFC36E"/>
</linearGradient>
<linearGradient id="paint4_linear_806_78" x1="52.9368" y1="34.1459" x2="52.9368" y2="36.1978" gradientUnits="userSpaceOnUse">
<stop stop-color="#D0994B"/>
<stop offset="1" stop-color="#FFC36E"/>
</linearGradient>
<linearGradient id="paint5_linear_806_78" x1="56.7859" y1="15.0249" x2="56.7859" y2="51.1045" gradientUnits="userSpaceOnUse">
<stop stop-color="#D0994B"/>
<stop offset="1" stop-color="#FFC36E"/>
</linearGradient>
<linearGradient id="paint6_linear_806_78" x1="56.7859" y1="15.0249" x2="56.7859" y2="51.1045" gradientUnits="userSpaceOnUse">
<stop stop-color="#D0994B"/>
<stop offset="1" stop-color="#FFC36E"/>
</linearGradient>
<linearGradient id="paint7_linear_806_78" x1="44.9943" y1="26.1149" x2="44.9943" y2="48.9537" gradientUnits="userSpaceOnUse">
<stop stop-color="#D0994B"/>
<stop offset="1" stop-color="#FFC36E"/>
</linearGradient>
<linearGradient id="paint8_linear_806_78" x1="44.9943" y1="26.1149" x2="44.9943" y2="48.9537" gradientUnits="userSpaceOnUse">
<stop stop-color="#D0994B"/>
<stop offset="1" stop-color="#FFC36E"/>
</linearGradient>
<clipPath id="clip0_806_78">
<rect width="49" height="87" fill="white" transform="translate(31 13)"/>
</clipPath>
<clipPath id="clip1_806_78">
<rect width="31.8717" height="36.1418" fill="white" transform="translate(39.6724 15)"/>
</clipPath>
</defs>
</svg>
