<svg width="173" height="57" viewBox="0 0 173 57" fill="none" xmlns="http://www.w3.org/2000/svg">
<g filter="url(#filter0_d_438_49)">
<path d="M170 11.0205V55C170 56.1046 169.105 57 168 57H2C0.895431 57 8.05332e-09 56.1046 0 55V5C0 3.89543 0.895431 3 2 3H161.979L170 11.0205Z" fill="#D9D9D9" fill-opacity="0.01" shape-rendering="crispEdges"/>
<path d="M2 3.5H161.772L169.5 11.2275V55C169.5 55.8284 168.828 56.5 168 56.5H2C1.17157 56.5 0.5 55.8284 0.5 55V5C0.5 4.22334 1.09028 3.58461 1.84668 3.50781L2 3.5Z" stroke="#B8D900" shape-rendering="crispEdges"/>
</g>
<defs>
<filter id="filter0_d_438_49" x="0" y="0" width="173" height="57" filterUnits="userSpaceOnUse" color-interpolation-filters="sRGB">
<feFlood flood-opacity="0" result="BackgroundImageFix"/>
<feColorMatrix in="SourceAlpha" type="matrix" values="0 0 0 0 0 0 0 0 0 0 0 0 0 0 0 0 0 0 127 0" result="hardAlpha"/>
<feOffset dx="3" dy="-3"/>
<feComposite in2="hardAlpha" operator="out"/>
<feColorMatrix type="matrix" values="0 0 0 0 0.721569 0 0 0 0 0.85098 0 0 0 0 0 0 0 0 1 0"/>
<feBlend mode="normal" in2="BackgroundImageFix" result="effect1_dropShadow_438_49"/>
<feBlend mode="normal" in="SourceGraphic" in2="effect1_dropShadow_438_49" result="shape"/>
</filter>
</defs>
</svg>
