<svg width="41" height="34" viewBox="0 0 41 34" fill="none" xmlns="http://www.w3.org/2000/svg">
<path d="M23.9386 4.50073C23.9386 6.57025 22.2596 8.25073 20.1868 8.25073C18.114 8.25073 16.4351 6.57025 16.4351 4.50073C16.4351 2.42887 18.114 0.750732 20.1868 0.750732C22.2596 0.750732 23.9386 2.42887 23.9386 4.50073Z" fill="#B8D900"/>
<path d="M10.1812 8.25073C10.1812 10.3203 8.50232 12.0007 6.42949 12.0007C4.359 12.0007 2.67773 10.3203 2.67773 8.25073C2.67773 6.17887 4.359 4.50073 6.42949 4.50073C8.50232 4.50073 10.1812 6.17887 10.1812 8.25073Z" fill="#B8D900"/>
<path d="M37.6959 8.25073C37.6959 10.3203 36.0146 12.0007 33.9441 12.0007C31.8713 12.0007 30.1924 10.3203 30.1924 8.25073C30.1924 6.17887 31.8713 4.50073 33.9441 4.50073C36.0146 4.50073 37.6959 6.17887 37.6959 8.25073Z" fill="#B8D900"/>
<path d="M33.9442 27.0008C33.9442 30.4508 27.7841 33.2492 20.1869 33.2492C12.5898 33.2492 6.42969 30.4507 6.42969 27.0008C6.42969 23.5485 12.5898 20.75 20.1869 20.75C27.7841 20.75 33.9442 23.5485 33.9442 27.0008Z" fill="#B8D900"/>
<path d="M12.4323 19.2498C11.8086 16.5006 9.30666 14.499 6.42951 14.499C2.92867 14.499 0.175781 17.2482 0.175781 20.7498V27.0006H3.92754C3.92988 23.8741 6.80469 20.7498 12.4323 19.2498Z" fill="#B8D900"/>
<path d="M20.1868 18.249C22.5621 18.249 24.5647 18.4998 26.4406 18.8748V16.9998C26.4406 13.5006 23.6901 10.749 20.1868 10.749C16.686 10.749 13.9331 13.4982 13.9331 16.9998V18.8748C15.809 18.4998 17.8115 18.249 20.1868 18.249Z" fill="#B8D900"/>
<path d="M33.9442 14.499C31.0671 14.499 28.5675 16.4982 27.9414 19.2498C33.569 20.7498 36.4438 23.874 36.4438 27.0006H40.1955V20.7498C40.1955 17.2506 37.4451 14.499 33.9442 14.499Z" fill="#B8D900"/>
</svg>
