<svg width="85" height="85" viewBox="0 0 85 85" fill="none" xmlns="http://www.w3.org/2000/svg">
<circle cx="42.4995" cy="42.5" r="42.5" fill="#326157"/>
<path d="M36.5182 33.0472C38.372 31.9648 40.6012 31.3335 42.9997 31.3335C48.3185 31.3335 52.806 34.4383 54.2104 38.6835M31.333 52.3335V41.5103C31.333 40.321 31.5669 39.1791 31.9969 38.1181L31.333 52.3335ZM54.6663 46.5002V44.9028V46.5002Z" stroke="#B8D900" stroke-width="3" stroke-linecap="round" stroke-linejoin="round"/>
<path d="M47.6663 54.6668V42.6569C47.6663 40.2692 45.5771 38.3335 42.9997 38.3335C40.4223 38.3335 38.333 40.2692 38.333 42.6569V44.5101M38.333 54.6668V49.5883V54.6668Z" stroke="#B8D900" stroke-width="3" stroke-linecap="round" stroke-linejoin="round"/>
<path d="M47.666 65.8665C46.1582 66.1724 44.5975 66.3332 42.9994 66.3332C30.1127 66.3332 19.666 55.8864 19.666 42.9998C19.666 30.1132 30.1127 19.6665 42.9994 19.6665C55.8859 19.6665 66.3327 30.1132 66.3327 42.9998C66.3327 43.5925 66.3105 44.1798 66.2671 44.7613" stroke="#B8D900" stroke-width="3" stroke-linecap="round" stroke-linejoin="round"/>
<path d="M64.3883 58.1667H56.6104M64.3883 58.1667H64.9327C65.7059 58.1667 66.3327 58.7934 66.3327 59.5667V64.9333C66.3327 65.7066 65.7059 66.3333 64.9327 66.3333H56.066C55.2927 66.3333 54.666 65.7066 54.666 64.9333V59.5667C54.666 58.7934 55.2927 58.1667 56.066 58.1667H56.6104H64.3883ZM64.3883 58.1667V54.0833C64.3883 52.7223 63.6104 50 60.4993 50C57.3883 50 56.6104 52.7223 56.6104 54.0833V58.1667H64.3883Z" stroke="#B8D900" stroke-width="3" stroke-linecap="round" stroke-linejoin="round"/>
</svg>
