<svg width="85" height="85" viewBox="0 0 85 85" fill="none" xmlns="http://www.w3.org/2000/svg">
<circle cx="42.4995" cy="42.5" r="42.5" fill="#326157"/>
<g clip-path="url(#clip0_528_3547)">
<path d="M58.7358 42.9996C58.7362 45.3728 58.2003 47.7154 57.1682 49.8524C56.1361 51.9894 54.6343 53.8656 52.7753 55.3406L48.2393 44.7496L58.5958 40.8646C58.6891 41.5646 58.7358 42.2763 58.7358 42.9996Z" fill="#B8D900"/>
<path d="M70.9995 43C70.9995 50.4261 68.0495 57.548 62.7985 62.799C57.5475 68.05 50.4256 71 42.9995 71C35.5735 71 28.4515 68.05 23.2005 62.799C17.9495 57.548 14.9995 50.4261 14.9995 43C14.9995 35.5739 17.9495 28.452 23.2005 23.201C28.4515 17.95 35.5735 15 42.9995 15C50.4256 15 57.5475 17.95 62.7985 23.201C68.0495 28.452 70.9995 35.5739 70.9995 43ZM67.4995 43C67.4978 39.2853 66.6515 35.6197 65.0244 32.2803C63.3974 28.9409 61.0324 26.0152 58.1082 23.7245C55.1839 21.4337 51.7771 19.8379 48.1453 19.0577C44.5135 18.2775 40.7518 18.3334 37.1448 19.221C33.5377 20.1087 30.1798 21.805 27.3249 24.1816C24.4699 26.5582 22.1928 29.5528 20.6657 32.939C19.1385 36.3253 18.4014 40.0144 18.51 43.7275C18.6186 47.4405 19.5701 51.0803 21.2925 54.3715L28.2505 48.572C26.9502 45.1431 26.8872 41.368 28.0723 37.8976C29.2574 34.4273 31.6163 31.4792 34.7423 29.5618C37.8682 27.6444 41.5652 26.8779 45.1958 27.3945C48.8264 27.9111 52.1629 29.6783 54.63 32.3915L41.239 37.75L44.739 46.5L49.4045 57.385C47.4445 58.2635 45.2745 58.75 42.989 58.75C41.0856 58.7511 39.1978 58.4072 37.417 57.735L31.614 64.7C35.3485 66.6599 39.5256 67.6227 43.7412 67.495C47.9568 67.3673 52.0681 66.1535 55.6771 63.9712C59.286 61.7888 62.2706 58.7118 64.3417 55.0378C66.4129 51.3639 67.5006 47.2175 67.4995 43ZM38.467 43.4865C38.5689 43.3346 38.6207 43.1545 38.6149 42.9716C38.6092 42.7887 38.5463 42.6122 38.435 42.467C38.3238 42.3217 38.1698 42.215 37.9947 42.1618C37.8196 42.1086 37.6323 42.1117 37.459 42.1705L32.209 43.9205L32.7655 45.5795L35.5935 44.6345L33.511 47.7635C33.4097 47.9152 33.3583 48.0948 33.3641 48.2771C33.3699 48.4594 33.4325 48.6354 33.5431 48.7804C33.6538 48.9254 33.807 49.0321 33.9814 49.0858C34.1557 49.1394 34.3425 49.1372 34.5155 49.0795L37.3435 48.1345L35.261 51.2635C35.1597 51.4152 35.1083 51.5948 35.1141 51.7771C35.1199 51.9594 35.1825 52.1354 35.2931 52.2804C35.4038 52.4254 35.557 52.5321 35.7314 52.5858C35.9057 52.6394 36.0925 52.6372 36.2655 52.5795L41.5155 50.8295L40.959 49.1705L38.131 50.1155L40.217 46.9865C40.3189 46.8346 40.3707 46.6545 40.3649 46.4716C40.3592 46.2887 40.2963 46.1122 40.185 45.967C40.0738 45.8217 39.9198 45.715 39.7447 45.6618C39.5696 45.6086 39.3823 45.6117 39.209 45.6705L36.381 46.6155L38.467 43.4865Z" fill="#B8D900"/>
</g>
<defs>
<clipPath id="clip0_528_3547">
<rect width="56" height="56" fill="white" transform="translate(14.9995 15)"/>
</clipPath>
</defs>
</svg>
