<svg width="85" height="85" viewBox="0 0 85 85" fill="none" xmlns="http://www.w3.org/2000/svg">
<circle cx="42.4995" cy="42.5" r="42.5" fill="#326157"/>
<path fill-rule="evenodd" clip-rule="evenodd" d="M54.8253 26.9493C55.2898 26.9491 55.7353 27.1335 56.0637 27.4619L58.5378 29.936C58.8662 30.2644 59.0506 30.7099 59.0503 31.1744C59.0501 31.6389 58.8652 32.0842 58.5364 32.4122L28.1564 62.7233C28.0274 62.852 27.8791 62.9598 27.7169 63.0427L22.7961 65.5583C22.1203 65.9038 21.2989 65.7743 20.7622 65.2376C20.2255 64.701 20.0959 63.8795 20.4413 63.2037L22.9569 58.2818C23.0399 58.1195 23.1476 57.9712 23.2764 57.8422L53.5875 27.4633C53.9155 27.1345 54.3608 26.9496 54.8253 26.9493Z" fill="#B8D900"/>
<path fill-rule="evenodd" clip-rule="evenodd" d="M59.7755 21.2753C60.4318 20.6194 61.3217 20.251 62.2495 20.251C63.1774 20.251 64.0673 20.6194 64.7236 21.2753C65.3795 21.9316 65.7487 22.8223 65.7487 23.7502C65.7487 24.678 65.3803 25.5679 64.7244 26.2242L62.2502 28.6995C61.922 29.0279 61.4768 29.2124 61.0125 29.2124C60.5482 29.2124 60.103 29.0279 59.7748 28.6995L57.3007 26.2244C56.6176 25.5409 56.6177 24.4331 57.301 23.7498L59.7755 21.2753Z" fill="#B8D900"/>
</svg>
