<svg width="85" height="85" viewBox="0 0 85 85" fill="none" xmlns="http://www.w3.org/2000/svg">
<circle cx="42.4995" cy="42.5" r="42.5" fill="#326157"/>
<path d="M55.8655 58.5326C48.5757 65.8224 36.7566 65.8224 29.4669 58.5326C25.822 54.8877 23.9995 50.1105 23.9995 45.3333C23.9995 40.5561 25.822 35.7789 29.4669 32.134C29.4669 32.134 30.9996 35.9999 35.6663 38.3332C35.6663 33.6666 36.8329 26.6666 42.6332 22C47.3328 26.6667 52.2122 28.4807 55.8655 32.134C59.5104 35.7789 61.3329 40.5561 61.3328 45.3333C61.3328 50.1105 59.5104 54.8877 55.8655 58.5326Z" stroke="#B8D900" stroke-width="3" stroke-linecap="round" stroke-linejoin="round"/>
<path d="M37.7164 52.6163C40.4501 55.35 44.8823 55.35 47.6159 52.6163C48.9827 51.2495 49.6662 49.4581 49.6662 47.6666C49.6662 45.8752 48.9828 44.0837 47.6159 42.7168C46.2577 41.3586 44.4803 40.6752 42.7002 40.6666L40.3327 47.6665L35.6662 47.6666C35.6662 49.4581 36.3496 51.2495 37.7164 52.6163Z" stroke="#B8D900" stroke-width="3" stroke-linecap="round" stroke-linejoin="round"/>
</svg>
