<svg width="85" height="85" viewBox="0 0 85 85" fill="none" xmlns="http://www.w3.org/2000/svg">
<circle cx="42.4995" cy="42.5" r="42.5" fill="#326149"/>
<path d="M17.4995 54.0498C17.4996 56.0844 19.1523 57.7344 21.1802 57.7344H22.2407C22.7243 57.7343 23.1904 57.6397 23.6177 57.4668C23.9561 58.7442 24.9611 59.7486 26.2378 60.085C26.5457 60.9549 27.1838 62.394 28.4038 63.8359H28.4048C30.0318 65.757 32.9839 67.9848 37.9878 68.2871C38.2673 70.1029 39.8306 71.5 41.7251 71.5H44.689C46.7773 71.5 48.4712 69.8025 48.4712 67.7129V66.5088C48.4712 64.4192 46.7773 62.7217 44.689 62.7217H41.7163C39.8544 62.7217 38.3016 64.0786 37.9927 65.8564C34.6837 65.6368 32.1138 64.4366 30.2954 62.3193L29.9595 61.9043C29.3869 61.1553 29.003 60.4245 28.7534 59.8525C29.9936 59.2577 30.853 57.9933 30.853 56.5283V39.2363C30.853 37.2017 29.2003 35.5508 27.1724 35.5508C25.4705 35.5509 24.0337 36.7167 23.6157 38.291C23.3953 38.2015 23.164 38.134 22.9243 38.0889V35.3584C22.9246 24.8106 31.3603 16.2036 41.8286 15.9414L42.3286 15.9355C53.0226 15.9355 61.7289 24.6524 61.729 35.3633V38.1787C61.613 38.2127 61.4996 38.2521 61.3892 38.2969C60.9703 36.7195 59.5345 35.5557 57.8306 35.5557C55.7972 35.5559 54.1509 37.2122 54.1509 39.2412V56.5332C54.151 58.5677 55.8028 60.2175 57.8306 60.2178C59.534 60.2178 60.9736 59.0511 61.3901 57.4746C61.8138 57.6459 62.2768 57.7441 62.7632 57.7441H63.8188C65.8524 57.7441 67.4995 56.0877 67.4995 54.0586V41.7109C67.4995 39.7892 66.0252 38.2104 64.1528 38.041V35.3584C64.1527 29.5208 61.8836 24.0296 57.7612 19.9014L57.3706 19.5195C53.2955 15.633 47.9726 13.5001 42.3247 13.5C36.4946 13.5 31.0107 15.7731 26.8882 19.9014L26.5073 20.293C22.6263 24.3738 20.4957 29.7032 20.4956 35.3584V38.0898C18.7949 38.4132 17.5045 39.9131 17.4995 41.709V54.0498Z" fill="#B8D900" stroke="#B8D900"/>
</svg>
