<svg width="85" height="85" viewBox="0 0 85 85" fill="none" xmlns="http://www.w3.org/2000/svg">
<circle cx="42.4995" cy="42.5" r="42.5" fill="#326149"/>
<g clip-path="url(#clip0_528_3556)">
<path d="M42.9995 67.5C36.5017 67.5 30.27 64.9188 25.6754 60.3241C21.0808 55.7295 18.4995 49.4978 18.4995 43C18.4995 36.5022 21.0808 30.2705 25.6754 25.6759C30.27 21.0812 36.5017 18.5 42.9995 18.5C49.4973 18.5 55.729 21.0812 60.3236 25.6759C64.9183 30.2705 67.4995 36.5022 67.4995 43C67.4995 49.4978 64.9183 55.7295 60.3236 60.3241C55.729 64.9188 49.4973 67.5 42.9995 67.5ZM42.9995 71C50.4256 71 57.5475 68.05 62.7985 62.799C68.0495 57.548 70.9995 50.4261 70.9995 43C70.9995 35.5739 68.0495 28.452 62.7985 23.201C57.5475 17.95 50.4256 15 42.9995 15C35.5735 15 28.4515 17.95 23.2005 23.201C17.9495 28.452 14.9995 35.5739 14.9995 43C14.9995 50.4261 17.9495 57.548 23.2005 62.799C28.4515 68.05 35.5735 71 42.9995 71Z" fill="#B8D900"/>
<path d="M33.3923 35.251C33.3876 35.364 33.4059 35.4768 33.4464 35.5825C33.4868 35.6882 33.5484 35.7844 33.6274 35.8654C33.7064 35.9464 33.8011 36.0103 33.9058 36.0534C34.0104 36.0964 34.1227 36.1175 34.2358 36.1155H37.1233C37.6063 36.1155 37.9913 35.72 38.0543 35.2405C38.3693 32.9445 39.9443 31.2715 42.7513 31.2715C45.1523 31.2715 47.3503 32.472 47.3503 35.3595C47.3503 37.582 46.0413 38.604 43.9728 40.158C41.6173 41.8695 39.7518 43.868 39.8848 47.1125L39.8953 47.872C39.899 48.1016 39.9928 48.3206 40.1565 48.4817C40.3202 48.6428 40.5407 48.733 40.7703 48.733H43.6088C43.8409 48.733 44.0635 48.6408 44.2276 48.4767C44.3917 48.3126 44.4838 48.0901 44.4838 47.858V47.4905C44.4838 44.9775 45.4393 44.246 48.0188 42.2895C50.1503 40.669 52.3728 38.87 52.3728 35.0935C52.3728 29.805 47.9068 27.25 43.0173 27.25C38.5828 27.25 33.7248 29.315 33.3923 35.251ZM38.8418 55.4215C38.8418 57.287 40.3293 58.666 42.3768 58.666C44.5083 58.666 45.9748 57.287 45.9748 55.4215C45.9748 53.4895 44.5048 52.1315 42.3733 52.1315C40.3293 52.1315 38.8418 53.4895 38.8418 55.4215Z" fill="#B8D900"/>
</g>
<defs>
<clipPath id="clip0_528_3556">
<rect width="56" height="56" fill="white" transform="translate(14.9995 15)"/>
</clipPath>
</defs>
</svg>
