<svg width="85" height="85" viewBox="0 0 85 85" fill="none" xmlns="http://www.w3.org/2000/svg">
<circle cx="42.4995" cy="42.5" r="42.5" fill="#326149"/>
<path d="M63.0295 33.4406L47.6505 21.4789C46.3009 20.4289 44.6397 19.8589 42.9298 19.8589C41.2199 19.8589 39.5587 20.4289 38.2091 21.4789L22.8272 33.4406C21.9028 34.1595 21.1549 35.0801 20.6407 36.1322C20.1264 37.1842 19.8593 38.3399 19.8599 39.5109V60.2739C19.8599 61.8035 20.4675 63.2705 21.5491 64.3521C22.6307 65.4337 24.0977 66.0413 25.6273 66.0413H60.2322C61.7619 66.0413 63.2289 65.4337 64.3105 64.3521C65.3921 63.2705 65.9997 61.8035 65.9997 60.2739V39.5109C65.9997 37.1376 64.9039 34.8969 63.0295 33.4406Z" stroke="#B8D900" stroke-width="3" stroke-linecap="round" stroke-linejoin="round"/>
<path d="M54.3785 51.5796C48.0055 55.4236 37.6759 55.4236 31.3086 51.5796" stroke="#B8D900" stroke-width="3" stroke-linecap="round" stroke-linejoin="round"/>
</svg>
